M48
; DRILL file {KiCad 9.0.0} date 2025-04-28T18:40:01+0200
; FORMAT={-:-/ absolute / metric / decimal}
; #@! TF.CreationDate,2025-04-28T18:40:01+02:00
; #@! TF.GenerationSoftware,Kicad,Pcbnew,9.0.0
; #@! TF.FileFunction,Plated,1,4,PTH
FMAT,2
METRIC
; #@! TA.AperFunction,Plated,PTH,ComponentDrill
T1C0.200
; #@! TA.AperFunction,Plated,PTH,ViaDrill
T2C0.300
; #@! TA.AperFunction,Plated,PTH,ComponentDrill
T3C0.500
; #@! TA.AperFunction,Plated,PTH,ComponentDrill
T4C0.800
; #@! TA.AperFunction,Plated,PTH,ComponentDrill
T5C0.991
; #@! TA.AperFunction,Plated,PTH,ComponentDrill
T6C1.000
; #@! TA.AperFunction,Plated,PTH,ComponentDrill
T7C1.250
%
G90
G05
T1
X123.25Y-116.625
X123.25Y-115.225
X124.45Y-115.225
X124.45Y-116.625
X125.65Y-116.625
X125.65Y-115.225
T2
X108.6Y-117.0
X108.8Y-116.05
X109.0Y-115.2
X109.3Y-123.2
X111.25Y-123.3
X111.4Y-121.85
X111.5Y-120.5
X116.15Y-121.25
X116.35Y-108.7
X117.95Y-111.8
X117.95Y-112.5
X117.95Y-113.2
X120.55Y-123.7
X120.867Y-118.709
X121.15Y-138.85
X121.178Y-117.917
X121.65Y-111.6
X121.85Y-117.396
X123.0Y-107.2
X123.241Y-102.55
X123.9Y-103.2
X123.9Y-107.2
X124.75Y-130.75
X125.35Y-107.1
X127.65Y-110.35
X127.65Y-111.2
X127.65Y-112.0
X128.2Y-105.75
X129.065Y-102.091
X129.783Y-101.738
X130.72Y-101.9
X130.8Y-117.006
X130.85Y-131.35
X131.3Y-121.1
X131.555Y-101.743
X132.15Y-125.9
X132.405Y-101.75
X132.6Y-126.75
X133.255Y-101.75
X133.55Y-123.55
X134.2Y-122.75
X135.262Y-112.512
X135.928Y-125.621
X136.5Y-126.25
X137.2Y-108.8
X137.3Y-127.0
X138.25Y-127.2
X138.7Y-131.35
X139.1Y-111.45
X139.15Y-110.65
X139.414Y-101.026
X140.4Y-129.65
X140.55Y-117.8
X140.9Y-104.65
X141.071Y-119.365
X141.233Y-101.006
X142.1Y-135.15
X142.45Y-129.1
X142.6Y-110.75
X142.75Y-109.05
X142.771Y-119.763
X142.85Y-115.3
X142.95Y-103.75
X143.512Y-120.859
X143.75Y-127.75
X145.379Y-117.763
X145.4Y-108.5
X146.05Y-128.15
X146.25Y-123.9
X146.75Y-131.85
X146.8Y-133.2
X147.15Y-117.95
X147.717Y-111.8
X148.1Y-127.5
X149.75Y-123.2
X149.85Y-129.35
X150.2Y-135.7
X150.7Y-118.8
X151.35Y-132.15
X152.6Y-129.35
T3
X109.153Y-127.22
X109.326Y-126.235
X109.5Y-125.25
X111.479Y-113.454
X111.653Y-112.47
X111.826Y-111.485
X112.0Y-110.5
X126.105Y-99.25
X135.895Y-99.25
T4
X125.88Y-142.803
X127.85Y-143.15
X129.82Y-143.497
T5
X152.847Y-118.5
X152.847Y-126.0
T6
X118.154Y-103.633
X120.354Y-102.362
X145.258Y-104.348
X146.715Y-106.429
X148.172Y-108.51
X149.628Y-110.59
X151.085Y-112.671
X152.542Y-114.752
T7
X123.812Y-142.438
X131.888Y-143.862
T3
X126.105Y-102.6G85X126.105Y-101.9
G05
X135.895Y-102.6G85X135.895Y-101.9
G05
M30
