%TF.GenerationSoftware,KiCad,Pcbnew,9.0.0*%
%TF.CreationDate,2025-05-02T17:15:01+02:00*%
%TF.ProjectId,009_RGB Sound Control Light Bar Redesign_fraseross,3030395f-5247-4422-9053-6f756e642043,rev?*%
%TF.SameCoordinates,Original*%
%TF.FileFunction,Legend,Top*%
%TF.FilePolarity,Positive*%
%FSLAX46Y46*%
G04 Gerber Fmt 4.6, Leading zero omitted, Abs format (unit mm)*
G04 Created by KiCad (PCBNEW 9.0.0) date 2025-05-02 17:15:01*
%MOMM*%
%LPD*%
G01*
G04 APERTURE LIST*
G04 Aperture macros list*
%AMRoundRect*
0 Rectangle with rounded corners*
0 $1 Rounding radius*
0 $2 $3 $4 $5 $6 $7 $8 $9 X,Y pos of 4 corners*
0 Add a 4 corners polygon primitive as box body*
4,1,4,$2,$3,$4,$5,$6,$7,$8,$9,$2,$3,0*
0 Add four circle primitives for the rounded corners*
1,1,$1+$1,$2,$3*
1,1,$1+$1,$4,$5*
1,1,$1+$1,$6,$7*
1,1,$1+$1,$8,$9*
0 Add four rect primitives between the rounded corners*
20,1,$1+$1,$2,$3,$4,$5,0*
20,1,$1+$1,$4,$5,$6,$7,0*
20,1,$1+$1,$6,$7,$8,$9,0*
20,1,$1+$1,$8,$9,$2,$3,0*%
%AMHorizOval*
0 Thick line with rounded ends*
0 $1 width*
0 $2 $3 position (X,Y) of the first rounded end (center of the circle)*
0 $4 $5 position (X,Y) of the second rounded end (center of the circle)*
0 Add line between two ends*
20,1,$1,$2,$3,$4,$5,0*
0 Add two circle primitives to create the rounded ends*
1,1,$1,$2,$3*
1,1,$1,$4,$5*%
%AMRotRect*
0 Rectangle, with rotation*
0 The origin of the aperture is its center*
0 $1 length*
0 $2 width*
0 $3 Rotation angle, in degrees counterclockwise*
0 Add horizontal line*
21,1,$1,$2,0,0,$3*%
G04 Aperture macros list end*
%ADD10C,0.125000*%
%ADD11C,0.150000*%
%ADD12C,0.254000*%
%ADD13C,0.100000*%
%ADD14C,0.120000*%
%ADD15C,0.200000*%
%ADD16C,0.152400*%
%ADD17C,0.500000*%
%ADD18C,0.010000*%
%ADD19RoundRect,0.250000X-0.475000X0.250000X-0.475000X-0.250000X0.475000X-0.250000X0.475000X0.250000X0*%
%ADD20RoundRect,0.218750X0.256250X-0.218750X0.256250X0.218750X-0.256250X0.218750X-0.256250X-0.218750X0*%
%ADD21C,1.020000*%
%ADD22O,1.304000X2.004000*%
%ADD23C,0.889000*%
%ADD24R,1.193800X1.193800*%
%ADD25C,1.498600*%
%ADD26C,1.300000*%
%ADD27C,1.875000*%
%ADD28RoundRect,0.250000X0.712679X-1.141091X1.059975X0.828524X-0.712679X1.141091X-1.059975X-0.828524X0*%
%ADD29RoundRect,0.200000X-0.275000X0.200000X-0.275000X-0.200000X0.275000X-0.200000X0.275000X0.200000X0*%
%ADD30RotRect,1.700000X1.700000X300.000000*%
%ADD31HorizOval,1.700000X0.000000X0.000000X0.000000X0.000000X0*%
%ADD32RotRect,1.700000X1.700000X35.000000*%
%ADD33HorizOval,1.700000X0.000000X0.000000X0.000000X0.000000X0*%
%ADD34RoundRect,0.218750X-0.061318X-0.331294X0.317568X-0.112544X0.061318X0.331294X-0.317568X0.112544X0*%
%ADD35RotRect,0.850000X0.850000X350.000000*%
%ADD36HorizOval,0.850000X0.000000X0.000000X0.000000X0.000000X0*%
%ADD37RoundRect,0.275250X0.851116X0.502083X-0.628065X0.762903X-0.851116X-0.502083X0.628065X-0.762903X0*%
%ADD38RoundRect,0.287625X0.991664X0.506621X-0.758585X0.815237X-0.991664X-0.506621X0.758585X-0.815237X0*%
%ADD39RoundRect,0.225000X-0.250000X0.225000X-0.250000X-0.225000X0.250000X-0.225000X0.250000X0.225000X0*%
G04 APERTURE END LIST*
D10*
X137490476Y-109463595D02*
X137947619Y-109463595D01*
X137719047Y-110263595D02*
X137719047Y-109463595D01*
X138138095Y-109463595D02*
X138671429Y-110263595D01*
X138671429Y-109463595D02*
X138138095Y-110263595D01*
D11*
X130459524Y-107162295D02*
X130459524Y-106362295D01*
X130459524Y-106362295D02*
X130764286Y-106362295D01*
X130764286Y-106362295D02*
X130840476Y-106400390D01*
X130840476Y-106400390D02*
X130878571Y-106438485D01*
X130878571Y-106438485D02*
X130916667Y-106514676D01*
X130916667Y-106514676D02*
X130916667Y-106628961D01*
X130916667Y-106628961D02*
X130878571Y-106705152D01*
X130878571Y-106705152D02*
X130840476Y-106743247D01*
X130840476Y-106743247D02*
X130764286Y-106781342D01*
X130764286Y-106781342D02*
X130459524Y-106781342D01*
X131221428Y-106438485D02*
X131259524Y-106400390D01*
X131259524Y-106400390D02*
X131335714Y-106362295D01*
X131335714Y-106362295D02*
X131526190Y-106362295D01*
X131526190Y-106362295D02*
X131602381Y-106400390D01*
X131602381Y-106400390D02*
X131640476Y-106438485D01*
X131640476Y-106438485D02*
X131678571Y-106514676D01*
X131678571Y-106514676D02*
X131678571Y-106590866D01*
X131678571Y-106590866D02*
X131640476Y-106705152D01*
X131640476Y-106705152D02*
X131183333Y-107162295D01*
X131183333Y-107162295D02*
X131678571Y-107162295D01*
X149957200Y-122633332D02*
X150004819Y-122490475D01*
X150004819Y-122490475D02*
X150004819Y-122252380D01*
X150004819Y-122252380D02*
X149957200Y-122157142D01*
X149957200Y-122157142D02*
X149909580Y-122109523D01*
X149909580Y-122109523D02*
X149814342Y-122061904D01*
X149814342Y-122061904D02*
X149719104Y-122061904D01*
X149719104Y-122061904D02*
X149623866Y-122109523D01*
X149623866Y-122109523D02*
X149576247Y-122157142D01*
X149576247Y-122157142D02*
X149528628Y-122252380D01*
X149528628Y-122252380D02*
X149481009Y-122442856D01*
X149481009Y-122442856D02*
X149433390Y-122538094D01*
X149433390Y-122538094D02*
X149385771Y-122585713D01*
X149385771Y-122585713D02*
X149290533Y-122633332D01*
X149290533Y-122633332D02*
X149195295Y-122633332D01*
X149195295Y-122633332D02*
X149100057Y-122585713D01*
X149100057Y-122585713D02*
X149052438Y-122538094D01*
X149052438Y-122538094D02*
X149004819Y-122442856D01*
X149004819Y-122442856D02*
X149004819Y-122204761D01*
X149004819Y-122204761D02*
X149052438Y-122061904D01*
X149004819Y-121728570D02*
X150004819Y-121490475D01*
X150004819Y-121490475D02*
X149290533Y-121299999D01*
X149290533Y-121299999D02*
X150004819Y-121109523D01*
X150004819Y-121109523D02*
X149004819Y-120871428D01*
X150004819Y-119966666D02*
X150004819Y-120538094D01*
X150004819Y-120252380D02*
X149004819Y-120252380D01*
X149004819Y-120252380D02*
X149147676Y-120347618D01*
X149147676Y-120347618D02*
X149242914Y-120442856D01*
X149242914Y-120442856D02*
X149290533Y-120538094D01*
D12*
X133507853Y-142988010D02*
X133676024Y-143079072D01*
X133676024Y-143079072D02*
X133973811Y-143131580D01*
X133973811Y-143131580D02*
X134103427Y-143093026D01*
X134103427Y-143093026D02*
X134173486Y-143043970D01*
X134173486Y-143043970D02*
X134254047Y-142935356D01*
X134254047Y-142935356D02*
X134275050Y-142816242D01*
X134275050Y-142816242D02*
X134236496Y-142686625D01*
X134236496Y-142686625D02*
X134187440Y-142616566D01*
X134187440Y-142616566D02*
X134078826Y-142536006D01*
X134078826Y-142536006D02*
X133851098Y-142434442D01*
X133851098Y-142434442D02*
X133742485Y-142353881D01*
X133742485Y-142353881D02*
X133693429Y-142283822D01*
X133693429Y-142283822D02*
X133654875Y-142154206D01*
X133654875Y-142154206D02*
X133675878Y-142035091D01*
X133675878Y-142035091D02*
X133756439Y-141926478D01*
X133756439Y-141926478D02*
X133826498Y-141877422D01*
X133826498Y-141877422D02*
X133956114Y-141838868D01*
X133956114Y-141838868D02*
X134253901Y-141891376D01*
X134253901Y-141891376D02*
X134422072Y-141982438D01*
X134888030Y-142126008D02*
X134958089Y-142076952D01*
X134958089Y-142076952D02*
X135087705Y-142038398D01*
X135087705Y-142038398D02*
X135385492Y-142090906D01*
X135385492Y-142090906D02*
X135494106Y-142171466D01*
X135494106Y-142171466D02*
X135543162Y-142241525D01*
X135543162Y-142241525D02*
X135581716Y-142371142D01*
X135581716Y-142371142D02*
X135560713Y-142490256D01*
X135560713Y-142490256D02*
X135469650Y-142658427D01*
X135469650Y-142658427D02*
X134628942Y-143247097D01*
X134628942Y-143247097D02*
X135403189Y-143383618D01*
D11*
X122677500Y-100636227D02*
X122058911Y-100993370D01*
X122058911Y-100993370D02*
X121911383Y-101023559D01*
X121911383Y-101023559D02*
X121781286Y-100988699D01*
X121781286Y-100988699D02*
X121668618Y-100888791D01*
X121668618Y-100888791D02*
X121620999Y-100806312D01*
X122311475Y-102002252D02*
X122025761Y-101507381D01*
X122168618Y-101754817D02*
X123034643Y-101254817D01*
X123034643Y-101254817D02*
X122863306Y-101243767D01*
X122863306Y-101243767D02*
X122733209Y-101208907D01*
X122733209Y-101208907D02*
X122644350Y-101150238D01*
X141071429Y-110262295D02*
X141071429Y-109462295D01*
X141071429Y-109462295D02*
X141261905Y-109462295D01*
X141261905Y-109462295D02*
X141376191Y-109500390D01*
X141376191Y-109500390D02*
X141452381Y-109576580D01*
X141452381Y-109576580D02*
X141490476Y-109652771D01*
X141490476Y-109652771D02*
X141528572Y-109805152D01*
X141528572Y-109805152D02*
X141528572Y-109919438D01*
X141528572Y-109919438D02*
X141490476Y-110071819D01*
X141490476Y-110071819D02*
X141452381Y-110148009D01*
X141452381Y-110148009D02*
X141376191Y-110224200D01*
X141376191Y-110224200D02*
X141261905Y-110262295D01*
X141261905Y-110262295D02*
X141071429Y-110262295D01*
X142328572Y-110186104D02*
X142290476Y-110224200D01*
X142290476Y-110224200D02*
X142176191Y-110262295D01*
X142176191Y-110262295D02*
X142100000Y-110262295D01*
X142100000Y-110262295D02*
X141985714Y-110224200D01*
X141985714Y-110224200D02*
X141909524Y-110148009D01*
X141909524Y-110148009D02*
X141871429Y-110071819D01*
X141871429Y-110071819D02*
X141833333Y-109919438D01*
X141833333Y-109919438D02*
X141833333Y-109805152D01*
X141833333Y-109805152D02*
X141871429Y-109652771D01*
X141871429Y-109652771D02*
X141909524Y-109576580D01*
X141909524Y-109576580D02*
X141985714Y-109500390D01*
X141985714Y-109500390D02*
X142100000Y-109462295D01*
X142100000Y-109462295D02*
X142176191Y-109462295D01*
X142176191Y-109462295D02*
X142290476Y-109500390D01*
X142290476Y-109500390D02*
X142328572Y-109538485D01*
X142823810Y-109462295D02*
X142976191Y-109462295D01*
X142976191Y-109462295D02*
X143052381Y-109500390D01*
X143052381Y-109500390D02*
X143128572Y-109576580D01*
X143128572Y-109576580D02*
X143166667Y-109728961D01*
X143166667Y-109728961D02*
X143166667Y-109995628D01*
X143166667Y-109995628D02*
X143128572Y-110148009D01*
X143128572Y-110148009D02*
X143052381Y-110224200D01*
X143052381Y-110224200D02*
X142976191Y-110262295D01*
X142976191Y-110262295D02*
X142823810Y-110262295D01*
X142823810Y-110262295D02*
X142747619Y-110224200D01*
X142747619Y-110224200D02*
X142671429Y-110148009D01*
X142671429Y-110148009D02*
X142633333Y-109995628D01*
X142633333Y-109995628D02*
X142633333Y-109728961D01*
X142633333Y-109728961D02*
X142671429Y-109576580D01*
X142671429Y-109576580D02*
X142747619Y-109500390D01*
X142747619Y-109500390D02*
X142823810Y-109462295D01*
X143509524Y-110262295D02*
X143509524Y-109462295D01*
X143966667Y-110262295D02*
X143623809Y-109805152D01*
X143966667Y-109462295D02*
X143509524Y-109919438D01*
X139716667Y-110262295D02*
X139450000Y-109881342D01*
X139259524Y-110262295D02*
X139259524Y-109462295D01*
X139259524Y-109462295D02*
X139564286Y-109462295D01*
X139564286Y-109462295D02*
X139640476Y-109500390D01*
X139640476Y-109500390D02*
X139678571Y-109538485D01*
X139678571Y-109538485D02*
X139716667Y-109614676D01*
X139716667Y-109614676D02*
X139716667Y-109728961D01*
X139716667Y-109728961D02*
X139678571Y-109805152D01*
X139678571Y-109805152D02*
X139640476Y-109843247D01*
X139640476Y-109843247D02*
X139564286Y-109881342D01*
X139564286Y-109881342D02*
X139259524Y-109881342D01*
X139983333Y-109462295D02*
X140516667Y-110262295D01*
X140516667Y-109462295D02*
X139983333Y-110262295D01*
X143335603Y-102184368D02*
X143745300Y-102769476D01*
X143745300Y-102769476D02*
X143788232Y-102913811D01*
X143788232Y-102913811D02*
X143764844Y-103046452D01*
X143764844Y-103046452D02*
X143675136Y-103167399D01*
X143675136Y-103167399D02*
X143597121Y-103222025D01*
X143741294Y-102016564D02*
X143752989Y-101950243D01*
X143752989Y-101950243D02*
X143803690Y-101856610D01*
X143803690Y-101856610D02*
X143998726Y-101720044D01*
X143998726Y-101720044D02*
X144104054Y-101704425D01*
X144104054Y-101704425D02*
X144170374Y-101716119D01*
X144170374Y-101716119D02*
X144264008Y-101766820D01*
X144264008Y-101766820D02*
X144318634Y-101844835D01*
X144318634Y-101844835D02*
X144361566Y-101989169D01*
X144361566Y-101989169D02*
X144221237Y-102785014D01*
X144221237Y-102785014D02*
X144728331Y-102429943D01*
X111916400Y-108255218D02*
X111792365Y-108958652D01*
X111792365Y-108958652D02*
X111720663Y-109091070D01*
X111720663Y-109091070D02*
X111610334Y-109168324D01*
X111610334Y-109168324D02*
X111461378Y-109190412D01*
X111461378Y-109190412D02*
X111367587Y-109173874D01*
X112854312Y-108420598D02*
X112385356Y-108337908D01*
X112385356Y-108337908D02*
X112255771Y-108798595D01*
X112255771Y-108798595D02*
X112310935Y-108759968D01*
X112310935Y-108759968D02*
X112412996Y-108729611D01*
X112412996Y-108729611D02*
X112647474Y-108770956D01*
X112647474Y-108770956D02*
X112732996Y-108834389D01*
X112732996Y-108834389D02*
X112771623Y-108889554D01*
X112771623Y-108889554D02*
X112801980Y-108991614D01*
X112801980Y-108991614D02*
X112760635Y-109226092D01*
X112760635Y-109226092D02*
X112697202Y-109311614D01*
X112697202Y-109311614D02*
X112642037Y-109350241D01*
X112642037Y-109350241D02*
X112539977Y-109380598D01*
X112539977Y-109380598D02*
X112305499Y-109339254D01*
X112305499Y-109339254D02*
X112219977Y-109275820D01*
X112219977Y-109275820D02*
X112181350Y-109220656D01*
D13*
X144314886Y-135739989D02*
X144227730Y-134743795D01*
X144227730Y-134743795D02*
X144622049Y-135426310D01*
X144622049Y-135426310D02*
X144891860Y-134685691D01*
X144891860Y-134685691D02*
X144979015Y-135681886D01*
X145453394Y-135640383D02*
X145366238Y-134644188D01*
X146022648Y-135590580D02*
X145545904Y-135058678D01*
X145935492Y-134594385D02*
X145416041Y-135213442D01*
X146971405Y-135507574D02*
X146402151Y-135557377D01*
X146686778Y-135532476D02*
X146599622Y-134536281D01*
X146599622Y-134536281D02*
X146517197Y-134686895D01*
X146517197Y-134686895D02*
X146430622Y-134790071D01*
X146430622Y-134790071D02*
X146339896Y-134845810D01*
D11*
X110866400Y-126305218D02*
X110742365Y-127008652D01*
X110742365Y-127008652D02*
X110670663Y-127141070D01*
X110670663Y-127141070D02*
X110560334Y-127218324D01*
X110560334Y-127218324D02*
X110411378Y-127240412D01*
X110411378Y-127240412D02*
X110317587Y-127223874D01*
X111757417Y-126462329D02*
X111569834Y-126429253D01*
X111569834Y-126429253D02*
X111467774Y-126459610D01*
X111467774Y-126459610D02*
X111412609Y-126498237D01*
X111412609Y-126498237D02*
X111294011Y-126622386D01*
X111294011Y-126622386D02*
X111214040Y-126801699D01*
X111214040Y-126801699D02*
X111147888Y-127176864D01*
X111147888Y-127176864D02*
X111178246Y-127278925D01*
X111178246Y-127278925D02*
X111216872Y-127334089D01*
X111216872Y-127334089D02*
X111302395Y-127397523D01*
X111302395Y-127397523D02*
X111489977Y-127430598D01*
X111489977Y-127430598D02*
X111592037Y-127400241D01*
X111592037Y-127400241D02*
X111647202Y-127361614D01*
X111647202Y-127361614D02*
X111710635Y-127276092D01*
X111710635Y-127276092D02*
X111751980Y-127041614D01*
X111751980Y-127041614D02*
X111721623Y-126939554D01*
X111721623Y-126939554D02*
X111682996Y-126884389D01*
X111682996Y-126884389D02*
X111597474Y-126820956D01*
X111597474Y-126820956D02*
X111409891Y-126787880D01*
X111409891Y-126787880D02*
X111307831Y-126818237D01*
X111307831Y-126818237D02*
X111252666Y-126856864D01*
X111252666Y-126856864D02*
X111189233Y-126942386D01*
D14*
%TO.C,C8*%
X137515000Y-100718748D02*
X137515000Y-101241252D01*
X138985000Y-100718748D02*
X138985000Y-101241252D01*
%TO.C,TX*%
X137515000Y-106900000D02*
X137515001Y-109185001D01*
X137515001Y-109185001D02*
X138985001Y-109185000D01*
X138985001Y-109185000D02*
X138984999Y-106900000D01*
D15*
%TO.C,P2*%
X126000000Y-98000000D02*
X126000000Y-97750000D01*
X126000000Y-100950000D02*
X126000000Y-100550000D01*
X126000000Y-104000000D02*
X126000000Y-103750000D01*
X127000000Y-104000000D02*
X126000000Y-104000000D01*
X135000000Y-104000000D02*
X136000000Y-104000000D01*
X136000000Y-98000000D02*
X136000000Y-97750000D01*
X136000000Y-100950000D02*
X136000000Y-100550000D01*
X136000000Y-104000000D02*
X136000000Y-103750000D01*
X134300000Y-105550000D02*
G75*
G02*
X134100000Y-105550000I-100000J0D01*
G01*
X134100000Y-105550000D02*
G75*
G02*
X134300000Y-105550000I100000J0D01*
G01*
D16*
%TO.C,SW1*%
X151120400Y-118274900D02*
X151120400Y-119220362D01*
X151120400Y-121079642D02*
X151120400Y-123420358D01*
X151120400Y-125279638D02*
X151120400Y-126225100D01*
X151120400Y-126225100D02*
X151789032Y-126225100D01*
X151789032Y-118274900D02*
X151120400Y-118274900D01*
X153905766Y-126225100D02*
X154879600Y-126225100D01*
X154879600Y-118274900D02*
X153905766Y-118274900D01*
X154879600Y-126225100D02*
X154879600Y-118274900D01*
D17*
%TO.C,S2*%
X121941154Y-142108110D02*
X121941154Y-142108110D01*
X122039635Y-142125474D02*
X122039635Y-142125474D01*
D13*
X123241983Y-144520650D02*
X131711328Y-146014023D01*
X123268030Y-144372929D02*
X123241983Y-144520650D01*
X123441681Y-143388121D02*
X123268030Y-144372929D01*
X123875797Y-140926100D02*
X123988669Y-140285976D01*
X123988669Y-140285976D02*
X132458019Y-141779350D01*
X131711328Y-146014023D02*
X131911026Y-144881494D01*
X132458019Y-141779350D02*
X132258323Y-142911879D01*
D17*
X121941154Y-142108110D02*
G75*
G02*
X122039636Y-142125474I49241J-8681D01*
G01*
X122039635Y-142125474D02*
G75*
G02*
X121941155Y-142108110I-49240J8683D01*
G01*
D14*
%TO.C,D4*%
X107247110Y-122231053D02*
X108256007Y-116509318D01*
X107247110Y-122231053D02*
X111481786Y-122977738D01*
X111481786Y-122977738D02*
X112490682Y-117256007D01*
%TO.C,R12*%
X139477500Y-104362742D02*
X139477500Y-104837258D01*
X140522500Y-104362742D02*
X140522500Y-104837258D01*
%TO.C,J1*%
X116337671Y-103145683D02*
X117667660Y-105449307D01*
X118589332Y-101845672D02*
X116337671Y-103145683D01*
X118589332Y-101845672D02*
X119919329Y-104149317D01*
X119689179Y-101210685D02*
X120840989Y-100545694D01*
X119919329Y-104149317D02*
X117667660Y-105449307D01*
X120840989Y-100545694D02*
X121505997Y-101697497D01*
%TO.C,DCOK*%
X141065000Y-106912499D02*
X141065001Y-109197500D01*
X141065001Y-109197500D02*
X142535001Y-109197499D01*
X142535001Y-109197499D02*
X142534999Y-106912499D01*
%TO.C,RX*%
X139265000Y-106900000D02*
X139265001Y-109185001D01*
X139265001Y-109185001D02*
X140735001Y-109185000D01*
X140735001Y-109185000D02*
X140734999Y-106900000D01*
%TO.C,J2*%
X143405461Y-104021770D02*
X144494933Y-103258914D01*
X144168318Y-105111243D02*
X143405461Y-104021770D01*
X144896760Y-106151566D02*
X147075704Y-104625852D01*
X144896760Y-106151566D02*
X152215595Y-116603945D01*
X147075704Y-104625852D02*
X154394540Y-115078232D01*
X152215595Y-116603945D02*
X154394540Y-115078232D01*
%TO.C,D3*%
X121096452Y-106355971D02*
X121831452Y-107629029D01*
X121831452Y-107629029D02*
X123810320Y-106486529D01*
X123075320Y-105213471D02*
X121096452Y-106355971D01*
%TO.C,D1*%
X120096452Y-104855971D02*
X120831452Y-106129029D01*
X120831452Y-106129029D02*
X122810320Y-104986529D01*
X122075320Y-103713471D02*
X120096452Y-104855971D01*
%TO.C,J5*%
X110255112Y-114061104D02*
X111850501Y-114342415D01*
X110829887Y-110801391D02*
X110255112Y-114061104D01*
X110829887Y-110801391D02*
X111238583Y-110873455D01*
X111913726Y-113983844D02*
X111850501Y-114342415D01*
X112087373Y-112999037D02*
X112068585Y-113105597D01*
X112140655Y-109702305D02*
X112815249Y-109821255D01*
X112261023Y-112014229D02*
X112242233Y-112120789D01*
X112815249Y-109821255D02*
X112674593Y-110618949D01*
%TO.C,R10*%
X137737500Y-104362742D02*
X137737500Y-104837258D01*
X138782500Y-104362742D02*
X138782500Y-104837258D01*
%TO.C,R8*%
X141227500Y-104362742D02*
X141227500Y-104837258D01*
X142272500Y-104362742D02*
X142272500Y-104837258D01*
D13*
%TO.C,MK1*%
X149981932Y-133814036D02*
X150769778Y-133952954D01*
X150323760Y-134178937D02*
X150306395Y-134277418D01*
X150323760Y-134178937D02*
X150445314Y-133489572D01*
X152832635Y-132348481D02*
G75*
G02*
X146632635Y-132348481I-3100000J0D01*
G01*
X146632635Y-132348481D02*
G75*
G02*
X152832635Y-132348481I3100000J0D01*
G01*
D14*
%TO.C,J6*%
X107928760Y-127826297D02*
X109524149Y-128107607D01*
X108329887Y-125551391D02*
X107928760Y-127826297D01*
X108329887Y-125551391D02*
X108738583Y-125623455D01*
X109587374Y-127749037D02*
X109524149Y-128107607D01*
X109640655Y-124452305D02*
X110315249Y-124571255D01*
X109761023Y-126764229D02*
X109742233Y-126870789D01*
X110315249Y-124571255D02*
X110174593Y-125368949D01*
%TO.C,C7*%
X139790000Y-101109420D02*
X139790000Y-101390580D01*
X140810000Y-101109420D02*
X140810000Y-101390580D01*
%TD*%
%LPC*%
D18*
%TO.C,P2*%
X128150000Y-105050000D02*
X127450000Y-105050000D01*
X127450000Y-103400000D01*
X128150000Y-103400000D01*
X128150000Y-105050000D01*
G36*
X128150000Y-105050000D02*
G01*
X127450000Y-105050000D01*
X127450000Y-103400000D01*
X128150000Y-103400000D01*
X128150000Y-105050000D01*
G37*
X128950000Y-105050000D02*
X128250000Y-105050000D01*
X128250000Y-103400000D01*
X128950000Y-103400000D01*
X128950000Y-105050000D01*
G36*
X128950000Y-105050000D02*
G01*
X128250000Y-105050000D01*
X128250000Y-103400000D01*
X128950000Y-103400000D01*
X128950000Y-105050000D01*
G37*
X129450000Y-105050000D02*
X129050000Y-105050000D01*
X129050000Y-103400000D01*
X129450000Y-103400000D01*
X129450000Y-105050000D01*
G36*
X129450000Y-105050000D02*
G01*
X129050000Y-105050000D01*
X129050000Y-103400000D01*
X129450000Y-103400000D01*
X129450000Y-105050000D01*
G37*
X129950000Y-105050000D02*
X129550000Y-105050000D01*
X129550000Y-103400000D01*
X129950000Y-103400000D01*
X129950000Y-105050000D01*
G36*
X129950000Y-105050000D02*
G01*
X129550000Y-105050000D01*
X129550000Y-103400000D01*
X129950000Y-103400000D01*
X129950000Y-105050000D01*
G37*
X130450000Y-105050000D02*
X130050000Y-105050000D01*
X130050000Y-103400000D01*
X130450000Y-103400000D01*
X130450000Y-105050000D01*
G36*
X130450000Y-105050000D02*
G01*
X130050000Y-105050000D01*
X130050000Y-103400000D01*
X130450000Y-103400000D01*
X130450000Y-105050000D01*
G37*
X130950000Y-105050000D02*
X130550000Y-105050000D01*
X130550000Y-103400000D01*
X130950000Y-103400000D01*
X130950000Y-105050000D01*
G36*
X130950000Y-105050000D02*
G01*
X130550000Y-105050000D01*
X130550000Y-103400000D01*
X130950000Y-103400000D01*
X130950000Y-105050000D01*
G37*
X131450000Y-105050000D02*
X131050000Y-105050000D01*
X131050000Y-103400000D01*
X131450000Y-103400000D01*
X131450000Y-105050000D01*
G36*
X131450000Y-105050000D02*
G01*
X131050000Y-105050000D01*
X131050000Y-103400000D01*
X131450000Y-103400000D01*
X131450000Y-105050000D01*
G37*
X131950000Y-105050000D02*
X131550000Y-105050000D01*
X131550000Y-103400000D01*
X131950000Y-103400000D01*
X131950000Y-105050000D01*
G36*
X131950000Y-105050000D02*
G01*
X131550000Y-105050000D01*
X131550000Y-103400000D01*
X131950000Y-103400000D01*
X131950000Y-105050000D01*
G37*
X132450000Y-105050000D02*
X132050000Y-105050000D01*
X132050000Y-103400000D01*
X132450000Y-103400000D01*
X132450000Y-105050000D01*
G36*
X132450000Y-105050000D02*
G01*
X132050000Y-105050000D01*
X132050000Y-103400000D01*
X132450000Y-103400000D01*
X132450000Y-105050000D01*
G37*
X132950000Y-105050000D02*
X132550000Y-105050000D01*
X132550000Y-103400000D01*
X132950000Y-103400000D01*
X132950000Y-105050000D01*
G36*
X132950000Y-105050000D02*
G01*
X132550000Y-105050000D01*
X132550000Y-103400000D01*
X132950000Y-103400000D01*
X132950000Y-105050000D01*
G37*
X133750000Y-105050000D02*
X133050000Y-105050000D01*
X133050000Y-103400000D01*
X133750000Y-103400000D01*
X133750000Y-105050000D01*
G36*
X133750000Y-105050000D02*
G01*
X133050000Y-105050000D01*
X133050000Y-103400000D01*
X133750000Y-103400000D01*
X133750000Y-105050000D01*
G37*
X134550000Y-105050000D02*
X133850000Y-105050000D01*
X133850000Y-103400000D01*
X134550000Y-103400000D01*
X134550000Y-105050000D01*
G36*
X134550000Y-105050000D02*
G01*
X133850000Y-105050000D01*
X133850000Y-103400000D01*
X134550000Y-103400000D01*
X134550000Y-105050000D01*
G37*
X126139000Y-98251000D02*
X126173000Y-98254000D01*
X126207000Y-98258000D01*
X126240000Y-98264000D01*
X126273000Y-98272000D01*
X126306000Y-98282000D01*
X126338000Y-98293000D01*
X126369000Y-98306000D01*
X126400000Y-98321000D01*
X126430000Y-98337000D01*
X126459000Y-98355000D01*
X126487000Y-98374000D01*
X126514000Y-98395000D01*
X126540000Y-98417000D01*
X126565000Y-98440000D01*
X126588000Y-98465000D01*
X126610000Y-98491000D01*
X126631000Y-98518000D01*
X126650000Y-98546000D01*
X126668000Y-98575000D01*
X126684000Y-98605000D01*
X126699000Y-98636000D01*
X126712000Y-98667000D01*
X126723000Y-98699000D01*
X126733000Y-98732000D01*
X126741000Y-98765000D01*
X126747000Y-98798000D01*
X126751000Y-98832000D01*
X126754000Y-98866000D01*
X126755000Y-98900000D01*
X126755000Y-99250000D01*
X126755000Y-99600000D01*
X126754000Y-99634000D01*
X126751000Y-99668000D01*
X126747000Y-99702000D01*
X126741000Y-99735000D01*
X126733000Y-99768000D01*
X126723000Y-99801000D01*
X126712000Y-99833000D01*
X126699000Y-99864000D01*
X126684000Y-99895000D01*
X126668000Y-99925000D01*
X126650000Y-99954000D01*
X126631000Y-99982000D01*
X126610000Y-100009000D01*
X126588000Y-100035000D01*
X126565000Y-100060000D01*
X126540000Y-100083000D01*
X126514000Y-100105000D01*
X126487000Y-100126000D01*
X126459000Y-100145000D01*
X126430000Y-100163000D01*
X126400000Y-100179000D01*
X126369000Y-100194000D01*
X126338000Y-100207000D01*
X126306000Y-100218000D01*
X126273000Y-100228000D01*
X126240000Y-100236000D01*
X126207000Y-100242000D01*
X126173000Y-100246000D01*
X126139000Y-100249000D01*
X126105000Y-100250000D01*
X126071000Y-100249000D01*
X126037000Y-100246000D01*
X126003000Y-100242000D01*
X125970000Y-100236000D01*
X125937000Y-100228000D01*
X125904000Y-100218000D01*
X125872000Y-100207000D01*
X125841000Y-100194000D01*
X125810000Y-100179000D01*
X125780000Y-100163000D01*
X125751000Y-100145000D01*
X125723000Y-100126000D01*
X125696000Y-100105000D01*
X125670000Y-100083000D01*
X125645000Y-100060000D01*
X125622000Y-100035000D01*
X125600000Y-100009000D01*
X125579000Y-99982000D01*
X125560000Y-99954000D01*
X125542000Y-99925000D01*
X125526000Y-99895000D01*
X125511000Y-99864000D01*
X125498000Y-99833000D01*
X125487000Y-99801000D01*
X125477000Y-99768000D01*
X125469000Y-99735000D01*
X125463000Y-99702000D01*
X125459000Y-99668000D01*
X125456000Y-99634000D01*
X125455000Y-99600000D01*
X125455000Y-99250000D01*
X125455000Y-98900000D01*
X125456000Y-98866000D01*
X125459000Y-98832000D01*
X125463000Y-98798000D01*
X125469000Y-98765000D01*
X125477000Y-98732000D01*
X125487000Y-98699000D01*
X125498000Y-98667000D01*
X125511000Y-98636000D01*
X125526000Y-98605000D01*
X125542000Y-98575000D01*
X125560000Y-98546000D01*
X125579000Y-98518000D01*
X125600000Y-98491000D01*
X125622000Y-98465000D01*
X125645000Y-98440000D01*
X125670000Y-98417000D01*
X125696000Y-98395000D01*
X125723000Y-98374000D01*
X125751000Y-98355000D01*
X125780000Y-98337000D01*
X125810000Y-98321000D01*
X125841000Y-98306000D01*
X125872000Y-98293000D01*
X125904000Y-98282000D01*
X125937000Y-98272000D01*
X125970000Y-98264000D01*
X126003000Y-98258000D01*
X126037000Y-98254000D01*
X126071000Y-98251000D01*
X126105000Y-98250000D01*
X126139000Y-98251000D01*
G36*
X126139000Y-98251000D02*
G01*
X126173000Y-98254000D01*
X126207000Y-98258000D01*
X126240000Y-98264000D01*
X126273000Y-98272000D01*
X126306000Y-98282000D01*
X126338000Y-98293000D01*
X126369000Y-98306000D01*
X126400000Y-98321000D01*
X126430000Y-98337000D01*
X126459000Y-98355000D01*
X126487000Y-98374000D01*
X126514000Y-98395000D01*
X126540000Y-98417000D01*
X126565000Y-98440000D01*
X126588000Y-98465000D01*
X126610000Y-98491000D01*
X126631000Y-98518000D01*
X126650000Y-98546000D01*
X126668000Y-98575000D01*
X126684000Y-98605000D01*
X126699000Y-98636000D01*
X126712000Y-98667000D01*
X126723000Y-98699000D01*
X126733000Y-98732000D01*
X126741000Y-98765000D01*
X126747000Y-98798000D01*
X126751000Y-98832000D01*
X126754000Y-98866000D01*
X126755000Y-98900000D01*
X126755000Y-99250000D01*
X126755000Y-99600000D01*
X126754000Y-99634000D01*
X126751000Y-99668000D01*
X126747000Y-99702000D01*
X126741000Y-99735000D01*
X126733000Y-99768000D01*
X126723000Y-99801000D01*
X126712000Y-99833000D01*
X126699000Y-99864000D01*
X126684000Y-99895000D01*
X126668000Y-99925000D01*
X126650000Y-99954000D01*
X126631000Y-99982000D01*
X126610000Y-100009000D01*
X126588000Y-100035000D01*
X126565000Y-100060000D01*
X126540000Y-100083000D01*
X126514000Y-100105000D01*
X126487000Y-100126000D01*
X126459000Y-100145000D01*
X126430000Y-100163000D01*
X126400000Y-100179000D01*
X126369000Y-100194000D01*
X126338000Y-100207000D01*
X126306000Y-100218000D01*
X126273000Y-100228000D01*
X126240000Y-100236000D01*
X126207000Y-100242000D01*
X126173000Y-100246000D01*
X126139000Y-100249000D01*
X126105000Y-100250000D01*
X126071000Y-100249000D01*
X126037000Y-100246000D01*
X126003000Y-100242000D01*
X125970000Y-100236000D01*
X125937000Y-100228000D01*
X125904000Y-100218000D01*
X125872000Y-100207000D01*
X125841000Y-100194000D01*
X125810000Y-100179000D01*
X125780000Y-100163000D01*
X125751000Y-100145000D01*
X125723000Y-100126000D01*
X125696000Y-100105000D01*
X125670000Y-100083000D01*
X125645000Y-100060000D01*
X125622000Y-100035000D01*
X125600000Y-100009000D01*
X125579000Y-99982000D01*
X125560000Y-99954000D01*
X125542000Y-99925000D01*
X125526000Y-99895000D01*
X125511000Y-99864000D01*
X125498000Y-99833000D01*
X125487000Y-99801000D01*
X125477000Y-99768000D01*
X125469000Y-99735000D01*
X125463000Y-99702000D01*
X125459000Y-99668000D01*
X125456000Y-99634000D01*
X125455000Y-99600000D01*
X125455000Y-99250000D01*
X125455000Y-98900000D01*
X125456000Y-98866000D01*
X125459000Y-98832000D01*
X125463000Y-98798000D01*
X125469000Y-98765000D01*
X125477000Y-98732000D01*
X125487000Y-98699000D01*
X125498000Y-98667000D01*
X125511000Y-98636000D01*
X125526000Y-98605000D01*
X125542000Y-98575000D01*
X125560000Y-98546000D01*
X125579000Y-98518000D01*
X125600000Y-98491000D01*
X125622000Y-98465000D01*
X125645000Y-98440000D01*
X125670000Y-98417000D01*
X125696000Y-98395000D01*
X125723000Y-98374000D01*
X125751000Y-98355000D01*
X125780000Y-98337000D01*
X125810000Y-98321000D01*
X125841000Y-98306000D01*
X125872000Y-98293000D01*
X125904000Y-98282000D01*
X125937000Y-98272000D01*
X125970000Y-98264000D01*
X126003000Y-98258000D01*
X126037000Y-98254000D01*
X126071000Y-98251000D01*
X126105000Y-98250000D01*
X126139000Y-98251000D01*
G37*
X135929000Y-98251000D02*
X135963000Y-98254000D01*
X135997000Y-98258000D01*
X136030000Y-98264000D01*
X136063000Y-98272000D01*
X136096000Y-98282000D01*
X136128000Y-98293000D01*
X136159000Y-98306000D01*
X136190000Y-98321000D01*
X136220000Y-98337000D01*
X136249000Y-98355000D01*
X136277000Y-98374000D01*
X136304000Y-98395000D01*
X136330000Y-98417000D01*
X136355000Y-98440000D01*
X136378000Y-98465000D01*
X136400000Y-98491000D01*
X136421000Y-98518000D01*
X136440000Y-98546000D01*
X136458000Y-98575000D01*
X136474000Y-98605000D01*
X136489000Y-98636000D01*
X136502000Y-98667000D01*
X136513000Y-98699000D01*
X136523000Y-98732000D01*
X136531000Y-98765000D01*
X136537000Y-98798000D01*
X136541000Y-98832000D01*
X136544000Y-98866000D01*
X136545000Y-98900000D01*
X136545000Y-99250000D01*
X136545000Y-99600000D01*
X136544000Y-99634000D01*
X136541000Y-99668000D01*
X136537000Y-99702000D01*
X136531000Y-99735000D01*
X136523000Y-99768000D01*
X136513000Y-99801000D01*
X136502000Y-99833000D01*
X136489000Y-99864000D01*
X136474000Y-99895000D01*
X136458000Y-99925000D01*
X136440000Y-99954000D01*
X136421000Y-99982000D01*
X136400000Y-100009000D01*
X136378000Y-100035000D01*
X136355000Y-100060000D01*
X136330000Y-100083000D01*
X136304000Y-100105000D01*
X136277000Y-100126000D01*
X136249000Y-100145000D01*
X136220000Y-100163000D01*
X136190000Y-100179000D01*
X136159000Y-100194000D01*
X136128000Y-100207000D01*
X136096000Y-100218000D01*
X136063000Y-100228000D01*
X136030000Y-100236000D01*
X135997000Y-100242000D01*
X135963000Y-100246000D01*
X135929000Y-100249000D01*
X135895000Y-100250000D01*
X135861000Y-100249000D01*
X135827000Y-100246000D01*
X135793000Y-100242000D01*
X135760000Y-100236000D01*
X135727000Y-100228000D01*
X135694000Y-100218000D01*
X135662000Y-100207000D01*
X135631000Y-100194000D01*
X135600000Y-100179000D01*
X135570000Y-100163000D01*
X135541000Y-100145000D01*
X135513000Y-100126000D01*
X135486000Y-100105000D01*
X135460000Y-100083000D01*
X135435000Y-100060000D01*
X135412000Y-100035000D01*
X135390000Y-100009000D01*
X135369000Y-99982000D01*
X135350000Y-99954000D01*
X135332000Y-99925000D01*
X135316000Y-99895000D01*
X135301000Y-99864000D01*
X135288000Y-99833000D01*
X135277000Y-99801000D01*
X135267000Y-99768000D01*
X135259000Y-99735000D01*
X135253000Y-99702000D01*
X135249000Y-99668000D01*
X135246000Y-99634000D01*
X135245000Y-99600000D01*
X135245000Y-99250000D01*
X135245000Y-98900000D01*
X135246000Y-98866000D01*
X135249000Y-98832000D01*
X135253000Y-98798000D01*
X135259000Y-98765000D01*
X135267000Y-98732000D01*
X135277000Y-98699000D01*
X135288000Y-98667000D01*
X135301000Y-98636000D01*
X135316000Y-98605000D01*
X135332000Y-98575000D01*
X135350000Y-98546000D01*
X135369000Y-98518000D01*
X135390000Y-98491000D01*
X135412000Y-98465000D01*
X135435000Y-98440000D01*
X135460000Y-98417000D01*
X135486000Y-98395000D01*
X135513000Y-98374000D01*
X135541000Y-98355000D01*
X135570000Y-98337000D01*
X135600000Y-98321000D01*
X135631000Y-98306000D01*
X135662000Y-98293000D01*
X135694000Y-98282000D01*
X135727000Y-98272000D01*
X135760000Y-98264000D01*
X135793000Y-98258000D01*
X135827000Y-98254000D01*
X135861000Y-98251000D01*
X135895000Y-98250000D01*
X135929000Y-98251000D01*
G36*
X135929000Y-98251000D02*
G01*
X135963000Y-98254000D01*
X135997000Y-98258000D01*
X136030000Y-98264000D01*
X136063000Y-98272000D01*
X136096000Y-98282000D01*
X136128000Y-98293000D01*
X136159000Y-98306000D01*
X136190000Y-98321000D01*
X136220000Y-98337000D01*
X136249000Y-98355000D01*
X136277000Y-98374000D01*
X136304000Y-98395000D01*
X136330000Y-98417000D01*
X136355000Y-98440000D01*
X136378000Y-98465000D01*
X136400000Y-98491000D01*
X136421000Y-98518000D01*
X136440000Y-98546000D01*
X136458000Y-98575000D01*
X136474000Y-98605000D01*
X136489000Y-98636000D01*
X136502000Y-98667000D01*
X136513000Y-98699000D01*
X136523000Y-98732000D01*
X136531000Y-98765000D01*
X136537000Y-98798000D01*
X136541000Y-98832000D01*
X136544000Y-98866000D01*
X136545000Y-98900000D01*
X136545000Y-99250000D01*
X136545000Y-99600000D01*
X136544000Y-99634000D01*
X136541000Y-99668000D01*
X136537000Y-99702000D01*
X136531000Y-99735000D01*
X136523000Y-99768000D01*
X136513000Y-99801000D01*
X136502000Y-99833000D01*
X136489000Y-99864000D01*
X136474000Y-99895000D01*
X136458000Y-99925000D01*
X136440000Y-99954000D01*
X136421000Y-99982000D01*
X136400000Y-100009000D01*
X136378000Y-100035000D01*
X136355000Y-100060000D01*
X136330000Y-100083000D01*
X136304000Y-100105000D01*
X136277000Y-100126000D01*
X136249000Y-100145000D01*
X136220000Y-100163000D01*
X136190000Y-100179000D01*
X136159000Y-100194000D01*
X136128000Y-100207000D01*
X136096000Y-100218000D01*
X136063000Y-100228000D01*
X136030000Y-100236000D01*
X135997000Y-100242000D01*
X135963000Y-100246000D01*
X135929000Y-100249000D01*
X135895000Y-100250000D01*
X135861000Y-100249000D01*
X135827000Y-100246000D01*
X135793000Y-100242000D01*
X135760000Y-100236000D01*
X135727000Y-100228000D01*
X135694000Y-100218000D01*
X135662000Y-100207000D01*
X135631000Y-100194000D01*
X135600000Y-100179000D01*
X135570000Y-100163000D01*
X135541000Y-100145000D01*
X135513000Y-100126000D01*
X135486000Y-100105000D01*
X135460000Y-100083000D01*
X135435000Y-100060000D01*
X135412000Y-100035000D01*
X135390000Y-100009000D01*
X135369000Y-99982000D01*
X135350000Y-99954000D01*
X135332000Y-99925000D01*
X135316000Y-99895000D01*
X135301000Y-99864000D01*
X135288000Y-99833000D01*
X135277000Y-99801000D01*
X135267000Y-99768000D01*
X135259000Y-99735000D01*
X135253000Y-99702000D01*
X135249000Y-99668000D01*
X135246000Y-99634000D01*
X135245000Y-99600000D01*
X135245000Y-99250000D01*
X135245000Y-98900000D01*
X135246000Y-98866000D01*
X135249000Y-98832000D01*
X135253000Y-98798000D01*
X135259000Y-98765000D01*
X135267000Y-98732000D01*
X135277000Y-98699000D01*
X135288000Y-98667000D01*
X135301000Y-98636000D01*
X135316000Y-98605000D01*
X135332000Y-98575000D01*
X135350000Y-98546000D01*
X135369000Y-98518000D01*
X135390000Y-98491000D01*
X135412000Y-98465000D01*
X135435000Y-98440000D01*
X135460000Y-98417000D01*
X135486000Y-98395000D01*
X135513000Y-98374000D01*
X135541000Y-98355000D01*
X135570000Y-98337000D01*
X135600000Y-98321000D01*
X135631000Y-98306000D01*
X135662000Y-98293000D01*
X135694000Y-98282000D01*
X135727000Y-98272000D01*
X135760000Y-98264000D01*
X135793000Y-98258000D01*
X135827000Y-98254000D01*
X135861000Y-98251000D01*
X135895000Y-98250000D01*
X135929000Y-98251000D01*
G37*
%TD*%
D19*
%TO.C,C8*%
X138250000Y-100030000D03*
X138250000Y-101930000D03*
%TD*%
D20*
%TO.C,TX*%
X138250000Y-108487501D03*
X138250000Y-106912499D03*
%TD*%
D21*
%TO.C,P2*%
X134250000Y-102150000D03*
X127750000Y-102150000D03*
D22*
X135895000Y-102250000D03*
X126105000Y-102250000D03*
%TD*%
D23*
%TO.C,SW1*%
X152547400Y-123400000D03*
X152547400Y-121100000D03*
D24*
X151247400Y-124349998D03*
X151247400Y-120150002D03*
D25*
X152847399Y-126000000D03*
X152847399Y-118500000D03*
%TD*%
D26*
%TO.C,S2*%
X125880385Y-142802703D03*
X127850000Y-143150000D03*
X129819616Y-143497296D03*
D27*
X123812289Y-142438042D03*
X131887713Y-143861957D03*
%TD*%
D28*
%TO.C,D4*%
X109626657Y-121117337D03*
X110373343Y-116882663D03*
%TD*%
D29*
%TO.C,R12*%
X140000000Y-103775000D03*
X140000000Y-105425000D03*
%TD*%
D30*
%TO.C,J1*%
X120354182Y-102362500D03*
D31*
X118154475Y-103632502D03*
%TD*%
D20*
%TO.C,DCOK*%
X141800000Y-108500000D03*
X141800000Y-106924998D03*
%TD*%
%TO.C,RX*%
X140000000Y-108487501D03*
X140000000Y-106912499D03*
%TD*%
D32*
%TO.C,J2*%
X145257790Y-104348386D03*
D33*
X146714674Y-106429034D03*
X148171558Y-108509678D03*
X149628442Y-110590325D03*
X151085327Y-112670971D03*
X152542211Y-114751617D03*
%TD*%
D34*
%TO.C,D3*%
X122068005Y-106643750D03*
X123431995Y-105856250D03*
%TD*%
%TO.C,D1*%
X121068005Y-105143750D03*
X122431995Y-104356250D03*
%TD*%
D35*
%TO.C,J5*%
X112000000Y-110500000D03*
D36*
X111826352Y-111484808D03*
X111652704Y-112469615D03*
X111479054Y-113454423D03*
%TD*%
D29*
%TO.C,R10*%
X138260000Y-103775000D03*
X138260000Y-105425000D03*
%TD*%
%TO.C,R8*%
X141750000Y-103775000D03*
X141750000Y-105425000D03*
%TD*%
D37*
%TO.C,MK1*%
X148440969Y-133339237D03*
D38*
X149054686Y-131010428D03*
%TD*%
D35*
%TO.C,J6*%
X109500000Y-125250000D03*
D36*
X109326352Y-126234808D03*
X109152704Y-127219615D03*
%TD*%
D39*
%TO.C,C7*%
X140300000Y-100475000D03*
X140300000Y-102025000D03*
%TD*%
%LPD*%
M02*
