%TF.GenerationSoftware,KiCad,Pcbnew,9.0.0*%
%TF.CreationDate,2025-05-02T17:15:01+02:00*%
%TF.ProjectId,009_RGB Sound Control Light Bar Redesign_fraseross,3030395f-5247-4422-9053-6f756e642043,rev?*%
%TF.SameCoordinates,Original*%
%TF.FileFunction,Legend,Bot*%
%TF.FilePolarity,Positive*%
%FSLAX46Y46*%
G04 Gerber Fmt 4.6, Leading zero omitted, Abs format (unit mm)*
G04 Created by KiCad (PCBNEW 9.0.0) date 2025-05-02 17:15:01*
%MOMM*%
%LPD*%
G01*
G04 APERTURE LIST*
G04 Aperture macros list*
%AMRoundRect*
0 Rectangle with rounded corners*
0 $1 Rounding radius*
0 $2 $3 $4 $5 $6 $7 $8 $9 X,Y pos of 4 corners*
0 Add a 4 corners polygon primitive as box body*
4,1,4,$2,$3,$4,$5,$6,$7,$8,$9,$2,$3,0*
0 Add four circle primitives for the rounded corners*
1,1,$1+$1,$2,$3*
1,1,$1+$1,$4,$5*
1,1,$1+$1,$6,$7*
1,1,$1+$1,$8,$9*
0 Add four rect primitives between the rounded corners*
20,1,$1+$1,$2,$3,$4,$5,0*
20,1,$1+$1,$4,$5,$6,$7,0*
20,1,$1+$1,$6,$7,$8,$9,0*
20,1,$1+$1,$8,$9,$2,$3,0*%
%AMHorizOval*
0 Thick line with rounded ends*
0 $1 width*
0 $2 $3 position (X,Y) of the first rounded end (center of the circle)*
0 $4 $5 position (X,Y) of the second rounded end (center of the circle)*
0 Add line between two ends*
20,1,$1,$2,$3,$4,$5,0*
0 Add two circle primitives to create the rounded ends*
1,1,$1,$2,$3*
1,1,$1,$4,$5*%
%AMRotRect*
0 Rectangle, with rotation*
0 The origin of the aperture is its center*
0 $1 length*
0 $2 width*
0 $3 Rotation angle, in degrees counterclockwise*
0 Add horizontal line*
21,1,$1,$2,0,0,$3*%
%AMFreePoly0*
4,1,23,0.500000,-0.750000,0.000000,-0.750000,0.000000,-0.745722,-0.065263,-0.745722,-0.191342,-0.711940,-0.304381,-0.646677,-0.396677,-0.554381,-0.461940,-0.441342,-0.495722,-0.315263,-0.495722,-0.250000,-0.500000,-0.250000,-0.500000,0.250000,-0.495722,0.250000,-0.495722,0.315263,-0.461940,0.441342,-0.396677,0.554381,-0.304381,0.646677,-0.191342,0.711940,-0.065263,0.745722,0.000000,0.745722,
0.000000,0.750000,0.500000,0.750000,0.500000,-0.750000,0.500000,-0.750000,$1*%
%AMFreePoly1*
4,1,23,0.000000,0.745722,0.065263,0.745722,0.191342,0.711940,0.304381,0.646677,0.396677,0.554381,0.461940,0.441342,0.495722,0.315263,0.495722,0.250000,0.500000,0.250000,0.500000,-0.250000,0.495722,-0.250000,0.495722,-0.315263,0.461940,-0.441342,0.396677,-0.554381,0.304381,-0.646677,0.191342,-0.711940,0.065263,-0.745722,0.000000,-0.745722,0.000000,-0.750000,-0.500000,-0.750000,
-0.500000,0.750000,0.000000,0.750000,0.000000,0.745722,0.000000,0.745722,$1*%
%AMFreePoly2*
4,1,11,0.760000,0.825000,0.380000,0.510000,0.380000,-0.510000,0.760000,-0.825000,0.760000,-1.525000,-0.125000,-1.525000,-0.380000,-1.270000,-0.380000,1.270000,-0.125000,1.525000,0.760000,1.525000,0.760000,0.825000,0.760000,0.825000,$1*%
G04 Aperture macros list end*
%ADD10C,0.150000*%
%ADD11C,0.120000*%
%ADD12C,0.152400*%
%ADD13C,0.000000*%
%ADD14C,0.010000*%
%ADD15C,1.020000*%
%ADD16O,1.100000X1.800000*%
%ADD17C,0.889000*%
%ADD18C,1.498600*%
%ADD19C,1.300000*%
%ADD20C,1.875000*%
%ADD21RotRect,1.700000X1.700000X300.000000*%
%ADD22HorizOval,1.700000X0.000000X0.000000X0.000000X0.000000X0*%
%ADD23RotRect,1.700000X1.700000X35.000000*%
%ADD24HorizOval,1.700000X0.000000X0.000000X0.000000X0.000000X0*%
%ADD25RotRect,0.850000X0.850000X350.000000*%
%ADD26HorizOval,0.850000X0.000000X0.000000X0.000000X0.000000X0*%
%ADD27RoundRect,0.225000X-0.225000X-0.250000X0.225000X-0.250000X0.225000X0.250000X-0.225000X0.250000X0*%
%ADD28FreePoly0,270.000000*%
%ADD29FreePoly1,270.000000*%
%ADD30RoundRect,0.225000X-0.250000X0.225000X-0.250000X-0.225000X0.250000X-0.225000X0.250000X0.225000X0*%
%ADD31RoundRect,0.225000X0.183247X-0.282038X0.299716X0.152629X-0.183247X0.282038X-0.299716X-0.152629X0*%
%ADD32R,0.400000X1.200000*%
%ADD33RoundRect,0.225000X0.225000X0.250000X-0.225000X0.250000X-0.225000X-0.250000X0.225000X-0.250000X0*%
%ADD34RoundRect,0.200000X0.053033X-0.335876X0.335876X-0.053033X-0.053033X0.335876X-0.335876X0.053033X0*%
%ADD35RoundRect,0.225000X0.250000X-0.225000X0.250000X0.225000X-0.250000X0.225000X-0.250000X-0.225000X0*%
%ADD36RoundRect,0.225000X0.017678X-0.335876X0.335876X-0.017678X-0.017678X0.335876X-0.335876X0.017678X0*%
%ADD37RoundRect,0.175000X-0.325000X0.175000X-0.325000X-0.175000X0.325000X-0.175000X0.325000X0.175000X0*%
%ADD38RoundRect,0.150000X-0.150000X0.200000X-0.150000X-0.200000X0.150000X-0.200000X0.150000X0.200000X0*%
%ADD39RoundRect,0.200000X-0.275000X0.200000X-0.275000X-0.200000X0.275000X-0.200000X0.275000X0.200000X0*%
%ADD40RoundRect,0.200000X0.275000X-0.200000X0.275000X0.200000X-0.275000X0.200000X-0.275000X-0.200000X0*%
%ADD41RoundRect,0.200000X-0.213866X0.264360X-0.317393X-0.122010X0.213866X-0.264360X0.317393X0.122010X0*%
%ADD42RoundRect,0.250000X-0.475000X0.250000X-0.475000X-0.250000X0.475000X-0.250000X0.475000X0.250000X0*%
%ADD43RotRect,2.000000X0.500000X45.000000*%
%ADD44RoundRect,0.225000X-0.335876X-0.017678X-0.017678X-0.335876X0.335876X0.017678X0.017678X0.335876X0*%
%ADD45RoundRect,0.100000X0.068405X0.641660X-0.261590X-0.589896X-0.068405X-0.641660X0.261590X0.589896X0*%
%ADD46RoundRect,0.200000X0.200000X0.275000X-0.200000X0.275000X-0.200000X-0.275000X0.200000X-0.275000X0*%
%ADD47RoundRect,0.250000X-0.159099X0.512652X-0.512652X0.159099X0.159099X-0.512652X0.512652X-0.159099X0*%
%ADD48RoundRect,0.200000X-0.200000X-0.275000X0.200000X-0.275000X0.200000X0.275000X-0.200000X0.275000X0*%
%ADD49RoundRect,0.250000X0.002332X0.520961X-0.452332X0.258461X-0.002332X-0.520961X0.452332X-0.258461X0*%
%ADD50RoundRect,0.200000X0.335876X0.053033X0.053033X0.335876X-0.335876X-0.053033X-0.053033X-0.335876X0*%
%ADD51RoundRect,0.218750X-0.218750X-0.381250X0.218750X-0.381250X0.218750X0.381250X-0.218750X0.381250X0*%
%ADD52RoundRect,0.150000X0.368838X0.386154X-0.518838X-0.126346X-0.368838X-0.386154X0.518838X0.126346X0*%
%ADD53R,2.600000X1.400000*%
%ADD54RotRect,1.400000X1.200000X45.000000*%
%ADD55RoundRect,0.225000X-0.017678X0.335876X-0.335876X0.017678X0.017678X-0.335876X0.335876X-0.017678X0*%
%ADD56FreePoly2,170.000000*%
%ADD57FreePoly2,350.000000*%
%ADD58RoundRect,0.218750X-0.026517X0.335876X-0.335876X0.026517X0.026517X-0.335876X0.335876X-0.026517X0*%
%ADD59RoundRect,0.225000X-0.069856X-0.329006X0.319856X-0.104006X0.069856X0.329006X-0.319856X0.104006X0*%
%ADD60RoundRect,0.150000X-0.368838X-0.386154X0.518838X0.126346X0.368838X0.386154X-0.518838X-0.126346X0*%
%ADD61RoundRect,0.150000X0.150000X-0.512500X0.150000X0.512500X-0.150000X0.512500X-0.150000X-0.512500X0*%
%ADD62RotRect,0.507200X1.416799X225.000000*%
%ADD63RotRect,0.507200X1.416799X315.000000*%
%ADD64RoundRect,0.250000X-0.250000X-0.475000X0.250000X-0.475000X0.250000X0.475000X-0.250000X0.475000X0*%
%ADD65RoundRect,0.200000X-0.335876X-0.053033X-0.053033X-0.335876X0.335876X0.053033X0.053033X0.335876X0*%
%ADD66RoundRect,0.150000X-0.150000X0.825000X-0.150000X-0.825000X0.150000X-0.825000X0.150000X0.825000X0*%
%ADD67R,3.300000X2.410000*%
G04 APERTURE END LIST*
D10*
X137433332Y-136957200D02*
X137290475Y-137004819D01*
X137290475Y-137004819D02*
X137052380Y-137004819D01*
X137052380Y-137004819D02*
X136957142Y-136957200D01*
X136957142Y-136957200D02*
X136909523Y-136909580D01*
X136909523Y-136909580D02*
X136861904Y-136814342D01*
X136861904Y-136814342D02*
X136861904Y-136719104D01*
X136861904Y-136719104D02*
X136909523Y-136623866D01*
X136909523Y-136623866D02*
X136957142Y-136576247D01*
X136957142Y-136576247D02*
X137052380Y-136528628D01*
X137052380Y-136528628D02*
X137242856Y-136481009D01*
X137242856Y-136481009D02*
X137338094Y-136433390D01*
X137338094Y-136433390D02*
X137385713Y-136385771D01*
X137385713Y-136385771D02*
X137433332Y-136290533D01*
X137433332Y-136290533D02*
X137433332Y-136195295D01*
X137433332Y-136195295D02*
X137385713Y-136100057D01*
X137385713Y-136100057D02*
X137338094Y-136052438D01*
X137338094Y-136052438D02*
X137242856Y-136004819D01*
X137242856Y-136004819D02*
X137004761Y-136004819D01*
X137004761Y-136004819D02*
X136861904Y-136052438D01*
X136528570Y-136004819D02*
X136290475Y-137004819D01*
X136290475Y-137004819D02*
X136099999Y-136290533D01*
X136099999Y-136290533D02*
X135909523Y-137004819D01*
X135909523Y-137004819D02*
X135671428Y-136004819D01*
X135338094Y-136100057D02*
X135290475Y-136052438D01*
X135290475Y-136052438D02*
X135195237Y-136004819D01*
X135195237Y-136004819D02*
X134957142Y-136004819D01*
X134957142Y-136004819D02*
X134861904Y-136052438D01*
X134861904Y-136052438D02*
X134814285Y-136100057D01*
X134814285Y-136100057D02*
X134766666Y-136195295D01*
X134766666Y-136195295D02*
X134766666Y-136290533D01*
X134766666Y-136290533D02*
X134814285Y-136433390D01*
X134814285Y-136433390D02*
X135385713Y-137004819D01*
X135385713Y-137004819D02*
X134766666Y-137004819D01*
X130667037Y-122552338D02*
X130835395Y-122383979D01*
X130599693Y-122282964D02*
X130835395Y-122383979D01*
X130835395Y-122383979D02*
X130936411Y-122619681D01*
X130869067Y-122148277D02*
X130835395Y-122383979D01*
X130835395Y-122383979D02*
X131071098Y-122350307D01*
X131438038Y-121781335D02*
X131269680Y-121949694D01*
X131505382Y-122050709D02*
X131269680Y-121949694D01*
X131269680Y-121949694D02*
X131168664Y-121713992D01*
X131236008Y-122185396D02*
X131269680Y-121949694D01*
X131269680Y-121949694D02*
X131033977Y-121983366D01*
D11*
%TO.C,C13*%
X125409419Y-108990001D02*
X125690581Y-108990000D01*
X125409419Y-110010000D02*
X125690581Y-110009999D01*
%TO.C,C12*%
X138609420Y-99540000D02*
X138890580Y-99540000D01*
X138609420Y-100560000D02*
X138890580Y-100560000D01*
%TO.C,JP2*%
X122000000Y-104550000D02*
X122000000Y-105950000D01*
X122700000Y-106650000D02*
X123300000Y-106650000D01*
X123300000Y-103850000D02*
X122700000Y-103850000D01*
X124000000Y-105950000D02*
X124000000Y-104550000D01*
X122000000Y-104550000D02*
G75*
G02*
X122700000Y-103850000I699999J1D01*
G01*
X122700000Y-106650000D02*
G75*
G02*
X122000000Y-105950000I0J700000D01*
G01*
X123300000Y-103850000D02*
G75*
G02*
X124000000Y-104550000I1J-699999D01*
G01*
X124000000Y-105950000D02*
G75*
G02*
X123300000Y-106650000I-700000J0D01*
G01*
%TO.C,C18*%
X127590000Y-117409419D02*
X127590001Y-117690581D01*
X128609999Y-117409419D02*
X128610000Y-117690581D01*
%TO.C,C21*%
X150240772Y-133956747D02*
X150313541Y-133685165D01*
X151226015Y-134220743D02*
X151298784Y-133949161D01*
D10*
%TO.C,U1*%
X137300000Y-106750000D02*
X137300000Y-102750000D01*
X142700000Y-106750000D02*
X142700000Y-102750000D01*
D11*
X143030000Y-107340000D02*
X142700000Y-107100000D01*
X143030000Y-106860000D01*
X143030000Y-107340000D01*
G36*
X143030000Y-107340000D02*
G01*
X142700000Y-107100000D01*
X143030000Y-106860000D01*
X143030000Y-107340000D01*
G37*
%TO.C,C1*%
X125640581Y-131590000D02*
X125359419Y-131590001D01*
X125640581Y-132609999D02*
X125359419Y-132610000D01*
%TO.C,R2*%
X131879407Y-129481666D02*
X132214940Y-129146133D01*
X132618334Y-130220593D02*
X132953867Y-129885060D01*
%TO.C,C11*%
X131740000Y-99640580D02*
X131740000Y-99359420D01*
X132760000Y-99640580D02*
X132760000Y-99359420D01*
%TO.C,C2*%
X142089970Y-127338782D02*
X142288781Y-127139970D01*
X142811219Y-128060030D02*
X143010030Y-127861218D01*
%TO.C,D2*%
X128440000Y-105150000D02*
X128440000Y-103880000D01*
X131560000Y-103850000D02*
X131560000Y-105150000D01*
X128490000Y-103500000D02*
X128160000Y-103740000D01*
X128160000Y-103260000D01*
X128490000Y-103500000D01*
G36*
X128490000Y-103500000D02*
G01*
X128160000Y-103740000D01*
X128160000Y-103260000D01*
X128490000Y-103500000D01*
G37*
%TO.C,R26*%
X146727500Y-127162742D02*
X146727500Y-127637258D01*
X147772500Y-127162742D02*
X147772500Y-127637258D01*
%TO.C,R9*%
X127727500Y-99737258D02*
X127727500Y-99262742D01*
X128772500Y-99737258D02*
X128772500Y-99262742D01*
%TO.C,R24*%
X143306711Y-129885593D02*
X143183897Y-130343941D01*
X144316103Y-130156059D02*
X144193289Y-130614407D01*
%TO.C,C10*%
X129740000Y-99640580D02*
X129740000Y-99359420D01*
X130760000Y-99640580D02*
X130760000Y-99359420D01*
%TO.C,C17*%
X117515001Y-117788749D02*
X117515000Y-118311252D01*
X118985000Y-117788748D02*
X118984999Y-118311251D01*
%TO.C,R3*%
X133129407Y-130731666D02*
X133464940Y-130396133D01*
X133868334Y-131470593D02*
X134203867Y-131135060D01*
%TO.C,J4*%
X141534207Y-115845406D02*
X143245405Y-114134208D01*
X141569562Y-115880760D02*
X141534207Y-115845406D01*
X143280760Y-114169563D02*
X143245405Y-114134208D01*
X144143431Y-120406245D02*
X145119240Y-119430437D01*
X145154595Y-119465792D02*
X145119240Y-119430437D01*
X145154595Y-119465792D02*
X146865793Y-117754594D01*
X146865793Y-117754594D02*
X146830438Y-117719240D01*
%TO.C,C4*%
X136839970Y-113861218D02*
X137038782Y-114060030D01*
X137561218Y-113139970D02*
X137760030Y-113338782D01*
%TO.C,U6*%
X144478934Y-132824482D02*
X143909532Y-134949519D01*
X144478934Y-132824482D02*
X145048336Y-130699445D01*
X149521066Y-134175518D02*
X148951664Y-136300555D01*
X149521066Y-134175518D02*
X150090468Y-132050481D01*
X145422694Y-130075061D02*
X145041822Y-130221473D01*
X145166055Y-129757829D01*
X145422694Y-130075061D01*
G36*
X145422694Y-130075061D02*
G01*
X145041822Y-130221473D01*
X145166055Y-129757829D01*
X145422694Y-130075061D01*
G37*
%TO.C,R23*%
X151987258Y-127727500D02*
X151512742Y-127727500D01*
X151987258Y-128772500D02*
X151512742Y-128772500D01*
%TO.C,C23*%
X140640581Y-108490000D02*
X140359419Y-108490001D01*
X140640581Y-109509999D02*
X140359419Y-109510000D01*
%TO.C,R1*%
X129237258Y-131577500D02*
X128762742Y-131577500D01*
X129237258Y-132622500D02*
X128762742Y-132622500D01*
%TO.C,R7*%
X137627500Y-110387742D02*
X137627500Y-110862258D01*
X138672500Y-110387742D02*
X138672500Y-110862258D01*
%TO.C,C22*%
X130715008Y-117895546D02*
X130345544Y-118265010D01*
X131754456Y-118934990D02*
X131384992Y-119304454D01*
%TO.C,R18*%
X116862742Y-113577500D02*
X117337257Y-113577500D01*
X116862743Y-114622500D02*
X117337258Y-114622500D01*
%TO.C,R17*%
X118079143Y-105249939D02*
X117685857Y-105477003D01*
X118814143Y-106522997D02*
X118420857Y-106750061D01*
%TO.C,R5*%
X144298303Y-109437230D02*
X143962770Y-109101697D01*
X145037230Y-108698303D02*
X144701697Y-108362770D01*
%TO.C,R20*%
X118927500Y-122612742D02*
X118927500Y-123087258D01*
X119972500Y-122612742D02*
X119972500Y-123087258D01*
%TO.C,R15*%
X148227500Y-124237258D02*
X148227500Y-123762742D01*
X149272500Y-124237258D02*
X149272500Y-123762742D01*
%TO.C,FB2*%
X125850378Y-103940000D02*
X126649622Y-103940000D01*
X125850378Y-105060000D02*
X126649622Y-105060000D01*
%TO.C,Q1*%
X115470000Y-109399000D02*
X114777180Y-109799000D01*
X115470000Y-109399000D02*
X116162820Y-108999000D01*
X117030000Y-112101000D02*
X116337180Y-112501000D01*
X117030000Y-112101000D02*
X117722820Y-111701000D01*
X116620833Y-108792302D02*
X116247987Y-108626513D01*
X116663679Y-108386513D01*
X116620833Y-108792302D01*
G36*
X116620833Y-108792302D02*
G01*
X116247987Y-108626513D01*
X116663679Y-108386513D01*
X116620833Y-108792302D01*
G37*
%TO.C,C16*%
X113359419Y-120490001D02*
X113640581Y-120490000D01*
X113359419Y-121510000D02*
X113640581Y-121509999D01*
%TO.C,SW2*%
X125800001Y-133300002D02*
X130200000Y-133300000D01*
X130199999Y-139899998D02*
X125800000Y-139900000D01*
%TO.C,Y1*%
X132469060Y-115847488D02*
X135297488Y-113019060D01*
X134802512Y-118180940D02*
X132469060Y-115847488D01*
%TO.C,C5*%
X132788782Y-113389970D02*
X132589970Y-113588782D01*
X133510030Y-114111218D02*
X133311218Y-114310030D01*
%TO.C,L1*%
X112403048Y-118454922D02*
X109497867Y-117942658D01*
X113002133Y-115057342D02*
X110096952Y-114545078D01*
%TO.C,FB3*%
X144747631Y-124681122D02*
X144517427Y-124911326D01*
X145468879Y-125402370D02*
X145238675Y-125632574D01*
%TO.C,C14*%
X118623254Y-107378617D02*
X118866746Y-107238037D01*
X119133254Y-108261963D02*
X119376746Y-108121383D01*
%TO.C,R21*%
X120427500Y-109987258D02*
X120427500Y-109512742D01*
X121472500Y-109987258D02*
X121472500Y-109512742D01*
%TO.C,C9*%
X126340581Y-105590000D02*
X126059419Y-105590001D01*
X126340581Y-106609999D02*
X126059419Y-106610000D01*
%TO.C,R25*%
X142306711Y-133135593D02*
X142183897Y-133593941D01*
X143316103Y-133406059D02*
X143193289Y-133864407D01*
%TO.C,U4*%
X113720000Y-106149000D02*
X113027180Y-106549000D01*
X113720000Y-106149000D02*
X114412820Y-105749000D01*
X115280000Y-108851000D02*
X114587180Y-109251000D01*
X115280000Y-108851000D02*
X115972820Y-108451000D01*
X114502013Y-109623487D02*
X114086321Y-109863487D01*
X114129167Y-109457698D01*
X114502013Y-109623487D01*
G36*
X114502013Y-109623487D02*
G01*
X114086321Y-109863487D01*
X114129167Y-109457698D01*
X114502013Y-109623487D01*
G37*
%TO.C,R22*%
X122177500Y-109987258D02*
X122177500Y-109512742D01*
X123222500Y-109987258D02*
X123222500Y-109512742D01*
%TO.C,R16*%
X120177500Y-113462742D02*
X120177501Y-113937258D01*
X121222499Y-113462742D02*
X121222500Y-113937258D01*
%TO.C,C19*%
X132089970Y-119588782D02*
X132288781Y-119389970D01*
X132811219Y-120310030D02*
X133010030Y-120111218D01*
%TO.C,U5*%
X113690000Y-118000000D02*
X113690000Y-117200000D01*
X113690000Y-118000000D02*
X113690000Y-118800000D01*
X116810000Y-118000000D02*
X116810000Y-117200000D01*
X116810000Y-118000000D02*
X116810000Y-118800000D01*
X117090000Y-119540000D02*
X116759994Y-119300006D01*
X117090002Y-119059999D01*
X117090000Y-119540000D01*
G36*
X117090000Y-119540000D02*
G01*
X116759994Y-119300006D01*
X117090002Y-119059999D01*
X117090000Y-119540000D01*
G37*
D12*
%TO.C,U2*%
X132341451Y-123600000D02*
X132551222Y-123390229D01*
X132551222Y-123809771D02*
X132341451Y-123600000D01*
X137340229Y-118601222D02*
X137550000Y-118391451D01*
X137550000Y-118391451D02*
X137759771Y-118601222D01*
X137550000Y-128808549D02*
X137340229Y-128598778D01*
X137759771Y-128598778D02*
X137550000Y-128808549D01*
X142548778Y-123390229D02*
X142758549Y-123600000D01*
X142758549Y-123600000D02*
X142548778Y-123809771D01*
D13*
G36*
X133140271Y-126582081D02*
G01*
X132960666Y-126761686D01*
X132691258Y-126492278D01*
X132870863Y-126312673D01*
X133140271Y-126582081D01*
G37*
G36*
X140146000Y-118444979D02*
G01*
X139966395Y-118624585D01*
X139696987Y-118355177D01*
X139876592Y-118175572D01*
X140146000Y-118444979D01*
G37*
G36*
X141843056Y-127057964D02*
G01*
X141573648Y-127327372D01*
X141394043Y-127147767D01*
X141663451Y-126878359D01*
X141843056Y-127057964D01*
G37*
D11*
%TO.C,C15*%
X113238748Y-122225000D02*
X113761252Y-122225000D01*
X113238748Y-123695000D02*
X113761252Y-123695000D01*
%TO.C,R6*%
X148312770Y-115151697D02*
X148648303Y-115487230D01*
X149051697Y-114412770D02*
X149387230Y-114748303D01*
%TO.C,U3*%
X121889999Y-115925001D02*
X121889999Y-113975000D01*
X121889999Y-115925001D02*
X121890000Y-117875001D01*
X127009999Y-115925001D02*
X127009998Y-113975001D01*
X127009999Y-115925001D02*
X127009999Y-117875002D01*
X121984999Y-113225001D02*
X121654999Y-113465002D01*
X121655000Y-112985001D01*
X121984999Y-113225001D01*
G36*
X121984999Y-113225001D02*
G01*
X121654999Y-113465002D01*
X121655000Y-112985001D01*
X121984999Y-113225001D01*
G37*
%TO.C,R11*%
X133727500Y-99737258D02*
X133727500Y-99262742D01*
X134772500Y-99737258D02*
X134772500Y-99262742D01*
%TO.C,R14*%
X132227500Y-104737258D02*
X132227500Y-104262742D01*
X133272500Y-104737258D02*
X133272500Y-104262742D01*
%TO.C,R13*%
X133977500Y-104262742D02*
X133977500Y-104737258D01*
X135022500Y-104262742D02*
X135022500Y-104737258D01*
%TO.C,C20*%
X148490000Y-127640580D02*
X148490000Y-127359420D01*
X149510000Y-127640580D02*
X149510000Y-127359420D01*
%TO.C,R19*%
X117077500Y-123087258D02*
X117077500Y-122612742D01*
X118122500Y-123087258D02*
X118122500Y-122612742D01*
%TO.C,R4*%
X145962770Y-112051697D02*
X146298303Y-112387230D01*
X146701697Y-111312770D02*
X147037230Y-111648303D01*
%TO.C,C6*%
X125359419Y-110690001D02*
X125640581Y-110690000D01*
X125359419Y-111710000D02*
X125640581Y-111709999D01*
%TD*%
%LPC*%
D14*
%TO.C,P2*%
X126139000Y-98251000D02*
X126173000Y-98254000D01*
X126207000Y-98258000D01*
X126240000Y-98264000D01*
X126273000Y-98272000D01*
X126306000Y-98282000D01*
X126338000Y-98293000D01*
X126369000Y-98306000D01*
X126400000Y-98321000D01*
X126430000Y-98337000D01*
X126459000Y-98355000D01*
X126487000Y-98374000D01*
X126514000Y-98395000D01*
X126540000Y-98417000D01*
X126565000Y-98440000D01*
X126588000Y-98465000D01*
X126610000Y-98491000D01*
X126631000Y-98518000D01*
X126650000Y-98546000D01*
X126668000Y-98575000D01*
X126684000Y-98605000D01*
X126699000Y-98636000D01*
X126712000Y-98667000D01*
X126723000Y-98699000D01*
X126733000Y-98732000D01*
X126741000Y-98765000D01*
X126747000Y-98798000D01*
X126751000Y-98832000D01*
X126754000Y-98866000D01*
X126755000Y-98900000D01*
X126755000Y-99250000D01*
X126755000Y-99600000D01*
X126754000Y-99634000D01*
X126751000Y-99668000D01*
X126747000Y-99702000D01*
X126741000Y-99735000D01*
X126733000Y-99768000D01*
X126723000Y-99801000D01*
X126712000Y-99833000D01*
X126699000Y-99864000D01*
X126684000Y-99895000D01*
X126668000Y-99925000D01*
X126650000Y-99954000D01*
X126631000Y-99982000D01*
X126610000Y-100009000D01*
X126588000Y-100035000D01*
X126565000Y-100060000D01*
X126540000Y-100083000D01*
X126514000Y-100105000D01*
X126487000Y-100126000D01*
X126459000Y-100145000D01*
X126430000Y-100163000D01*
X126400000Y-100179000D01*
X126369000Y-100194000D01*
X126338000Y-100207000D01*
X126306000Y-100218000D01*
X126273000Y-100228000D01*
X126240000Y-100236000D01*
X126207000Y-100242000D01*
X126173000Y-100246000D01*
X126139000Y-100249000D01*
X126105000Y-100250000D01*
X126071000Y-100249000D01*
X126037000Y-100246000D01*
X126003000Y-100242000D01*
X125970000Y-100236000D01*
X125937000Y-100228000D01*
X125904000Y-100218000D01*
X125872000Y-100207000D01*
X125841000Y-100194000D01*
X125810000Y-100179000D01*
X125780000Y-100163000D01*
X125751000Y-100145000D01*
X125723000Y-100126000D01*
X125696000Y-100105000D01*
X125670000Y-100083000D01*
X125645000Y-100060000D01*
X125622000Y-100035000D01*
X125600000Y-100009000D01*
X125579000Y-99982000D01*
X125560000Y-99954000D01*
X125542000Y-99925000D01*
X125526000Y-99895000D01*
X125511000Y-99864000D01*
X125498000Y-99833000D01*
X125487000Y-99801000D01*
X125477000Y-99768000D01*
X125469000Y-99735000D01*
X125463000Y-99702000D01*
X125459000Y-99668000D01*
X125456000Y-99634000D01*
X125455000Y-99600000D01*
X125455000Y-99250000D01*
X125455000Y-98900000D01*
X125456000Y-98866000D01*
X125459000Y-98832000D01*
X125463000Y-98798000D01*
X125469000Y-98765000D01*
X125477000Y-98732000D01*
X125487000Y-98699000D01*
X125498000Y-98667000D01*
X125511000Y-98636000D01*
X125526000Y-98605000D01*
X125542000Y-98575000D01*
X125560000Y-98546000D01*
X125579000Y-98518000D01*
X125600000Y-98491000D01*
X125622000Y-98465000D01*
X125645000Y-98440000D01*
X125670000Y-98417000D01*
X125696000Y-98395000D01*
X125723000Y-98374000D01*
X125751000Y-98355000D01*
X125780000Y-98337000D01*
X125810000Y-98321000D01*
X125841000Y-98306000D01*
X125872000Y-98293000D01*
X125904000Y-98282000D01*
X125937000Y-98272000D01*
X125970000Y-98264000D01*
X126003000Y-98258000D01*
X126037000Y-98254000D01*
X126071000Y-98251000D01*
X126105000Y-98250000D01*
X126139000Y-98251000D01*
G36*
X126139000Y-98251000D02*
G01*
X126173000Y-98254000D01*
X126207000Y-98258000D01*
X126240000Y-98264000D01*
X126273000Y-98272000D01*
X126306000Y-98282000D01*
X126338000Y-98293000D01*
X126369000Y-98306000D01*
X126400000Y-98321000D01*
X126430000Y-98337000D01*
X126459000Y-98355000D01*
X126487000Y-98374000D01*
X126514000Y-98395000D01*
X126540000Y-98417000D01*
X126565000Y-98440000D01*
X126588000Y-98465000D01*
X126610000Y-98491000D01*
X126631000Y-98518000D01*
X126650000Y-98546000D01*
X126668000Y-98575000D01*
X126684000Y-98605000D01*
X126699000Y-98636000D01*
X126712000Y-98667000D01*
X126723000Y-98699000D01*
X126733000Y-98732000D01*
X126741000Y-98765000D01*
X126747000Y-98798000D01*
X126751000Y-98832000D01*
X126754000Y-98866000D01*
X126755000Y-98900000D01*
X126755000Y-99250000D01*
X126755000Y-99600000D01*
X126754000Y-99634000D01*
X126751000Y-99668000D01*
X126747000Y-99702000D01*
X126741000Y-99735000D01*
X126733000Y-99768000D01*
X126723000Y-99801000D01*
X126712000Y-99833000D01*
X126699000Y-99864000D01*
X126684000Y-99895000D01*
X126668000Y-99925000D01*
X126650000Y-99954000D01*
X126631000Y-99982000D01*
X126610000Y-100009000D01*
X126588000Y-100035000D01*
X126565000Y-100060000D01*
X126540000Y-100083000D01*
X126514000Y-100105000D01*
X126487000Y-100126000D01*
X126459000Y-100145000D01*
X126430000Y-100163000D01*
X126400000Y-100179000D01*
X126369000Y-100194000D01*
X126338000Y-100207000D01*
X126306000Y-100218000D01*
X126273000Y-100228000D01*
X126240000Y-100236000D01*
X126207000Y-100242000D01*
X126173000Y-100246000D01*
X126139000Y-100249000D01*
X126105000Y-100250000D01*
X126071000Y-100249000D01*
X126037000Y-100246000D01*
X126003000Y-100242000D01*
X125970000Y-100236000D01*
X125937000Y-100228000D01*
X125904000Y-100218000D01*
X125872000Y-100207000D01*
X125841000Y-100194000D01*
X125810000Y-100179000D01*
X125780000Y-100163000D01*
X125751000Y-100145000D01*
X125723000Y-100126000D01*
X125696000Y-100105000D01*
X125670000Y-100083000D01*
X125645000Y-100060000D01*
X125622000Y-100035000D01*
X125600000Y-100009000D01*
X125579000Y-99982000D01*
X125560000Y-99954000D01*
X125542000Y-99925000D01*
X125526000Y-99895000D01*
X125511000Y-99864000D01*
X125498000Y-99833000D01*
X125487000Y-99801000D01*
X125477000Y-99768000D01*
X125469000Y-99735000D01*
X125463000Y-99702000D01*
X125459000Y-99668000D01*
X125456000Y-99634000D01*
X125455000Y-99600000D01*
X125455000Y-99250000D01*
X125455000Y-98900000D01*
X125456000Y-98866000D01*
X125459000Y-98832000D01*
X125463000Y-98798000D01*
X125469000Y-98765000D01*
X125477000Y-98732000D01*
X125487000Y-98699000D01*
X125498000Y-98667000D01*
X125511000Y-98636000D01*
X125526000Y-98605000D01*
X125542000Y-98575000D01*
X125560000Y-98546000D01*
X125579000Y-98518000D01*
X125600000Y-98491000D01*
X125622000Y-98465000D01*
X125645000Y-98440000D01*
X125670000Y-98417000D01*
X125696000Y-98395000D01*
X125723000Y-98374000D01*
X125751000Y-98355000D01*
X125780000Y-98337000D01*
X125810000Y-98321000D01*
X125841000Y-98306000D01*
X125872000Y-98293000D01*
X125904000Y-98282000D01*
X125937000Y-98272000D01*
X125970000Y-98264000D01*
X126003000Y-98258000D01*
X126037000Y-98254000D01*
X126071000Y-98251000D01*
X126105000Y-98250000D01*
X126139000Y-98251000D01*
G37*
X135929000Y-98251000D02*
X135963000Y-98254000D01*
X135997000Y-98258000D01*
X136030000Y-98264000D01*
X136063000Y-98272000D01*
X136096000Y-98282000D01*
X136128000Y-98293000D01*
X136159000Y-98306000D01*
X136190000Y-98321000D01*
X136220000Y-98337000D01*
X136249000Y-98355000D01*
X136277000Y-98374000D01*
X136304000Y-98395000D01*
X136330000Y-98417000D01*
X136355000Y-98440000D01*
X136378000Y-98465000D01*
X136400000Y-98491000D01*
X136421000Y-98518000D01*
X136440000Y-98546000D01*
X136458000Y-98575000D01*
X136474000Y-98605000D01*
X136489000Y-98636000D01*
X136502000Y-98667000D01*
X136513000Y-98699000D01*
X136523000Y-98732000D01*
X136531000Y-98765000D01*
X136537000Y-98798000D01*
X136541000Y-98832000D01*
X136544000Y-98866000D01*
X136545000Y-98900000D01*
X136545000Y-99250000D01*
X136545000Y-99600000D01*
X136544000Y-99634000D01*
X136541000Y-99668000D01*
X136537000Y-99702000D01*
X136531000Y-99735000D01*
X136523000Y-99768000D01*
X136513000Y-99801000D01*
X136502000Y-99833000D01*
X136489000Y-99864000D01*
X136474000Y-99895000D01*
X136458000Y-99925000D01*
X136440000Y-99954000D01*
X136421000Y-99982000D01*
X136400000Y-100009000D01*
X136378000Y-100035000D01*
X136355000Y-100060000D01*
X136330000Y-100083000D01*
X136304000Y-100105000D01*
X136277000Y-100126000D01*
X136249000Y-100145000D01*
X136220000Y-100163000D01*
X136190000Y-100179000D01*
X136159000Y-100194000D01*
X136128000Y-100207000D01*
X136096000Y-100218000D01*
X136063000Y-100228000D01*
X136030000Y-100236000D01*
X135997000Y-100242000D01*
X135963000Y-100246000D01*
X135929000Y-100249000D01*
X135895000Y-100250000D01*
X135861000Y-100249000D01*
X135827000Y-100246000D01*
X135793000Y-100242000D01*
X135760000Y-100236000D01*
X135727000Y-100228000D01*
X135694000Y-100218000D01*
X135662000Y-100207000D01*
X135631000Y-100194000D01*
X135600000Y-100179000D01*
X135570000Y-100163000D01*
X135541000Y-100145000D01*
X135513000Y-100126000D01*
X135486000Y-100105000D01*
X135460000Y-100083000D01*
X135435000Y-100060000D01*
X135412000Y-100035000D01*
X135390000Y-100009000D01*
X135369000Y-99982000D01*
X135350000Y-99954000D01*
X135332000Y-99925000D01*
X135316000Y-99895000D01*
X135301000Y-99864000D01*
X135288000Y-99833000D01*
X135277000Y-99801000D01*
X135267000Y-99768000D01*
X135259000Y-99735000D01*
X135253000Y-99702000D01*
X135249000Y-99668000D01*
X135246000Y-99634000D01*
X135245000Y-99600000D01*
X135245000Y-99250000D01*
X135245000Y-98900000D01*
X135246000Y-98866000D01*
X135249000Y-98832000D01*
X135253000Y-98798000D01*
X135259000Y-98765000D01*
X135267000Y-98732000D01*
X135277000Y-98699000D01*
X135288000Y-98667000D01*
X135301000Y-98636000D01*
X135316000Y-98605000D01*
X135332000Y-98575000D01*
X135350000Y-98546000D01*
X135369000Y-98518000D01*
X135390000Y-98491000D01*
X135412000Y-98465000D01*
X135435000Y-98440000D01*
X135460000Y-98417000D01*
X135486000Y-98395000D01*
X135513000Y-98374000D01*
X135541000Y-98355000D01*
X135570000Y-98337000D01*
X135600000Y-98321000D01*
X135631000Y-98306000D01*
X135662000Y-98293000D01*
X135694000Y-98282000D01*
X135727000Y-98272000D01*
X135760000Y-98264000D01*
X135793000Y-98258000D01*
X135827000Y-98254000D01*
X135861000Y-98251000D01*
X135895000Y-98250000D01*
X135929000Y-98251000D01*
G36*
X135929000Y-98251000D02*
G01*
X135963000Y-98254000D01*
X135997000Y-98258000D01*
X136030000Y-98264000D01*
X136063000Y-98272000D01*
X136096000Y-98282000D01*
X136128000Y-98293000D01*
X136159000Y-98306000D01*
X136190000Y-98321000D01*
X136220000Y-98337000D01*
X136249000Y-98355000D01*
X136277000Y-98374000D01*
X136304000Y-98395000D01*
X136330000Y-98417000D01*
X136355000Y-98440000D01*
X136378000Y-98465000D01*
X136400000Y-98491000D01*
X136421000Y-98518000D01*
X136440000Y-98546000D01*
X136458000Y-98575000D01*
X136474000Y-98605000D01*
X136489000Y-98636000D01*
X136502000Y-98667000D01*
X136513000Y-98699000D01*
X136523000Y-98732000D01*
X136531000Y-98765000D01*
X136537000Y-98798000D01*
X136541000Y-98832000D01*
X136544000Y-98866000D01*
X136545000Y-98900000D01*
X136545000Y-99250000D01*
X136545000Y-99600000D01*
X136544000Y-99634000D01*
X136541000Y-99668000D01*
X136537000Y-99702000D01*
X136531000Y-99735000D01*
X136523000Y-99768000D01*
X136513000Y-99801000D01*
X136502000Y-99833000D01*
X136489000Y-99864000D01*
X136474000Y-99895000D01*
X136458000Y-99925000D01*
X136440000Y-99954000D01*
X136421000Y-99982000D01*
X136400000Y-100009000D01*
X136378000Y-100035000D01*
X136355000Y-100060000D01*
X136330000Y-100083000D01*
X136304000Y-100105000D01*
X136277000Y-100126000D01*
X136249000Y-100145000D01*
X136220000Y-100163000D01*
X136190000Y-100179000D01*
X136159000Y-100194000D01*
X136128000Y-100207000D01*
X136096000Y-100218000D01*
X136063000Y-100228000D01*
X136030000Y-100236000D01*
X135997000Y-100242000D01*
X135963000Y-100246000D01*
X135929000Y-100249000D01*
X135895000Y-100250000D01*
X135861000Y-100249000D01*
X135827000Y-100246000D01*
X135793000Y-100242000D01*
X135760000Y-100236000D01*
X135727000Y-100228000D01*
X135694000Y-100218000D01*
X135662000Y-100207000D01*
X135631000Y-100194000D01*
X135600000Y-100179000D01*
X135570000Y-100163000D01*
X135541000Y-100145000D01*
X135513000Y-100126000D01*
X135486000Y-100105000D01*
X135460000Y-100083000D01*
X135435000Y-100060000D01*
X135412000Y-100035000D01*
X135390000Y-100009000D01*
X135369000Y-99982000D01*
X135350000Y-99954000D01*
X135332000Y-99925000D01*
X135316000Y-99895000D01*
X135301000Y-99864000D01*
X135288000Y-99833000D01*
X135277000Y-99801000D01*
X135267000Y-99768000D01*
X135259000Y-99735000D01*
X135253000Y-99702000D01*
X135249000Y-99668000D01*
X135246000Y-99634000D01*
X135245000Y-99600000D01*
X135245000Y-99250000D01*
X135245000Y-98900000D01*
X135246000Y-98866000D01*
X135249000Y-98832000D01*
X135253000Y-98798000D01*
X135259000Y-98765000D01*
X135267000Y-98732000D01*
X135277000Y-98699000D01*
X135288000Y-98667000D01*
X135301000Y-98636000D01*
X135316000Y-98605000D01*
X135332000Y-98575000D01*
X135350000Y-98546000D01*
X135369000Y-98518000D01*
X135390000Y-98491000D01*
X135412000Y-98465000D01*
X135435000Y-98440000D01*
X135460000Y-98417000D01*
X135486000Y-98395000D01*
X135513000Y-98374000D01*
X135541000Y-98355000D01*
X135570000Y-98337000D01*
X135600000Y-98321000D01*
X135631000Y-98306000D01*
X135662000Y-98293000D01*
X135694000Y-98282000D01*
X135727000Y-98272000D01*
X135760000Y-98264000D01*
X135793000Y-98258000D01*
X135827000Y-98254000D01*
X135861000Y-98251000D01*
X135895000Y-98250000D01*
X135929000Y-98251000D01*
G37*
%TO.C,JP2*%
G36*
X122250000Y-105100000D02*
G01*
X123750000Y-105100000D01*
X123750000Y-105400000D01*
X122250000Y-105400000D01*
X122250000Y-105100000D01*
G37*
%TD*%
D15*
%TO.C,P2*%
X134250000Y-102150000D03*
X127750000Y-102150000D03*
D16*
X135895000Y-102250000D03*
X126105000Y-102250000D03*
%TD*%
D17*
%TO.C,SW1*%
X152547400Y-123400000D03*
X152547400Y-121100000D03*
D18*
X152847399Y-126000000D03*
X152847399Y-118500000D03*
%TD*%
D19*
%TO.C,S2*%
X125880385Y-142802703D03*
X127850000Y-143150000D03*
X129819616Y-143497296D03*
D20*
X123812289Y-142438042D03*
X131887713Y-143861957D03*
%TD*%
D21*
%TO.C,J1*%
X120354182Y-102362500D03*
D22*
X118154475Y-103632502D03*
%TD*%
D23*
%TO.C,J2*%
X145257790Y-104348386D03*
D24*
X146714674Y-106429034D03*
X148171558Y-108509678D03*
X149628442Y-110590325D03*
X151085327Y-112670971D03*
X152542211Y-114751617D03*
%TD*%
D25*
%TO.C,J5*%
X112000000Y-110500000D03*
D26*
X111826352Y-111484808D03*
X111652704Y-112469615D03*
X111479054Y-113454423D03*
%TD*%
D25*
%TO.C,J6*%
X109500000Y-125250000D03*
D26*
X109326352Y-126234808D03*
X109152704Y-127219615D03*
%TD*%
D27*
%TO.C,C13*%
X124774999Y-109500000D03*
X126325001Y-109500000D03*
%TD*%
%TO.C,C12*%
X137975000Y-100050000D03*
X139525000Y-100050000D03*
%TD*%
D28*
%TO.C,JP2*%
X123000000Y-104600000D03*
D29*
X123000000Y-105900000D03*
%TD*%
D30*
%TO.C,C18*%
X128100000Y-116774999D03*
X128100000Y-118325001D03*
%TD*%
D31*
%TO.C,C21*%
X150569193Y-134701547D03*
X150970363Y-133204361D03*
%TD*%
D32*
%TO.C,U1*%
X142222500Y-107350000D03*
X141587500Y-107350000D03*
X140952500Y-107350000D03*
X140317500Y-107350000D03*
X139682500Y-107350000D03*
X139047500Y-107350000D03*
X138412500Y-107350000D03*
X137777500Y-107350000D03*
X137777500Y-102150000D03*
X138412500Y-102150000D03*
X139047500Y-102150000D03*
X139682500Y-102150000D03*
X140317500Y-102150000D03*
X140952500Y-102150000D03*
X141587500Y-102150000D03*
X142222500Y-102150000D03*
%TD*%
D33*
%TO.C,C1*%
X126275001Y-132100000D03*
X124724999Y-132100000D03*
%TD*%
D34*
%TO.C,R2*%
X131833274Y-130266726D03*
X133000000Y-129100000D03*
%TD*%
D35*
%TO.C,C11*%
X132250000Y-100275000D03*
X132250000Y-98725000D03*
%TD*%
D36*
%TO.C,C2*%
X142001992Y-128148008D03*
X143098008Y-127051992D03*
%TD*%
D37*
%TO.C,D2*%
X129250000Y-103500000D03*
D38*
X130950000Y-103500000D03*
X130950000Y-105500000D03*
X129050000Y-105500000D03*
%TD*%
D39*
%TO.C,R26*%
X147250000Y-126575000D03*
X147250000Y-128225000D03*
%TD*%
D40*
%TO.C,R9*%
X128250000Y-100325000D03*
X128250000Y-98675000D03*
%TD*%
D41*
%TO.C,R24*%
X143963526Y-129453111D03*
X143536474Y-131046889D03*
%TD*%
D35*
%TO.C,C10*%
X130250000Y-100275000D03*
X130250000Y-98725000D03*
%TD*%
D42*
%TO.C,C17*%
X118250000Y-117100000D03*
X118250000Y-119000000D03*
%TD*%
D34*
%TO.C,R3*%
X133083274Y-131516726D03*
X134250000Y-130350000D03*
%TD*%
D43*
%TO.C,J4*%
X144447487Y-119380940D03*
X146780940Y-117047488D03*
X143740381Y-118673833D03*
X146073833Y-116340381D03*
X143033274Y-117966726D03*
X145366726Y-115633274D03*
X142326167Y-117259619D03*
X144659619Y-114926167D03*
X141619060Y-116552512D03*
X143952513Y-114219060D03*
%TD*%
D44*
%TO.C,C4*%
X136751992Y-113051992D03*
X137848008Y-114148008D03*
%TD*%
D45*
%TO.C,U6*%
X145857314Y-130230340D03*
X146485166Y-130398572D03*
X147113017Y-130566805D03*
X147740869Y-130735037D03*
X148368722Y-130903270D03*
X148996573Y-131071502D03*
X149624426Y-131239735D03*
X148142686Y-136769660D03*
X147514834Y-136601428D03*
X146886983Y-136433195D03*
X146259131Y-136264963D03*
X145631278Y-136096730D03*
X145003427Y-135928498D03*
X144375574Y-135760265D03*
%TD*%
D46*
%TO.C,R23*%
X152575000Y-128250000D03*
X150925000Y-128250000D03*
%TD*%
D33*
%TO.C,C23*%
X141275001Y-109000000D03*
X139724999Y-109000000D03*
%TD*%
D46*
%TO.C,R1*%
X129825000Y-132100000D03*
X128175000Y-132100000D03*
%TD*%
D39*
%TO.C,R7*%
X138150000Y-109800000D03*
X138150000Y-111450000D03*
%TD*%
D47*
%TO.C,C22*%
X131721752Y-117928248D03*
X130378248Y-119271752D03*
%TD*%
D48*
%TO.C,R18*%
X116275000Y-114100000D03*
X117925000Y-114100000D03*
%TD*%
D49*
%TO.C,R17*%
X119040248Y-105543750D03*
X117459752Y-106456250D03*
%TD*%
D50*
%TO.C,R5*%
X145083363Y-109483363D03*
X143916637Y-108316637D03*
%TD*%
D39*
%TO.C,R20*%
X119450000Y-122025000D03*
X119450000Y-123675000D03*
%TD*%
D40*
%TO.C,R15*%
X148750000Y-124825000D03*
X148750000Y-123175000D03*
%TD*%
D51*
%TO.C,FB2*%
X125187500Y-104500000D03*
X127312500Y-104500000D03*
%TD*%
D52*
%TO.C,Q1*%
X116760104Y-109358526D03*
X117235104Y-110181250D03*
X117710104Y-111003974D03*
X115739896Y-112141474D03*
X115264896Y-111318750D03*
X114789896Y-110496026D03*
%TD*%
D27*
%TO.C,C16*%
X112724999Y-121000000D03*
X114275001Y-121000000D03*
%TD*%
D53*
%TO.C,SW2*%
X132800003Y-134349998D03*
X123200000Y-134350000D03*
X132800000Y-138850000D03*
X123199997Y-138850002D03*
%TD*%
D54*
%TO.C,Y1*%
X133706496Y-115812128D03*
X135262128Y-114256498D03*
X136393504Y-115387872D03*
X134837872Y-116943502D03*
%TD*%
D55*
%TO.C,C5*%
X133598008Y-113301992D03*
X132501992Y-114398008D03*
%TD*%
D56*
%TO.C,L1*%
X112500705Y-116720532D03*
D57*
X109999295Y-116279468D03*
%TD*%
D58*
%TO.C,FB3*%
X145550000Y-124600000D03*
X144436306Y-125713696D03*
%TD*%
D59*
%TO.C,C14*%
X118328830Y-108137500D03*
X119671170Y-107362500D03*
%TD*%
D40*
%TO.C,R21*%
X120950000Y-110575000D03*
X120950000Y-108925000D03*
%TD*%
D33*
%TO.C,C9*%
X126975001Y-106100000D03*
X125424999Y-106100000D03*
%TD*%
D41*
%TO.C,R25*%
X142963526Y-132703111D03*
X142536474Y-134296889D03*
%TD*%
D60*
%TO.C,U4*%
X113989896Y-108891474D03*
X113514896Y-108068750D03*
X113039896Y-107246026D03*
X115010104Y-106108526D03*
X115485104Y-106931250D03*
X115960104Y-107753974D03*
%TD*%
D40*
%TO.C,R22*%
X122700000Y-110575000D03*
X122700000Y-108925000D03*
%TD*%
D39*
%TO.C,R16*%
X120700001Y-112875000D03*
X120699999Y-114525000D03*
%TD*%
D36*
%TO.C,C19*%
X132001992Y-120398008D03*
X133098008Y-119301992D03*
%TD*%
D61*
%TO.C,U5*%
X116200000Y-119137500D03*
X115250000Y-119137500D03*
X114300000Y-119137500D03*
X114300000Y-116862500D03*
X115250000Y-116862500D03*
X116200000Y-116862500D03*
%TD*%
D62*
%TO.C,U2*%
X132554715Y-122564511D03*
X133120399Y-121998827D03*
X133686085Y-121433141D03*
X134251771Y-120867455D03*
X134817455Y-120301771D03*
X135383141Y-119736085D03*
X135948826Y-119170400D03*
X136514511Y-118604715D03*
D63*
X138585489Y-118604715D03*
X139151173Y-119170399D03*
X139716859Y-119736085D03*
X140282545Y-120301771D03*
X140848229Y-120867455D03*
X141413915Y-121433141D03*
X141979600Y-121998826D03*
X142545285Y-122564511D03*
D62*
X142545285Y-124635489D03*
X141979601Y-125201173D03*
X141413915Y-125766859D03*
X140848229Y-126332545D03*
X140282545Y-126898229D03*
X139716859Y-127463915D03*
X139151174Y-128029600D03*
X138585489Y-128595285D03*
D63*
X136514511Y-128595285D03*
X135948827Y-128029601D03*
X135383141Y-127463915D03*
X134817455Y-126898229D03*
X134251771Y-126332545D03*
X133686085Y-125766859D03*
X133120400Y-125201174D03*
X132554715Y-124635489D03*
%TD*%
D64*
%TO.C,C15*%
X112550000Y-122960000D03*
X114450000Y-122960000D03*
%TD*%
D65*
%TO.C,R6*%
X148266637Y-114366637D03*
X149433363Y-115533363D03*
%TD*%
D66*
%TO.C,U3*%
X122544999Y-113450001D03*
X123814999Y-113450001D03*
X125084999Y-113450001D03*
X126355000Y-113450002D03*
X126354999Y-118400001D03*
X125084999Y-118400001D03*
X123814999Y-118400001D03*
X122544998Y-118400000D03*
D67*
X124449999Y-115925001D03*
%TD*%
D40*
%TO.C,R11*%
X134250000Y-100325000D03*
X134250000Y-98675000D03*
%TD*%
%TO.C,R14*%
X132750000Y-105325000D03*
X132750000Y-103675000D03*
%TD*%
D39*
%TO.C,R13*%
X134500000Y-103675000D03*
X134500000Y-105325000D03*
%TD*%
D35*
%TO.C,C20*%
X149000000Y-128275000D03*
X149000000Y-126725000D03*
%TD*%
D40*
%TO.C,R19*%
X117600000Y-123675000D03*
X117600000Y-122025000D03*
%TD*%
D65*
%TO.C,R4*%
X145916637Y-111266637D03*
X147083363Y-112433363D03*
%TD*%
D27*
%TO.C,C6*%
X124724999Y-111200000D03*
X126275001Y-111200000D03*
%TD*%
%LPD*%
M02*
