%TF.GenerationSoftware,KiCad,Pcbnew,9.0.0*%
%TF.CreationDate,2025-05-02T17:15:01+02:00*%
%TF.ProjectId,009_RGB Sound Control Light Bar Redesign_fraseross,3030395f-5247-4422-9053-6f756e642043,rev?*%
%TF.SameCoordinates,Original*%
%TF.FileFunction,Soldermask,Bot*%
%TF.FilePolarity,Negative*%
%FSLAX46Y46*%
G04 Gerber Fmt 4.6, Leading zero omitted, Abs format (unit mm)*
G04 Created by KiCad (PCBNEW 9.0.0) date 2025-05-02 17:15:01*
%MOMM*%
%LPD*%
G01*
G04 APERTURE LIST*
G04 Aperture macros list*
%AMRoundRect*
0 Rectangle with rounded corners*
0 $1 Rounding radius*
0 $2 $3 $4 $5 $6 $7 $8 $9 X,Y pos of 4 corners*
0 Add a 4 corners polygon primitive as box body*
4,1,4,$2,$3,$4,$5,$6,$7,$8,$9,$2,$3,0*
0 Add four circle primitives for the rounded corners*
1,1,$1+$1,$2,$3*
1,1,$1+$1,$4,$5*
1,1,$1+$1,$6,$7*
1,1,$1+$1,$8,$9*
0 Add four rect primitives between the rounded corners*
20,1,$1+$1,$2,$3,$4,$5,0*
20,1,$1+$1,$4,$5,$6,$7,0*
20,1,$1+$1,$6,$7,$8,$9,0*
20,1,$1+$1,$8,$9,$2,$3,0*%
%AMHorizOval*
0 Thick line with rounded ends*
0 $1 width*
0 $2 $3 position (X,Y) of the first rounded end (center of the circle)*
0 $4 $5 position (X,Y) of the second rounded end (center of the circle)*
0 Add line between two ends*
20,1,$1,$2,$3,$4,$5,0*
0 Add two circle primitives to create the rounded ends*
1,1,$1,$2,$3*
1,1,$1,$4,$5*%
%AMRotRect*
0 Rectangle, with rotation*
0 The origin of the aperture is its center*
0 $1 length*
0 $2 width*
0 $3 Rotation angle, in degrees counterclockwise*
0 Add horizontal line*
21,1,$1,$2,0,0,$3*%
%AMFreePoly0*
4,1,23,0.500000,-0.750000,0.000000,-0.750000,0.000000,-0.745722,-0.065263,-0.745722,-0.191342,-0.711940,-0.304381,-0.646677,-0.396677,-0.554381,-0.461940,-0.441342,-0.495722,-0.315263,-0.495722,-0.250000,-0.500000,-0.250000,-0.500000,0.250000,-0.495722,0.250000,-0.495722,0.315263,-0.461940,0.441342,-0.396677,0.554381,-0.304381,0.646677,-0.191342,0.711940,-0.065263,0.745722,0.000000,0.745722,
0.000000,0.750000,0.500000,0.750000,0.500000,-0.750000,0.500000,-0.750000,$1*%
%AMFreePoly1*
4,1,23,0.000000,0.745722,0.065263,0.745722,0.191342,0.711940,0.304381,0.646677,0.396677,0.554381,0.461940,0.441342,0.495722,0.315263,0.495722,0.250000,0.500000,0.250000,0.500000,-0.250000,0.495722,-0.250000,0.495722,-0.315263,0.461940,-0.441342,0.396677,-0.554381,0.304381,-0.646677,0.191342,-0.711940,0.065263,-0.745722,0.000000,-0.745722,0.000000,-0.750000,-0.500000,-0.750000,
-0.500000,0.750000,0.000000,0.750000,0.000000,0.745722,0.000000,0.745722,$1*%
%AMFreePoly2*
4,1,11,0.760000,0.825000,0.380000,0.510000,0.380000,-0.510000,0.760000,-0.825000,0.760000,-1.525000,-0.125000,-1.525000,-0.380000,-1.270000,-0.380000,1.270000,-0.125000,1.525000,0.760000,1.525000,0.760000,0.825000,0.760000,0.825000,$1*%
G04 Aperture macros list end*
%ADD10C,0.010000*%
%ADD11C,1.020000*%
%ADD12O,1.100000X1.800000*%
%ADD13C,0.889000*%
%ADD14C,1.498600*%
%ADD15C,1.300000*%
%ADD16C,1.875000*%
%ADD17RotRect,1.700000X1.700000X300.000000*%
%ADD18HorizOval,1.700000X0.000000X0.000000X0.000000X0.000000X0*%
%ADD19RotRect,1.700000X1.700000X35.000000*%
%ADD20HorizOval,1.700000X0.000000X0.000000X0.000000X0.000000X0*%
%ADD21RotRect,0.850000X0.850000X350.000000*%
%ADD22HorizOval,0.850000X0.000000X0.000000X0.000000X0.000000X0*%
%ADD23RoundRect,0.225000X-0.225000X-0.250000X0.225000X-0.250000X0.225000X0.250000X-0.225000X0.250000X0*%
%ADD24FreePoly0,270.000000*%
%ADD25FreePoly1,270.000000*%
%ADD26RoundRect,0.225000X-0.250000X0.225000X-0.250000X-0.225000X0.250000X-0.225000X0.250000X0.225000X0*%
%ADD27RoundRect,0.225000X0.183247X-0.282038X0.299716X0.152629X-0.183247X0.282038X-0.299716X-0.152629X0*%
%ADD28R,0.400000X1.200000*%
%ADD29RoundRect,0.225000X0.225000X0.250000X-0.225000X0.250000X-0.225000X-0.250000X0.225000X-0.250000X0*%
%ADD30RoundRect,0.200000X0.053033X-0.335876X0.335876X-0.053033X-0.053033X0.335876X-0.335876X0.053033X0*%
%ADD31RoundRect,0.225000X0.250000X-0.225000X0.250000X0.225000X-0.250000X0.225000X-0.250000X-0.225000X0*%
%ADD32RoundRect,0.225000X0.017678X-0.335876X0.335876X-0.017678X-0.017678X0.335876X-0.335876X0.017678X0*%
%ADD33RoundRect,0.175000X-0.325000X0.175000X-0.325000X-0.175000X0.325000X-0.175000X0.325000X0.175000X0*%
%ADD34RoundRect,0.150000X-0.150000X0.200000X-0.150000X-0.200000X0.150000X-0.200000X0.150000X0.200000X0*%
%ADD35RoundRect,0.200000X-0.275000X0.200000X-0.275000X-0.200000X0.275000X-0.200000X0.275000X0.200000X0*%
%ADD36RoundRect,0.200000X0.275000X-0.200000X0.275000X0.200000X-0.275000X0.200000X-0.275000X-0.200000X0*%
%ADD37RoundRect,0.200000X-0.213866X0.264360X-0.317393X-0.122010X0.213866X-0.264360X0.317393X0.122010X0*%
%ADD38RoundRect,0.250000X-0.475000X0.250000X-0.475000X-0.250000X0.475000X-0.250000X0.475000X0.250000X0*%
%ADD39RotRect,2.000000X0.500000X45.000000*%
%ADD40RoundRect,0.225000X-0.335876X-0.017678X-0.017678X-0.335876X0.335876X0.017678X0.017678X0.335876X0*%
%ADD41RoundRect,0.100000X0.068405X0.641660X-0.261590X-0.589896X-0.068405X-0.641660X0.261590X0.589896X0*%
%ADD42RoundRect,0.200000X0.200000X0.275000X-0.200000X0.275000X-0.200000X-0.275000X0.200000X-0.275000X0*%
%ADD43RoundRect,0.250000X-0.159099X0.512652X-0.512652X0.159099X0.159099X-0.512652X0.512652X-0.159099X0*%
%ADD44RoundRect,0.200000X-0.200000X-0.275000X0.200000X-0.275000X0.200000X0.275000X-0.200000X0.275000X0*%
%ADD45RoundRect,0.250000X0.002332X0.520961X-0.452332X0.258461X-0.002332X-0.520961X0.452332X-0.258461X0*%
%ADD46RoundRect,0.200000X0.335876X0.053033X0.053033X0.335876X-0.335876X-0.053033X-0.053033X-0.335876X0*%
%ADD47RoundRect,0.218750X-0.218750X-0.381250X0.218750X-0.381250X0.218750X0.381250X-0.218750X0.381250X0*%
%ADD48RoundRect,0.150000X0.368838X0.386154X-0.518838X-0.126346X-0.368838X-0.386154X0.518838X0.126346X0*%
%ADD49R,2.600000X1.400000*%
%ADD50RotRect,1.400000X1.200000X45.000000*%
%ADD51RoundRect,0.225000X-0.017678X0.335876X-0.335876X0.017678X0.017678X-0.335876X0.335876X-0.017678X0*%
%ADD52FreePoly2,170.000000*%
%ADD53FreePoly2,350.000000*%
%ADD54RoundRect,0.218750X-0.026517X0.335876X-0.335876X0.026517X0.026517X-0.335876X0.335876X-0.026517X0*%
%ADD55RoundRect,0.225000X-0.069856X-0.329006X0.319856X-0.104006X0.069856X0.329006X-0.319856X0.104006X0*%
%ADD56RoundRect,0.150000X-0.368838X-0.386154X0.518838X0.126346X0.368838X0.386154X-0.518838X-0.126346X0*%
%ADD57RoundRect,0.150000X0.150000X-0.512500X0.150000X0.512500X-0.150000X0.512500X-0.150000X-0.512500X0*%
%ADD58RotRect,0.507200X1.416799X225.000000*%
%ADD59RotRect,0.507200X1.416799X315.000000*%
%ADD60RoundRect,0.250000X-0.250000X-0.475000X0.250000X-0.475000X0.250000X0.475000X-0.250000X0.475000X0*%
%ADD61RoundRect,0.200000X-0.335876X-0.053033X-0.053033X-0.335876X0.335876X0.053033X0.053033X0.335876X0*%
%ADD62RoundRect,0.150000X-0.150000X0.825000X-0.150000X-0.825000X0.150000X-0.825000X0.150000X0.825000X0*%
%ADD63R,3.300000X2.410000*%
G04 APERTURE END LIST*
D10*
%TO.C,P2*%
X126139000Y-98251000D02*
X126173000Y-98254000D01*
X126207000Y-98258000D01*
X126240000Y-98264000D01*
X126273000Y-98272000D01*
X126306000Y-98282000D01*
X126338000Y-98293000D01*
X126369000Y-98306000D01*
X126400000Y-98321000D01*
X126430000Y-98337000D01*
X126459000Y-98355000D01*
X126487000Y-98374000D01*
X126514000Y-98395000D01*
X126540000Y-98417000D01*
X126565000Y-98440000D01*
X126588000Y-98465000D01*
X126610000Y-98491000D01*
X126631000Y-98518000D01*
X126650000Y-98546000D01*
X126668000Y-98575000D01*
X126684000Y-98605000D01*
X126699000Y-98636000D01*
X126712000Y-98667000D01*
X126723000Y-98699000D01*
X126733000Y-98732000D01*
X126741000Y-98765000D01*
X126747000Y-98798000D01*
X126751000Y-98832000D01*
X126754000Y-98866000D01*
X126755000Y-98900000D01*
X126755000Y-99250000D01*
X126755000Y-99600000D01*
X126754000Y-99634000D01*
X126751000Y-99668000D01*
X126747000Y-99702000D01*
X126741000Y-99735000D01*
X126733000Y-99768000D01*
X126723000Y-99801000D01*
X126712000Y-99833000D01*
X126699000Y-99864000D01*
X126684000Y-99895000D01*
X126668000Y-99925000D01*
X126650000Y-99954000D01*
X126631000Y-99982000D01*
X126610000Y-100009000D01*
X126588000Y-100035000D01*
X126565000Y-100060000D01*
X126540000Y-100083000D01*
X126514000Y-100105000D01*
X126487000Y-100126000D01*
X126459000Y-100145000D01*
X126430000Y-100163000D01*
X126400000Y-100179000D01*
X126369000Y-100194000D01*
X126338000Y-100207000D01*
X126306000Y-100218000D01*
X126273000Y-100228000D01*
X126240000Y-100236000D01*
X126207000Y-100242000D01*
X126173000Y-100246000D01*
X126139000Y-100249000D01*
X126105000Y-100250000D01*
X126071000Y-100249000D01*
X126037000Y-100246000D01*
X126003000Y-100242000D01*
X125970000Y-100236000D01*
X125937000Y-100228000D01*
X125904000Y-100218000D01*
X125872000Y-100207000D01*
X125841000Y-100194000D01*
X125810000Y-100179000D01*
X125780000Y-100163000D01*
X125751000Y-100145000D01*
X125723000Y-100126000D01*
X125696000Y-100105000D01*
X125670000Y-100083000D01*
X125645000Y-100060000D01*
X125622000Y-100035000D01*
X125600000Y-100009000D01*
X125579000Y-99982000D01*
X125560000Y-99954000D01*
X125542000Y-99925000D01*
X125526000Y-99895000D01*
X125511000Y-99864000D01*
X125498000Y-99833000D01*
X125487000Y-99801000D01*
X125477000Y-99768000D01*
X125469000Y-99735000D01*
X125463000Y-99702000D01*
X125459000Y-99668000D01*
X125456000Y-99634000D01*
X125455000Y-99600000D01*
X125455000Y-99250000D01*
X125455000Y-98900000D01*
X125456000Y-98866000D01*
X125459000Y-98832000D01*
X125463000Y-98798000D01*
X125469000Y-98765000D01*
X125477000Y-98732000D01*
X125487000Y-98699000D01*
X125498000Y-98667000D01*
X125511000Y-98636000D01*
X125526000Y-98605000D01*
X125542000Y-98575000D01*
X125560000Y-98546000D01*
X125579000Y-98518000D01*
X125600000Y-98491000D01*
X125622000Y-98465000D01*
X125645000Y-98440000D01*
X125670000Y-98417000D01*
X125696000Y-98395000D01*
X125723000Y-98374000D01*
X125751000Y-98355000D01*
X125780000Y-98337000D01*
X125810000Y-98321000D01*
X125841000Y-98306000D01*
X125872000Y-98293000D01*
X125904000Y-98282000D01*
X125937000Y-98272000D01*
X125970000Y-98264000D01*
X126003000Y-98258000D01*
X126037000Y-98254000D01*
X126071000Y-98251000D01*
X126105000Y-98250000D01*
X126139000Y-98251000D01*
G36*
X126139000Y-98251000D02*
G01*
X126173000Y-98254000D01*
X126207000Y-98258000D01*
X126240000Y-98264000D01*
X126273000Y-98272000D01*
X126306000Y-98282000D01*
X126338000Y-98293000D01*
X126369000Y-98306000D01*
X126400000Y-98321000D01*
X126430000Y-98337000D01*
X126459000Y-98355000D01*
X126487000Y-98374000D01*
X126514000Y-98395000D01*
X126540000Y-98417000D01*
X126565000Y-98440000D01*
X126588000Y-98465000D01*
X126610000Y-98491000D01*
X126631000Y-98518000D01*
X126650000Y-98546000D01*
X126668000Y-98575000D01*
X126684000Y-98605000D01*
X126699000Y-98636000D01*
X126712000Y-98667000D01*
X126723000Y-98699000D01*
X126733000Y-98732000D01*
X126741000Y-98765000D01*
X126747000Y-98798000D01*
X126751000Y-98832000D01*
X126754000Y-98866000D01*
X126755000Y-98900000D01*
X126755000Y-99250000D01*
X126755000Y-99600000D01*
X126754000Y-99634000D01*
X126751000Y-99668000D01*
X126747000Y-99702000D01*
X126741000Y-99735000D01*
X126733000Y-99768000D01*
X126723000Y-99801000D01*
X126712000Y-99833000D01*
X126699000Y-99864000D01*
X126684000Y-99895000D01*
X126668000Y-99925000D01*
X126650000Y-99954000D01*
X126631000Y-99982000D01*
X126610000Y-100009000D01*
X126588000Y-100035000D01*
X126565000Y-100060000D01*
X126540000Y-100083000D01*
X126514000Y-100105000D01*
X126487000Y-100126000D01*
X126459000Y-100145000D01*
X126430000Y-100163000D01*
X126400000Y-100179000D01*
X126369000Y-100194000D01*
X126338000Y-100207000D01*
X126306000Y-100218000D01*
X126273000Y-100228000D01*
X126240000Y-100236000D01*
X126207000Y-100242000D01*
X126173000Y-100246000D01*
X126139000Y-100249000D01*
X126105000Y-100250000D01*
X126071000Y-100249000D01*
X126037000Y-100246000D01*
X126003000Y-100242000D01*
X125970000Y-100236000D01*
X125937000Y-100228000D01*
X125904000Y-100218000D01*
X125872000Y-100207000D01*
X125841000Y-100194000D01*
X125810000Y-100179000D01*
X125780000Y-100163000D01*
X125751000Y-100145000D01*
X125723000Y-100126000D01*
X125696000Y-100105000D01*
X125670000Y-100083000D01*
X125645000Y-100060000D01*
X125622000Y-100035000D01*
X125600000Y-100009000D01*
X125579000Y-99982000D01*
X125560000Y-99954000D01*
X125542000Y-99925000D01*
X125526000Y-99895000D01*
X125511000Y-99864000D01*
X125498000Y-99833000D01*
X125487000Y-99801000D01*
X125477000Y-99768000D01*
X125469000Y-99735000D01*
X125463000Y-99702000D01*
X125459000Y-99668000D01*
X125456000Y-99634000D01*
X125455000Y-99600000D01*
X125455000Y-99250000D01*
X125455000Y-98900000D01*
X125456000Y-98866000D01*
X125459000Y-98832000D01*
X125463000Y-98798000D01*
X125469000Y-98765000D01*
X125477000Y-98732000D01*
X125487000Y-98699000D01*
X125498000Y-98667000D01*
X125511000Y-98636000D01*
X125526000Y-98605000D01*
X125542000Y-98575000D01*
X125560000Y-98546000D01*
X125579000Y-98518000D01*
X125600000Y-98491000D01*
X125622000Y-98465000D01*
X125645000Y-98440000D01*
X125670000Y-98417000D01*
X125696000Y-98395000D01*
X125723000Y-98374000D01*
X125751000Y-98355000D01*
X125780000Y-98337000D01*
X125810000Y-98321000D01*
X125841000Y-98306000D01*
X125872000Y-98293000D01*
X125904000Y-98282000D01*
X125937000Y-98272000D01*
X125970000Y-98264000D01*
X126003000Y-98258000D01*
X126037000Y-98254000D01*
X126071000Y-98251000D01*
X126105000Y-98250000D01*
X126139000Y-98251000D01*
G37*
X135929000Y-98251000D02*
X135963000Y-98254000D01*
X135997000Y-98258000D01*
X136030000Y-98264000D01*
X136063000Y-98272000D01*
X136096000Y-98282000D01*
X136128000Y-98293000D01*
X136159000Y-98306000D01*
X136190000Y-98321000D01*
X136220000Y-98337000D01*
X136249000Y-98355000D01*
X136277000Y-98374000D01*
X136304000Y-98395000D01*
X136330000Y-98417000D01*
X136355000Y-98440000D01*
X136378000Y-98465000D01*
X136400000Y-98491000D01*
X136421000Y-98518000D01*
X136440000Y-98546000D01*
X136458000Y-98575000D01*
X136474000Y-98605000D01*
X136489000Y-98636000D01*
X136502000Y-98667000D01*
X136513000Y-98699000D01*
X136523000Y-98732000D01*
X136531000Y-98765000D01*
X136537000Y-98798000D01*
X136541000Y-98832000D01*
X136544000Y-98866000D01*
X136545000Y-98900000D01*
X136545000Y-99250000D01*
X136545000Y-99600000D01*
X136544000Y-99634000D01*
X136541000Y-99668000D01*
X136537000Y-99702000D01*
X136531000Y-99735000D01*
X136523000Y-99768000D01*
X136513000Y-99801000D01*
X136502000Y-99833000D01*
X136489000Y-99864000D01*
X136474000Y-99895000D01*
X136458000Y-99925000D01*
X136440000Y-99954000D01*
X136421000Y-99982000D01*
X136400000Y-100009000D01*
X136378000Y-100035000D01*
X136355000Y-100060000D01*
X136330000Y-100083000D01*
X136304000Y-100105000D01*
X136277000Y-100126000D01*
X136249000Y-100145000D01*
X136220000Y-100163000D01*
X136190000Y-100179000D01*
X136159000Y-100194000D01*
X136128000Y-100207000D01*
X136096000Y-100218000D01*
X136063000Y-100228000D01*
X136030000Y-100236000D01*
X135997000Y-100242000D01*
X135963000Y-100246000D01*
X135929000Y-100249000D01*
X135895000Y-100250000D01*
X135861000Y-100249000D01*
X135827000Y-100246000D01*
X135793000Y-100242000D01*
X135760000Y-100236000D01*
X135727000Y-100228000D01*
X135694000Y-100218000D01*
X135662000Y-100207000D01*
X135631000Y-100194000D01*
X135600000Y-100179000D01*
X135570000Y-100163000D01*
X135541000Y-100145000D01*
X135513000Y-100126000D01*
X135486000Y-100105000D01*
X135460000Y-100083000D01*
X135435000Y-100060000D01*
X135412000Y-100035000D01*
X135390000Y-100009000D01*
X135369000Y-99982000D01*
X135350000Y-99954000D01*
X135332000Y-99925000D01*
X135316000Y-99895000D01*
X135301000Y-99864000D01*
X135288000Y-99833000D01*
X135277000Y-99801000D01*
X135267000Y-99768000D01*
X135259000Y-99735000D01*
X135253000Y-99702000D01*
X135249000Y-99668000D01*
X135246000Y-99634000D01*
X135245000Y-99600000D01*
X135245000Y-99250000D01*
X135245000Y-98900000D01*
X135246000Y-98866000D01*
X135249000Y-98832000D01*
X135253000Y-98798000D01*
X135259000Y-98765000D01*
X135267000Y-98732000D01*
X135277000Y-98699000D01*
X135288000Y-98667000D01*
X135301000Y-98636000D01*
X135316000Y-98605000D01*
X135332000Y-98575000D01*
X135350000Y-98546000D01*
X135369000Y-98518000D01*
X135390000Y-98491000D01*
X135412000Y-98465000D01*
X135435000Y-98440000D01*
X135460000Y-98417000D01*
X135486000Y-98395000D01*
X135513000Y-98374000D01*
X135541000Y-98355000D01*
X135570000Y-98337000D01*
X135600000Y-98321000D01*
X135631000Y-98306000D01*
X135662000Y-98293000D01*
X135694000Y-98282000D01*
X135727000Y-98272000D01*
X135760000Y-98264000D01*
X135793000Y-98258000D01*
X135827000Y-98254000D01*
X135861000Y-98251000D01*
X135895000Y-98250000D01*
X135929000Y-98251000D01*
G36*
X135929000Y-98251000D02*
G01*
X135963000Y-98254000D01*
X135997000Y-98258000D01*
X136030000Y-98264000D01*
X136063000Y-98272000D01*
X136096000Y-98282000D01*
X136128000Y-98293000D01*
X136159000Y-98306000D01*
X136190000Y-98321000D01*
X136220000Y-98337000D01*
X136249000Y-98355000D01*
X136277000Y-98374000D01*
X136304000Y-98395000D01*
X136330000Y-98417000D01*
X136355000Y-98440000D01*
X136378000Y-98465000D01*
X136400000Y-98491000D01*
X136421000Y-98518000D01*
X136440000Y-98546000D01*
X136458000Y-98575000D01*
X136474000Y-98605000D01*
X136489000Y-98636000D01*
X136502000Y-98667000D01*
X136513000Y-98699000D01*
X136523000Y-98732000D01*
X136531000Y-98765000D01*
X136537000Y-98798000D01*
X136541000Y-98832000D01*
X136544000Y-98866000D01*
X136545000Y-98900000D01*
X136545000Y-99250000D01*
X136545000Y-99600000D01*
X136544000Y-99634000D01*
X136541000Y-99668000D01*
X136537000Y-99702000D01*
X136531000Y-99735000D01*
X136523000Y-99768000D01*
X136513000Y-99801000D01*
X136502000Y-99833000D01*
X136489000Y-99864000D01*
X136474000Y-99895000D01*
X136458000Y-99925000D01*
X136440000Y-99954000D01*
X136421000Y-99982000D01*
X136400000Y-100009000D01*
X136378000Y-100035000D01*
X136355000Y-100060000D01*
X136330000Y-100083000D01*
X136304000Y-100105000D01*
X136277000Y-100126000D01*
X136249000Y-100145000D01*
X136220000Y-100163000D01*
X136190000Y-100179000D01*
X136159000Y-100194000D01*
X136128000Y-100207000D01*
X136096000Y-100218000D01*
X136063000Y-100228000D01*
X136030000Y-100236000D01*
X135997000Y-100242000D01*
X135963000Y-100246000D01*
X135929000Y-100249000D01*
X135895000Y-100250000D01*
X135861000Y-100249000D01*
X135827000Y-100246000D01*
X135793000Y-100242000D01*
X135760000Y-100236000D01*
X135727000Y-100228000D01*
X135694000Y-100218000D01*
X135662000Y-100207000D01*
X135631000Y-100194000D01*
X135600000Y-100179000D01*
X135570000Y-100163000D01*
X135541000Y-100145000D01*
X135513000Y-100126000D01*
X135486000Y-100105000D01*
X135460000Y-100083000D01*
X135435000Y-100060000D01*
X135412000Y-100035000D01*
X135390000Y-100009000D01*
X135369000Y-99982000D01*
X135350000Y-99954000D01*
X135332000Y-99925000D01*
X135316000Y-99895000D01*
X135301000Y-99864000D01*
X135288000Y-99833000D01*
X135277000Y-99801000D01*
X135267000Y-99768000D01*
X135259000Y-99735000D01*
X135253000Y-99702000D01*
X135249000Y-99668000D01*
X135246000Y-99634000D01*
X135245000Y-99600000D01*
X135245000Y-99250000D01*
X135245000Y-98900000D01*
X135246000Y-98866000D01*
X135249000Y-98832000D01*
X135253000Y-98798000D01*
X135259000Y-98765000D01*
X135267000Y-98732000D01*
X135277000Y-98699000D01*
X135288000Y-98667000D01*
X135301000Y-98636000D01*
X135316000Y-98605000D01*
X135332000Y-98575000D01*
X135350000Y-98546000D01*
X135369000Y-98518000D01*
X135390000Y-98491000D01*
X135412000Y-98465000D01*
X135435000Y-98440000D01*
X135460000Y-98417000D01*
X135486000Y-98395000D01*
X135513000Y-98374000D01*
X135541000Y-98355000D01*
X135570000Y-98337000D01*
X135600000Y-98321000D01*
X135631000Y-98306000D01*
X135662000Y-98293000D01*
X135694000Y-98282000D01*
X135727000Y-98272000D01*
X135760000Y-98264000D01*
X135793000Y-98258000D01*
X135827000Y-98254000D01*
X135861000Y-98251000D01*
X135895000Y-98250000D01*
X135929000Y-98251000D01*
G37*
%TO.C,JP2*%
G36*
X122250000Y-105100000D02*
G01*
X123750000Y-105100000D01*
X123750000Y-105400000D01*
X122250000Y-105400000D01*
X122250000Y-105100000D01*
G37*
%TD*%
D11*
%TO.C,P2*%
X134250000Y-102150000D03*
X127750000Y-102150000D03*
D12*
X135895000Y-102250000D03*
X126105000Y-102250000D03*
%TD*%
D13*
%TO.C,SW1*%
X152547400Y-123400000D03*
X152547400Y-121100000D03*
D14*
X152847399Y-126000000D03*
X152847399Y-118500000D03*
%TD*%
D15*
%TO.C,S2*%
X125880385Y-142802703D03*
X127850000Y-143150000D03*
X129819616Y-143497296D03*
D16*
X123812289Y-142438042D03*
X131887713Y-143861957D03*
%TD*%
D17*
%TO.C,J1*%
X120354182Y-102362500D03*
D18*
X118154475Y-103632502D03*
%TD*%
D19*
%TO.C,J2*%
X145257790Y-104348386D03*
D20*
X146714674Y-106429034D03*
X148171558Y-108509678D03*
X149628442Y-110590325D03*
X151085327Y-112670971D03*
X152542211Y-114751617D03*
%TD*%
D21*
%TO.C,J5*%
X112000000Y-110500000D03*
D22*
X111826352Y-111484808D03*
X111652704Y-112469615D03*
X111479054Y-113454423D03*
%TD*%
D21*
%TO.C,J6*%
X109500000Y-125250000D03*
D22*
X109326352Y-126234808D03*
X109152704Y-127219615D03*
%TD*%
D23*
%TO.C,C13*%
X124774999Y-109500000D03*
X126325001Y-109500000D03*
%TD*%
%TO.C,C12*%
X137975000Y-100050000D03*
X139525000Y-100050000D03*
%TD*%
D24*
%TO.C,JP2*%
X123000000Y-104600000D03*
D25*
X123000000Y-105900000D03*
%TD*%
D26*
%TO.C,C18*%
X128100000Y-116774999D03*
X128100000Y-118325001D03*
%TD*%
D27*
%TO.C,C21*%
X150569193Y-134701547D03*
X150970363Y-133204361D03*
%TD*%
D28*
%TO.C,U1*%
X142222500Y-107350000D03*
X141587500Y-107350000D03*
X140952500Y-107350000D03*
X140317500Y-107350000D03*
X139682500Y-107350000D03*
X139047500Y-107350000D03*
X138412500Y-107350000D03*
X137777500Y-107350000D03*
X137777500Y-102150000D03*
X138412500Y-102150000D03*
X139047500Y-102150000D03*
X139682500Y-102150000D03*
X140317500Y-102150000D03*
X140952500Y-102150000D03*
X141587500Y-102150000D03*
X142222500Y-102150000D03*
%TD*%
D29*
%TO.C,C1*%
X126275001Y-132100000D03*
X124724999Y-132100000D03*
%TD*%
D30*
%TO.C,R2*%
X131833274Y-130266726D03*
X133000000Y-129100000D03*
%TD*%
D31*
%TO.C,C11*%
X132250000Y-100275000D03*
X132250000Y-98725000D03*
%TD*%
D32*
%TO.C,C2*%
X142001992Y-128148008D03*
X143098008Y-127051992D03*
%TD*%
D33*
%TO.C,D2*%
X129250000Y-103500000D03*
D34*
X130950000Y-103500000D03*
X130950000Y-105500000D03*
X129050000Y-105500000D03*
%TD*%
D35*
%TO.C,R26*%
X147250000Y-126575000D03*
X147250000Y-128225000D03*
%TD*%
D36*
%TO.C,R9*%
X128250000Y-100325000D03*
X128250000Y-98675000D03*
%TD*%
D37*
%TO.C,R24*%
X143963526Y-129453111D03*
X143536474Y-131046889D03*
%TD*%
D31*
%TO.C,C10*%
X130250000Y-100275000D03*
X130250000Y-98725000D03*
%TD*%
D38*
%TO.C,C17*%
X118250000Y-117100000D03*
X118250000Y-119000000D03*
%TD*%
D30*
%TO.C,R3*%
X133083274Y-131516726D03*
X134250000Y-130350000D03*
%TD*%
D39*
%TO.C,J4*%
X144447487Y-119380940D03*
X146780940Y-117047488D03*
X143740381Y-118673833D03*
X146073833Y-116340381D03*
X143033274Y-117966726D03*
X145366726Y-115633274D03*
X142326167Y-117259619D03*
X144659619Y-114926167D03*
X141619060Y-116552512D03*
X143952513Y-114219060D03*
%TD*%
D40*
%TO.C,C4*%
X136751992Y-113051992D03*
X137848008Y-114148008D03*
%TD*%
D41*
%TO.C,U6*%
X145857314Y-130230340D03*
X146485166Y-130398572D03*
X147113017Y-130566805D03*
X147740869Y-130735037D03*
X148368722Y-130903270D03*
X148996573Y-131071502D03*
X149624426Y-131239735D03*
X148142686Y-136769660D03*
X147514834Y-136601428D03*
X146886983Y-136433195D03*
X146259131Y-136264963D03*
X145631278Y-136096730D03*
X145003427Y-135928498D03*
X144375574Y-135760265D03*
%TD*%
D42*
%TO.C,R23*%
X152575000Y-128250000D03*
X150925000Y-128250000D03*
%TD*%
D29*
%TO.C,C23*%
X141275001Y-109000000D03*
X139724999Y-109000000D03*
%TD*%
D42*
%TO.C,R1*%
X129825000Y-132100000D03*
X128175000Y-132100000D03*
%TD*%
D35*
%TO.C,R7*%
X138150000Y-109800000D03*
X138150000Y-111450000D03*
%TD*%
D43*
%TO.C,C22*%
X131721752Y-117928248D03*
X130378248Y-119271752D03*
%TD*%
D44*
%TO.C,R18*%
X116275000Y-114100000D03*
X117925000Y-114100000D03*
%TD*%
D45*
%TO.C,R17*%
X119040248Y-105543750D03*
X117459752Y-106456250D03*
%TD*%
D46*
%TO.C,R5*%
X145083363Y-109483363D03*
X143916637Y-108316637D03*
%TD*%
D35*
%TO.C,R20*%
X119450000Y-122025000D03*
X119450000Y-123675000D03*
%TD*%
D36*
%TO.C,R15*%
X148750000Y-124825000D03*
X148750000Y-123175000D03*
%TD*%
D47*
%TO.C,FB2*%
X125187500Y-104500000D03*
X127312500Y-104500000D03*
%TD*%
D48*
%TO.C,Q1*%
X116760104Y-109358526D03*
X117235104Y-110181250D03*
X117710104Y-111003974D03*
X115739896Y-112141474D03*
X115264896Y-111318750D03*
X114789896Y-110496026D03*
%TD*%
D23*
%TO.C,C16*%
X112724999Y-121000000D03*
X114275001Y-121000000D03*
%TD*%
D49*
%TO.C,SW2*%
X132800003Y-134349998D03*
X123200000Y-134350000D03*
X132800000Y-138850000D03*
X123199997Y-138850002D03*
%TD*%
D50*
%TO.C,Y1*%
X133706496Y-115812128D03*
X135262128Y-114256498D03*
X136393504Y-115387872D03*
X134837872Y-116943502D03*
%TD*%
D51*
%TO.C,C5*%
X133598008Y-113301992D03*
X132501992Y-114398008D03*
%TD*%
D52*
%TO.C,L1*%
X112500705Y-116720532D03*
D53*
X109999295Y-116279468D03*
%TD*%
D54*
%TO.C,FB3*%
X145550000Y-124600000D03*
X144436306Y-125713696D03*
%TD*%
D55*
%TO.C,C14*%
X118328830Y-108137500D03*
X119671170Y-107362500D03*
%TD*%
D36*
%TO.C,R21*%
X120950000Y-110575000D03*
X120950000Y-108925000D03*
%TD*%
D29*
%TO.C,C9*%
X126975001Y-106100000D03*
X125424999Y-106100000D03*
%TD*%
D37*
%TO.C,R25*%
X142963526Y-132703111D03*
X142536474Y-134296889D03*
%TD*%
D56*
%TO.C,U4*%
X113989896Y-108891474D03*
X113514896Y-108068750D03*
X113039896Y-107246026D03*
X115010104Y-106108526D03*
X115485104Y-106931250D03*
X115960104Y-107753974D03*
%TD*%
D36*
%TO.C,R22*%
X122700000Y-110575000D03*
X122700000Y-108925000D03*
%TD*%
D35*
%TO.C,R16*%
X120700001Y-112875000D03*
X120699999Y-114525000D03*
%TD*%
D32*
%TO.C,C19*%
X132001992Y-120398008D03*
X133098008Y-119301992D03*
%TD*%
D57*
%TO.C,U5*%
X116200000Y-119137500D03*
X115250000Y-119137500D03*
X114300000Y-119137500D03*
X114300000Y-116862500D03*
X115250000Y-116862500D03*
X116200000Y-116862500D03*
%TD*%
D58*
%TO.C,U2*%
X132554715Y-122564511D03*
X133120399Y-121998827D03*
X133686085Y-121433141D03*
X134251771Y-120867455D03*
X134817455Y-120301771D03*
X135383141Y-119736085D03*
X135948826Y-119170400D03*
X136514511Y-118604715D03*
D59*
X138585489Y-118604715D03*
X139151173Y-119170399D03*
X139716859Y-119736085D03*
X140282545Y-120301771D03*
X140848229Y-120867455D03*
X141413915Y-121433141D03*
X141979600Y-121998826D03*
X142545285Y-122564511D03*
D58*
X142545285Y-124635489D03*
X141979601Y-125201173D03*
X141413915Y-125766859D03*
X140848229Y-126332545D03*
X140282545Y-126898229D03*
X139716859Y-127463915D03*
X139151174Y-128029600D03*
X138585489Y-128595285D03*
D59*
X136514511Y-128595285D03*
X135948827Y-128029601D03*
X135383141Y-127463915D03*
X134817455Y-126898229D03*
X134251771Y-126332545D03*
X133686085Y-125766859D03*
X133120400Y-125201174D03*
X132554715Y-124635489D03*
%TD*%
D60*
%TO.C,C15*%
X112550000Y-122960000D03*
X114450000Y-122960000D03*
%TD*%
D61*
%TO.C,R6*%
X148266637Y-114366637D03*
X149433363Y-115533363D03*
%TD*%
D62*
%TO.C,U3*%
X122544999Y-113450001D03*
X123814999Y-113450001D03*
X125084999Y-113450001D03*
X126355000Y-113450002D03*
X126354999Y-118400001D03*
X125084999Y-118400001D03*
X123814999Y-118400001D03*
X122544998Y-118400000D03*
D63*
X124449999Y-115925001D03*
%TD*%
D36*
%TO.C,R11*%
X134250000Y-100325000D03*
X134250000Y-98675000D03*
%TD*%
%TO.C,R14*%
X132750000Y-105325000D03*
X132750000Y-103675000D03*
%TD*%
D35*
%TO.C,R13*%
X134500000Y-103675000D03*
X134500000Y-105325000D03*
%TD*%
D31*
%TO.C,C20*%
X149000000Y-128275000D03*
X149000000Y-126725000D03*
%TD*%
D36*
%TO.C,R19*%
X117600000Y-123675000D03*
X117600000Y-122025000D03*
%TD*%
D61*
%TO.C,R4*%
X145916637Y-111266637D03*
X147083363Y-112433363D03*
%TD*%
D23*
%TO.C,C6*%
X124724999Y-111200000D03*
X126275001Y-111200000D03*
%TD*%
M02*
