%TF.GenerationSoftware,KiCad,Pcbnew,9.0.0*%
%TF.CreationDate,2025-05-02T17:15:01+02:00*%
%TF.ProjectId,009_RGB Sound Control Light Bar Redesign_fraseross,3030395f-5247-4422-9053-6f756e642043,rev?*%
%TF.SameCoordinates,Original*%
%TF.FileFunction,Copper,L1,Top*%
%TF.FilePolarity,Positive*%
%FSLAX46Y46*%
G04 Gerber Fmt 4.6, Leading zero omitted, Abs format (unit mm)*
G04 Created by KiCad (PCBNEW 9.0.0) date 2025-05-02 17:15:01*
%MOMM*%
%LPD*%
G01*
G04 APERTURE LIST*
G04 Aperture macros list*
%AMRoundRect*
0 Rectangle with rounded corners*
0 $1 Rounding radius*
0 $2 $3 $4 $5 $6 $7 $8 $9 X,Y pos of 4 corners*
0 Add a 4 corners polygon primitive as box body*
4,1,4,$2,$3,$4,$5,$6,$7,$8,$9,$2,$3,0*
0 Add four circle primitives for the rounded corners*
1,1,$1+$1,$2,$3*
1,1,$1+$1,$4,$5*
1,1,$1+$1,$6,$7*
1,1,$1+$1,$8,$9*
0 Add four rect primitives between the rounded corners*
20,1,$1+$1,$2,$3,$4,$5,0*
20,1,$1+$1,$4,$5,$6,$7,0*
20,1,$1+$1,$6,$7,$8,$9,0*
20,1,$1+$1,$8,$9,$2,$3,0*%
%AMHorizOval*
0 Thick line with rounded ends*
0 $1 width*
0 $2 $3 position (X,Y) of the first rounded end (center of the circle)*
0 $4 $5 position (X,Y) of the second rounded end (center of the circle)*
0 Add line between two ends*
20,1,$1,$2,$3,$4,$5,0*
0 Add two circle primitives to create the rounded ends*
1,1,$1,$2,$3*
1,1,$1,$4,$5*%
%AMRotRect*
0 Rectangle, with rotation*
0 The origin of the aperture is its center*
0 $1 length*
0 $2 width*
0 $3 Rotation angle, in degrees counterclockwise*
0 Add horizontal line*
21,1,$1,$2,0,0,$3*%
%AMFreePoly0*
4,1,237,0.029172,0.903997,0.029356,0.903987,0.057356,0.901987,0.057683,0.901953,0.086683,0.897953,0.086879,0.897922,0.114879,0.892922,0.115213,0.892851,0.143213,0.885851,0.143374,0.885808,0.171374,0.877808,0.171737,0.877689,0.198737,0.867689,0.198886,0.867630,0.225886,0.856630,0.226095,0.856540,0.252095,0.844540,0.252443,0.844363,0.277443,0.830363,0.277572,0.830287,
0.302572,0.815287,0.302855,0.815105,0.325855,0.799105,0.326082,0.798938,0.349082,0.780938,0.371166,0.762870,0.371448,0.762621,0.392448,0.742621,0.392621,0.742448,0.412621,0.721448,0.412870,0.721166,0.430938,0.699082,0.448938,0.676082,0.449105,0.675855,0.465105,0.652855,0.465287,0.652572,0.480287,0.627572,0.480363,0.627443,0.494363,0.602443,0.494540,0.602095,
0.506540,0.576095,0.506630,0.575886,0.517630,0.548886,0.517689,0.548737,0.527689,0.521737,0.527808,0.521374,0.535808,0.493374,0.535851,0.493213,0.542851,0.465213,0.542922,0.464879,0.547922,0.436879,0.547953,0.436683,0.551953,0.407683,0.551987,0.407356,0.553987,0.379356,0.553997,0.379172,0.554997,0.350172,0.555000,0.350000,0.555000,-0.350000,0.554997,-0.350172,
0.553997,-0.379172,0.553987,-0.379356,0.551987,-0.407356,0.551953,-0.407683,0.547953,-0.436683,0.547922,-0.436879,0.542922,-0.464879,0.542851,-0.465213,0.535851,-0.493213,0.535808,-0.493374,0.527808,-0.521374,0.527689,-0.521737,0.517689,-0.548737,0.517630,-0.548886,0.506630,-0.575886,0.506540,-0.576095,0.494540,-0.602095,0.494363,-0.602443,0.480363,-0.627443,0.480287,-0.627572,
0.465287,-0.652572,0.465105,-0.652855,0.449105,-0.675855,0.448938,-0.676082,0.430938,-0.699082,0.412870,-0.721166,0.412621,-0.721448,0.392621,-0.742448,0.392448,-0.742621,0.371448,-0.762621,0.371166,-0.762870,0.349082,-0.780938,0.326082,-0.798938,0.325855,-0.799105,0.302855,-0.815105,0.302572,-0.815287,0.277572,-0.830287,0.277443,-0.830363,0.252443,-0.844363,0.252095,-0.844540,
0.226095,-0.856540,0.225886,-0.856630,0.198886,-0.867630,0.198737,-0.867689,0.171737,-0.877689,0.171374,-0.877808,0.143374,-0.885808,0.143213,-0.885851,0.115213,-0.892851,0.114879,-0.892922,0.086879,-0.897922,0.086683,-0.897953,0.057683,-0.901953,0.057356,-0.901987,0.029356,-0.903987,0.029172,-0.903997,0.000172,-0.904997,-0.000172,-0.904997,-0.029172,-0.903997,-0.029356,-0.903987,
-0.057356,-0.901987,-0.057683,-0.901953,-0.086683,-0.897953,-0.086879,-0.897922,-0.114879,-0.892922,-0.115213,-0.892851,-0.143213,-0.885851,-0.143374,-0.885808,-0.171374,-0.877808,-0.171737,-0.877689,-0.198737,-0.867689,-0.198886,-0.867630,-0.225886,-0.856630,-0.226095,-0.856540,-0.252095,-0.844540,-0.252443,-0.844363,-0.277443,-0.830363,-0.277572,-0.830287,-0.302572,-0.815287,-0.302855,-0.815105,
-0.325855,-0.799105,-0.326082,-0.798938,-0.349082,-0.780938,-0.371166,-0.762870,-0.371448,-0.762621,-0.392448,-0.742621,-0.392621,-0.742448,-0.412621,-0.721448,-0.412870,-0.721166,-0.430938,-0.699082,-0.448938,-0.676082,-0.449105,-0.675855,-0.465105,-0.652855,-0.465287,-0.652572,-0.480287,-0.627572,-0.480363,-0.627443,-0.494363,-0.602443,-0.494540,-0.602095,-0.506540,-0.576095,-0.506630,-0.575886,
-0.517630,-0.548886,-0.517689,-0.548737,-0.527689,-0.521737,-0.527808,-0.521374,-0.535808,-0.493374,-0.535851,-0.493213,-0.542851,-0.465213,-0.542922,-0.464879,-0.547922,-0.436879,-0.547953,-0.436683,-0.551953,-0.407683,-0.551987,-0.407356,-0.553987,-0.379356,-0.553997,-0.379172,-0.554997,-0.350172,-0.555000,-0.350000,-0.555000,0.350000,-0.554997,0.350172,-0.553997,0.379172,-0.553987,0.379356,
-0.551987,0.407356,-0.551953,0.407683,-0.547953,0.436683,-0.547922,0.436879,-0.542922,0.464879,-0.542851,0.465213,-0.535851,0.493213,-0.535808,0.493374,-0.527808,0.521374,-0.527689,0.521737,-0.517689,0.548737,-0.517630,0.548886,-0.506630,0.575886,-0.506540,0.576095,-0.494540,0.602095,-0.494363,0.602443,-0.480363,0.627443,-0.480287,0.627572,-0.465287,0.652572,-0.465105,0.652855,
-0.449105,0.675855,-0.448938,0.676082,-0.430938,0.699082,-0.412870,0.721166,-0.412621,0.721448,-0.392621,0.742448,-0.392448,0.742621,-0.371448,0.762621,-0.371166,0.762870,-0.349082,0.780938,-0.326082,0.798938,-0.325855,0.799105,-0.302855,0.815105,-0.302572,0.815287,-0.277572,0.830287,-0.277443,0.830363,-0.252443,0.844363,-0.252095,0.844540,-0.226095,0.856540,-0.225886,0.856630,
-0.198886,0.867630,-0.198737,0.867689,-0.171737,0.877689,-0.171374,0.877808,-0.143374,0.885808,-0.143213,0.885851,-0.115213,0.892851,-0.114879,0.892922,-0.086879,0.897922,-0.086683,0.897953,-0.057683,0.901953,-0.057356,0.901987,-0.029356,0.903987,-0.029172,0.903997,-0.000172,0.904997,0.000172,0.904997,0.029172,0.903997,0.029172,0.903997,$1*%
G04 Aperture macros list end*
%TA.AperFunction,SMDPad,CuDef*%
%ADD10RoundRect,0.250000X-0.475000X0.250000X-0.475000X-0.250000X0.475000X-0.250000X0.475000X0.250000X0*%
%TD*%
%TA.AperFunction,SMDPad,CuDef*%
%ADD11RoundRect,0.218750X0.256250X-0.218750X0.256250X0.218750X-0.256250X0.218750X-0.256250X-0.218750X0*%
%TD*%
%TA.AperFunction,SMDPad,CuDef*%
%ADD12R,0.600000X1.550000*%
%TD*%
%TA.AperFunction,SMDPad,CuDef*%
%ADD13R,0.300000X1.550000*%
%TD*%
%TA.AperFunction,ComponentPad*%
%ADD14O,1.100000X1.800000*%
%TD*%
%TA.AperFunction,ComponentPad*%
%ADD15FreePoly0,180.000000*%
%TD*%
%TA.AperFunction,SMDPad,CuDef*%
%ADD16R,1.193800X1.193800*%
%TD*%
%TA.AperFunction,ComponentPad*%
%ADD17C,1.498600*%
%TD*%
%TA.AperFunction,ComponentPad*%
%ADD18C,1.300000*%
%TD*%
%TA.AperFunction,ComponentPad*%
%ADD19C,1.875000*%
%TD*%
%TA.AperFunction,SMDPad,CuDef*%
%ADD20RoundRect,0.250000X0.712679X-1.141091X1.059975X0.828524X-0.712679X1.141091X-1.059975X-0.828524X0*%
%TD*%
%TA.AperFunction,SMDPad,CuDef*%
%ADD21RoundRect,0.200000X-0.275000X0.200000X-0.275000X-0.200000X0.275000X-0.200000X0.275000X0.200000X0*%
%TD*%
%TA.AperFunction,ComponentPad*%
%ADD22RotRect,1.700000X1.700000X300.000000*%
%TD*%
%TA.AperFunction,ComponentPad*%
%ADD23HorizOval,1.700000X0.000000X0.000000X0.000000X0.000000X0*%
%TD*%
%TA.AperFunction,ComponentPad*%
%ADD24RotRect,1.700000X1.700000X35.000000*%
%TD*%
%TA.AperFunction,ComponentPad*%
%ADD25HorizOval,1.700000X0.000000X0.000000X0.000000X0.000000X0*%
%TD*%
%TA.AperFunction,SMDPad,CuDef*%
%ADD26RoundRect,0.218750X-0.061318X-0.331294X0.317568X-0.112544X0.061318X0.331294X-0.317568X0.112544X0*%
%TD*%
%TA.AperFunction,ComponentPad*%
%ADD27RotRect,0.850000X0.850000X350.000000*%
%TD*%
%TA.AperFunction,ComponentPad*%
%ADD28HorizOval,0.850000X0.000000X0.000000X0.000000X0.000000X0*%
%TD*%
%TA.AperFunction,SMDPad,CuDef*%
%ADD29RoundRect,0.275250X0.851116X0.502083X-0.628065X0.762903X-0.851116X-0.502083X0.628065X-0.762903X0*%
%TD*%
%TA.AperFunction,SMDPad,CuDef*%
%ADD30RoundRect,0.287625X0.991664X0.506621X-0.758585X0.815237X-0.991664X-0.506621X0.758585X-0.815237X0*%
%TD*%
%TA.AperFunction,SMDPad,CuDef*%
%ADD31RoundRect,0.225000X-0.250000X0.225000X-0.250000X-0.225000X0.250000X-0.225000X0.250000X0.225000X0*%
%TD*%
%TA.AperFunction,HeatsinkPad*%
%ADD32C,0.500000*%
%TD*%
%TA.AperFunction,HeatsinkPad*%
%ADD33R,2.900000X1.900000*%
%TD*%
%TA.AperFunction,ViaPad*%
%ADD34C,0.600000*%
%TD*%
%TA.AperFunction,Conductor*%
%ADD35C,0.600000*%
%TD*%
%TA.AperFunction,Conductor*%
%ADD36C,0.400000*%
%TD*%
%TA.AperFunction,Conductor*%
%ADD37C,0.200000*%
%TD*%
%TA.AperFunction,Conductor*%
%ADD38C,0.300000*%
%TD*%
%TA.AperFunction,Conductor*%
%ADD39C,1.000000*%
%TD*%
G04 APERTURE END LIST*
D10*
%TO.P,C8,1*%
%TO.N,VCC*%
X138250000Y-100030000D03*
%TO.P,C8,2*%
%TO.N,GND*%
X138250000Y-101930000D03*
%TD*%
D11*
%TO.P,TX,1,K*%
%TO.N,CBUS2*%
X138250000Y-108487501D03*
%TO.P,TX,2,A*%
%TO.N,Net-(TX2-A)*%
X138250000Y-106912499D03*
%TD*%
D12*
%TO.P,P2,A1,GND*%
%TO.N,GND*%
X134200000Y-104225000D03*
X127800000Y-104225000D03*
%TO.P,P2,A4,VBUS*%
%TO.N,VUSB*%
X133400000Y-104225000D03*
X128600000Y-104225000D03*
D13*
%TO.P,P2,A5,CC1*%
%TO.N,Net-(P2-CC1)*%
X132250000Y-104225000D03*
%TO.P,P2,A6,D+*%
%TO.N,D+*%
X131250000Y-104225000D03*
%TO.P,P2,A7,D-*%
%TO.N,D-*%
X130750000Y-104225000D03*
%TO.P,P2,A8,SBU1*%
%TO.N,unconnected-(P2-SBU1-PadA8)*%
X129750000Y-104225000D03*
%TO.P,P2,B5,CC2*%
%TO.N,Net-(P2-CC2)*%
X129250000Y-104225000D03*
%TO.P,P2,B6,D+*%
%TO.N,D+*%
X130250000Y-104225000D03*
%TO.P,P2,B7,D-*%
%TO.N,D-*%
X131750000Y-104225000D03*
%TO.P,P2,B8,SBU2*%
%TO.N,unconnected-(P2-SBU2-PadB8)*%
X132750000Y-104225000D03*
D14*
%TO.P,P2,S1,SHIELD*%
%TO.N,GND*%
X135895000Y-102250000D03*
D15*
X135895000Y-99250000D03*
D14*
X126105000Y-102250000D03*
D15*
X126105000Y-99250000D03*
%TD*%
D16*
%TO.P,SW1,1,A*%
%TO.N,LED_SWITCH_SLEEP*%
X151247400Y-124349998D03*
%TO.P,SW1,2,B*%
%TO.N,GND*%
X151247400Y-120150002D03*
D17*
%TO.P,SW1,3*%
%TO.N,N/C*%
X152847399Y-126000000D03*
%TO.P,SW1,4*%
X152847399Y-118500000D03*
%TD*%
D18*
%TO.P,S2,1,1*%
%TO.N,LED_DATA*%
X125880385Y-142802703D03*
%TO.P,S2,2,2*%
%TO.N,Net-(J6-Pin_2)*%
X127850000Y-143150000D03*
%TO.P,S2,3,3*%
%TO.N,LED_DATA_BL*%
X129819616Y-143497296D03*
D19*
%TO.P,S2,MH1,MH1*%
%TO.N,GND*%
X123812289Y-142438042D03*
%TO.P,S2,MH2,MH2*%
X131887713Y-143861957D03*
%TD*%
D20*
%TO.P,D4,1,K*%
%TO.N,VCC*%
X109626657Y-121117337D03*
%TO.P,D4,2,A*%
%TO.N,/Power/Boost_SW*%
X110373343Y-116882663D03*
%TD*%
D21*
%TO.P,R12,1*%
%TO.N,VCC*%
X140000000Y-103775000D03*
%TO.P,R12,2*%
%TO.N,Net-(RX2-A)*%
X140000000Y-105425000D03*
%TD*%
D22*
%TO.P,J1,1,Pin_1*%
%TO.N,BAT-*%
X120354182Y-102362500D03*
D23*
%TO.P,J1,2,Pin_2*%
%TO.N,BAT+*%
X118154475Y-103632502D03*
%TD*%
D11*
%TO.P,DCOK,1,K*%
%TO.N,GND*%
X141800000Y-108500000D03*
%TO.P,DCOK,2,A*%
%TO.N,Net-(PWR2-A)*%
X141800000Y-106924998D03*
%TD*%
%TO.P,RX,1,K*%
%TO.N,CBUS1*%
X140000000Y-108487501D03*
%TO.P,RX,2,A*%
%TO.N,Net-(RX2-A)*%
X140000000Y-106912499D03*
%TD*%
D24*
%TO.P,J2,1,Pin_1*%
%TO.N,GND*%
X145257790Y-104348386D03*
D25*
%TO.P,J2,2,Pin_2*%
%TO.N,DTR*%
X146714674Y-106429034D03*
%TO.P,J2,3,Pin_3*%
%TO.N,VCC*%
X148171558Y-108509678D03*
%TO.P,J2,4,Pin_4*%
%TO.N,RXI*%
X149628442Y-110590325D03*
%TO.P,J2,5,Pin_5*%
%TO.N,TXO*%
X151085327Y-112670971D03*
%TO.P,J2,6,Pin_6*%
%TO.N,RTS*%
X152542211Y-114751617D03*
%TD*%
D26*
%TO.P,D3,1,K*%
%TO.N,Net-(D3-K)*%
X122068005Y-106643750D03*
%TO.P,D3,2,A*%
%TO.N,Net-(D3-A)*%
X123431995Y-105856250D03*
%TD*%
%TO.P,D1,1,K*%
%TO.N,Net-(D1-K)*%
X121068005Y-105143750D03*
%TO.P,D1,2,A*%
%TO.N,Net-(D1-A)*%
X122431995Y-104356250D03*
%TD*%
D27*
%TO.P,J5,1,Pin_1*%
%TO.N,GND*%
X112000000Y-110500000D03*
D28*
%TO.P,J5,2,Pin_2*%
X111826352Y-111484808D03*
%TO.P,J5,3,Pin_3*%
%TO.N,LED_DATA_BL*%
X111652704Y-112469615D03*
%TO.P,J5,4,Pin_4*%
%TO.N,VCC*%
X111479054Y-113454423D03*
%TD*%
D21*
%TO.P,R10,1*%
%TO.N,VCC*%
X138260000Y-103775000D03*
%TO.P,R10,2*%
%TO.N,Net-(TX2-A)*%
X138260000Y-105425000D03*
%TD*%
%TO.P,R8,1*%
%TO.N,VCC*%
X141750000Y-103775000D03*
%TO.P,R8,2*%
%TO.N,Net-(PWR2-A)*%
X141750000Y-105425000D03*
%TD*%
D29*
%TO.P,MK1,1,-*%
%TO.N,GNDA*%
X148440969Y-133339237D03*
D30*
%TO.P,MK1,2,+*%
%TO.N,Net-(MK1-+)*%
X149054686Y-131010428D03*
%TD*%
D27*
%TO.P,J6,1,Pin_1*%
%TO.N,GND*%
X109500000Y-125250000D03*
D28*
%TO.P,J6,2,Pin_2*%
%TO.N,Net-(J6-Pin_2)*%
X109326352Y-126234808D03*
%TO.P,J6,3,Pin_3*%
%TO.N,VCC*%
X109152704Y-127219615D03*
%TD*%
D31*
%TO.P,C7,1*%
%TO.N,VCC*%
X140300000Y-100475000D03*
%TO.P,C7,2*%
%TO.N,GND*%
X140300000Y-102025000D03*
%TD*%
D32*
%TO.P,U3,9,EPAD*%
%TO.N,GND*%
X125650000Y-115225001D03*
X124449999Y-115225001D03*
X123250000Y-115225002D03*
D33*
X124449999Y-115925001D03*
D32*
X125649998Y-116625000D03*
X124449999Y-116625001D03*
X123249998Y-116625001D03*
%TD*%
D34*
%TO.N,GND*%
X136950000Y-101050000D03*
%TO.N,VUSB*%
X128200000Y-105750000D03*
%TO.N,D+*%
X131555326Y-101742615D03*
X129783311Y-101738477D03*
%TO.N,D-*%
X130720021Y-101900000D03*
X132405296Y-101750062D03*
%TO.N,VCC*%
X142950000Y-103750000D03*
X142600000Y-110750000D03*
X109300000Y-123200000D03*
X139413917Y-101025780D03*
X146250000Y-123900000D03*
X111400000Y-121850000D03*
X111500000Y-120500000D03*
X111250000Y-123300000D03*
X130800000Y-117006496D03*
X130850000Y-131350000D03*
%TO.N,Net-(P2-CC1)*%
X133255298Y-101750094D03*
%TO.N,Net-(P2-CC2)*%
X129065023Y-102090709D03*
%TO.N,CBUS1*%
X140900000Y-104650000D03*
%TO.N,CBUS2*%
X137200000Y-108800000D03*
%TO.N,DTR*%
X124750000Y-130750000D03*
%TO.N,VDDA*%
X143750000Y-127750000D03*
X151350000Y-132150000D03*
X152600000Y-129350000D03*
%TO.N,RXI*%
X145400000Y-108500000D03*
X132600000Y-126750000D03*
%TO.N,TXO*%
X132150000Y-125900000D03*
X147716726Y-111800000D03*
%TO.N,VBUS_IN*%
X121850421Y-117396316D03*
X123900000Y-107200000D03*
X123000000Y-107200000D03*
X127650000Y-111200000D03*
X127650000Y-112000000D03*
X127650000Y-110350000D03*
X121650000Y-111600000D03*
%TO.N,Net-(D3-K)*%
X121178279Y-117916632D03*
%TO.N,Net-(D1-K)*%
X120866881Y-118708863D03*
%TO.N,/Power/Boost_SW*%
X108800000Y-116050000D03*
X108600000Y-117000000D03*
X109000000Y-115200000D03*
%TO.N,BAT-*%
X116350000Y-108700000D03*
%TO.N,Net-(D1-A)*%
X123240883Y-102550000D03*
%TO.N,Net-(D3-A)*%
X123900000Y-103200000D03*
%TO.N,LED_SWITCH_SLEEP*%
X149750000Y-123200000D03*
%TO.N,LED_DATA*%
X141070501Y-119365464D03*
%TO.N,GPIO3*%
X135928226Y-125621049D03*
X142770501Y-119762543D03*
%TO.N,GPIO1*%
X137300000Y-127000000D03*
X143512183Y-120859339D03*
%TO.N,GPIO2*%
X138250000Y-127200000D03*
X147150000Y-117950000D03*
%TO.N,GPIO4*%
X145379186Y-117763048D03*
X136500000Y-126250000D03*
%TO.N,GPIO10*%
X134200000Y-122750000D03*
X142850000Y-115300000D03*
%TO.N,GPIO9*%
X133550000Y-123550000D03*
X140550000Y-117800000D03*
%TO.N,Net-(U6A-+)*%
X146750000Y-131850000D03*
X148100000Y-127500000D03*
%TO.N,Net-(MK1-+)*%
X149850000Y-129350000D03*
%TO.N,GNDA*%
X150200000Y-135700000D03*
X142100000Y-135150000D03*
X140400000Y-129650000D03*
X146050000Y-128150000D03*
X142450000Y-129100000D03*
X146800000Y-133200000D03*
%TO.N,GND*%
X121150002Y-138850002D03*
X120550000Y-123700000D03*
X117950000Y-111800000D03*
X116150000Y-121250000D03*
X142750000Y-109050000D03*
X125350000Y-107100000D03*
X117950000Y-112500000D03*
X150700000Y-118800000D03*
X139100000Y-111450000D03*
X139150000Y-110650000D03*
X135262128Y-112512128D03*
X117950000Y-113200000D03*
X131300000Y-121100000D03*
X138700000Y-131350000D03*
X141232894Y-101005905D03*
%TD*%
D35*
%TO.N,GND*%
X135895000Y-102105000D02*
X136950000Y-101050000D01*
X135895000Y-102250000D02*
X135895000Y-102105000D01*
X137930000Y-102250000D02*
X138250000Y-101930000D01*
X135895000Y-102250000D02*
X137930000Y-102250000D01*
%TO.N,VUSB*%
X133150000Y-105650000D02*
X133399000Y-105401000D01*
X133400000Y-105400000D02*
X133400000Y-104225000D01*
X128948000Y-105650000D02*
X133150000Y-105650000D01*
D36*
X128600000Y-105302000D02*
X128699000Y-105401000D01*
D35*
X128699000Y-105401000D02*
X128948000Y-105650000D01*
X128600000Y-105350000D02*
X128200000Y-105750000D01*
D36*
X128600000Y-104225000D02*
X128600000Y-105302000D01*
D35*
X128600000Y-104225000D02*
X128600000Y-105350000D01*
D36*
X133399000Y-105401000D02*
X133400000Y-105400000D01*
D37*
%TO.N,D+*%
X131555326Y-102594620D02*
X131555326Y-101742615D01*
X129986404Y-102858078D02*
X130250000Y-103121674D01*
X131250000Y-102899946D02*
X131555326Y-102594620D01*
X130057758Y-102288838D02*
X129986404Y-102360192D01*
X129986404Y-102360192D02*
X129986404Y-102858078D01*
X130250000Y-103121674D02*
X130250000Y-104225000D01*
X130057758Y-102012924D02*
X130057758Y-102288838D01*
X131250000Y-104225000D02*
X131250000Y-102899946D01*
X129783311Y-101738477D02*
X130057758Y-102012924D01*
%TO.N,D-*%
X131750000Y-104225000D02*
X131750000Y-103047064D01*
X130750000Y-104225000D02*
X130750000Y-101929979D01*
X131750000Y-103047064D02*
X132405296Y-102391768D01*
X130750000Y-101929979D02*
X130720021Y-101900000D01*
X132405296Y-102391768D02*
X132405296Y-101750062D01*
%TO.N,VCC*%
X142925000Y-103775000D02*
X142950000Y-103750000D01*
D38*
X139413917Y-101025780D02*
X139413917Y-100538917D01*
X140300000Y-100475000D02*
X139350000Y-100475000D01*
X139350000Y-100475000D02*
X138695000Y-100475000D01*
D37*
X141750000Y-103775000D02*
X142925000Y-103775000D01*
D38*
X139413917Y-100538917D02*
X139350000Y-100475000D01*
D37*
X141750000Y-103775000D02*
X140000000Y-103775000D01*
D38*
X138695000Y-100475000D02*
X138250000Y-100030000D01*
D37*
X140000000Y-103775000D02*
X138260000Y-103775000D01*
%TO.N,Net-(P2-CC1)*%
X132250000Y-104225000D02*
X132250000Y-103250000D01*
X132250000Y-103250000D02*
X133255298Y-102244702D01*
X133255298Y-102244702D02*
X133255298Y-101750094D01*
%TO.N,Net-(P2-CC2)*%
X129027263Y-102128469D02*
X129027263Y-102947561D01*
X129065023Y-102090709D02*
X129027263Y-102128469D01*
X129250000Y-103092926D02*
X129250000Y-104225000D01*
X129107072Y-102949998D02*
X129250000Y-103092926D01*
X129027263Y-102947561D02*
X129029700Y-102949998D01*
X129029700Y-102949998D02*
X129107072Y-102949998D01*
%TO.N,Net-(PWR2-A)*%
X141800000Y-106924998D02*
X141800000Y-105475000D01*
X141800000Y-105475000D02*
X141750000Y-105425000D01*
%TO.N,Net-(TX2-A)*%
X138250000Y-106912499D02*
X138250000Y-105435000D01*
X138250000Y-105435000D02*
X138260000Y-105425000D01*
%TO.N,Net-(RX2-A)*%
X140000000Y-106912499D02*
X140000000Y-105425000D01*
%TO.N,CBUS1*%
X140900000Y-107650000D02*
X140837501Y-107650000D01*
X140000000Y-108487501D02*
X140062499Y-108487501D01*
X140900000Y-104650000D02*
X140900000Y-107650000D01*
X140837501Y-107650000D02*
X140000000Y-108487501D01*
%TO.N,CBUS2*%
X137512499Y-108487501D02*
X137200000Y-108800000D01*
X138250000Y-108487501D02*
X137512499Y-108487501D01*
%TO.N,DTR*%
X124750000Y-130750000D02*
X124750000Y-129392836D01*
X144600000Y-109542836D02*
X144600000Y-108400000D01*
X144600000Y-108400000D02*
X146570966Y-106429034D01*
X124750000Y-129392836D02*
X144600000Y-109542836D01*
X146570966Y-106429034D02*
X146714674Y-106429034D01*
%TO.N,RXI*%
X131700000Y-127000000D02*
X132350000Y-127000000D01*
X132350000Y-127000000D02*
X132600000Y-126750000D01*
X145400000Y-108500000D02*
X145400000Y-110200000D01*
X131300000Y-124300000D02*
X131300000Y-126600000D01*
X131300000Y-126600000D02*
X131700000Y-127000000D01*
X145400000Y-110200000D02*
X131300000Y-124300000D01*
%TO.N,TXO*%
X132200000Y-125950000D02*
X132150000Y-125900000D01*
X147716726Y-111800000D02*
X133566726Y-125950000D01*
X133566726Y-125950000D02*
X132200000Y-125950000D01*
%TO.N,Net-(D3-K)*%
X121000000Y-107711755D02*
X121000000Y-117738353D01*
X121000000Y-117738353D02*
X121178279Y-117916632D01*
X122068005Y-106643750D02*
X121000000Y-107711755D01*
%TO.N,Net-(D1-K)*%
X120350000Y-117950000D02*
X120350000Y-118191982D01*
X120550000Y-105661755D02*
X120550000Y-117750000D01*
X120350000Y-118191982D02*
X120866881Y-118708863D01*
X121068005Y-105143750D02*
X120550000Y-105661755D01*
X120550000Y-117750000D02*
X120350000Y-117950000D01*
D35*
%TO.N,BAT-*%
X120354182Y-104095818D02*
X116350000Y-108100000D01*
X116350000Y-108100000D02*
X116350000Y-108700000D01*
X120354182Y-102362500D02*
X120354182Y-104095818D01*
D37*
%TO.N,Net-(D1-A)*%
X123240883Y-102659117D02*
X123240883Y-102550000D01*
X122431995Y-104356250D02*
X122431995Y-103468005D01*
X122431995Y-103468005D02*
X123240883Y-102659117D01*
%TO.N,Net-(D3-A)*%
X123431995Y-103668005D02*
X123900000Y-103200000D01*
X123431995Y-105856250D02*
X123431995Y-103668005D01*
%TO.N,LED_DATA_BL*%
X111652704Y-112469615D02*
X112619615Y-112469615D01*
X114800000Y-136400000D02*
X122547295Y-144147295D01*
X114750000Y-114600000D02*
X114800000Y-114600000D01*
X129169617Y-144147295D02*
X129819616Y-143497296D01*
X112619615Y-112469615D02*
X114750000Y-114600000D01*
X114800000Y-114600000D02*
X114800000Y-136400000D01*
X122547295Y-144147295D02*
X129169617Y-144147295D01*
D38*
%TO.N,LED_SWITCH_SLEEP*%
X151247400Y-124349998D02*
X150899998Y-124349998D01*
X150899998Y-124349998D02*
X149750000Y-123200000D01*
D37*
%TO.N,LED_DATA*%
X125880385Y-134555579D02*
X125880385Y-142802703D01*
X141070501Y-119365464D02*
X125880385Y-134555579D01*
%TO.N,GPIO3*%
X136078951Y-125621049D02*
X141730136Y-119969864D01*
X142776998Y-119919463D02*
X142770501Y-119912966D01*
X141730136Y-119969864D02*
X142747645Y-119969864D01*
X135928226Y-125621049D02*
X136078951Y-125621049D01*
X142747645Y-119969864D02*
X142776998Y-119940511D01*
X142770501Y-119912966D02*
X142770501Y-119762543D01*
X142776998Y-119940511D02*
X142776998Y-119919463D01*
%TO.N,GPIO1*%
X137300000Y-126650000D02*
X143140352Y-120809648D01*
X137300000Y-127000000D02*
X137300000Y-126650000D01*
X143462492Y-120809648D02*
X143512183Y-120859339D01*
X143140352Y-120809648D02*
X143462492Y-120809648D01*
%TO.N,GPIO2*%
X147150000Y-117950000D02*
X147150000Y-118100000D01*
X147150000Y-118100000D02*
X138250000Y-127000000D01*
X138250000Y-127000000D02*
X138250000Y-127200000D01*
%TO.N,GPIO4*%
X143420501Y-120031782D02*
X143420501Y-119929556D01*
X145396454Y-117953603D02*
X145396454Y-117887768D01*
X145379186Y-117774620D02*
X145379186Y-117763048D01*
X145396454Y-117887768D02*
X145404257Y-117879965D01*
X137100057Y-126250000D02*
X142937514Y-120412543D01*
X142937514Y-120412543D02*
X143039740Y-120412543D01*
X145404257Y-117879965D02*
X145404257Y-117799691D01*
X136500000Y-126250000D02*
X137100057Y-126250000D01*
X143420501Y-119929556D02*
X145396454Y-117953603D01*
X145404257Y-117799691D02*
X145379186Y-117774620D01*
X143039740Y-120412543D02*
X143420501Y-120031782D01*
%TO.N,GPIO10*%
X134200000Y-122750000D02*
X141650000Y-115300000D01*
X141650000Y-115300000D02*
X142850000Y-115300000D01*
%TO.N,GPIO9*%
X140550000Y-117900000D02*
X140550000Y-117800000D01*
X134900000Y-123550000D02*
X140550000Y-117900000D01*
X133550000Y-123550000D02*
X134900000Y-123550000D01*
%TO.N,Net-(U6A-+)*%
X148100000Y-127500000D02*
X148100000Y-127650000D01*
X148100000Y-127650000D02*
X146750000Y-129000000D01*
X146750000Y-129000000D02*
X146750000Y-131850000D01*
%TO.N,Net-(MK1-+)*%
X149054686Y-130145314D02*
X149850000Y-129350000D01*
X149054686Y-131010428D02*
X149054686Y-130145314D01*
D38*
%TO.N,GNDA*%
X148440969Y-133339237D02*
X146939237Y-133339237D01*
X146939237Y-133339237D02*
X146800000Y-133200000D01*
D35*
%TO.N,GND*%
X134200000Y-104225000D02*
X135325000Y-104225000D01*
D38*
X138345000Y-102025000D02*
X138250000Y-101930000D01*
X140300000Y-102025000D02*
X138345000Y-102025000D01*
D35*
X126105000Y-103945000D02*
X126105000Y-102250000D01*
D37*
X142274999Y-108500000D02*
X142750000Y-108975001D01*
D35*
X126100000Y-103950000D02*
X126105000Y-103945000D01*
D37*
X141800000Y-108500000D02*
X142274999Y-108500000D01*
D38*
X141232894Y-101092106D02*
X140300000Y-102025000D01*
D37*
X142750000Y-108975001D02*
X142750000Y-109050000D01*
D39*
X135895000Y-99250000D02*
X126105000Y-99250000D01*
D38*
X150700000Y-119602602D02*
X150700000Y-118800000D01*
X141232894Y-101005905D02*
X141232894Y-101092106D01*
X151247400Y-120150002D02*
X150700000Y-119602602D01*
D35*
X126375000Y-104225000D02*
X126100000Y-103950000D01*
X135895000Y-103655000D02*
X135895000Y-102250000D01*
X135325000Y-104225000D02*
X135895000Y-103655000D01*
X127800000Y-104225000D02*
X126375000Y-104225000D01*
%TD*%
%TA.AperFunction,Conductor*%
%TO.N,/Power/Boost_SW*%
G36*
X111398590Y-114849777D02*
G01*
X111401417Y-114850257D01*
X111883688Y-114937943D01*
X111946125Y-114969303D01*
X111981696Y-115029440D01*
X111984574Y-115075116D01*
X111566126Y-118469192D01*
X111538387Y-118533319D01*
X111480381Y-118572269D01*
X111420417Y-118575934D01*
X108166701Y-117971673D01*
X108104382Y-117940079D01*
X108069038Y-117879808D01*
X108066554Y-117832464D01*
X108532415Y-114524849D01*
X108561256Y-114461214D01*
X108619925Y-114423271D01*
X108674539Y-114419664D01*
X111398590Y-114849777D01*
G37*
%TD.AperFunction*%
%TD*%
%TA.AperFunction,Conductor*%
%TO.N,GND*%
G36*
X131483459Y-97755319D02*
G01*
X132439889Y-97792897D01*
X132444681Y-97793179D01*
X133398977Y-97868283D01*
X133403740Y-97868752D01*
X134354385Y-97981268D01*
X134359113Y-97981922D01*
X135304537Y-98131663D01*
X135309282Y-98132510D01*
X135325174Y-98135671D01*
X135387084Y-98168056D01*
X135421658Y-98228772D01*
X135417918Y-98298541D01*
X135388663Y-98344969D01*
X135312048Y-98421584D01*
X135229919Y-98544498D01*
X135229912Y-98544511D01*
X135173343Y-98681082D01*
X135173340Y-98681092D01*
X135144500Y-98826079D01*
X135144500Y-98826082D01*
X135144500Y-98834108D01*
X135144500Y-99534108D01*
X135144500Y-99600000D01*
X135144500Y-99673918D01*
X135144500Y-99673920D01*
X135144499Y-99673920D01*
X135173340Y-99818907D01*
X135173343Y-99818917D01*
X135229912Y-99955488D01*
X135229919Y-99955501D01*
X135312048Y-100078415D01*
X135312051Y-100078419D01*
X135416580Y-100182948D01*
X135416584Y-100182951D01*
X135539498Y-100265080D01*
X135539511Y-100265087D01*
X135676082Y-100321656D01*
X135676087Y-100321658D01*
X135676091Y-100321658D01*
X135676092Y-100321659D01*
X135821079Y-100350500D01*
X135821082Y-100350500D01*
X135968920Y-100350500D01*
X136066462Y-100331096D01*
X136113913Y-100321658D01*
X136250495Y-100265084D01*
X136373416Y-100182951D01*
X136477951Y-100078416D01*
X136560084Y-99955495D01*
X136616658Y-99818913D01*
X136645500Y-99673918D01*
X136645500Y-99600000D01*
X136645500Y-99534108D01*
X136645500Y-98834108D01*
X136645500Y-98826082D01*
X136645500Y-98826079D01*
X136616659Y-98681092D01*
X136616658Y-98681091D01*
X136616658Y-98681087D01*
X136584016Y-98602281D01*
X136576547Y-98532812D01*
X136607822Y-98470333D01*
X136667911Y-98434681D01*
X136727524Y-98434255D01*
X136874609Y-98469567D01*
X136935201Y-98504358D01*
X136967365Y-98566384D01*
X136969655Y-98588778D01*
X137022454Y-103393443D01*
X137003507Y-103460695D01*
X136951209Y-103507028D01*
X136901484Y-103518769D01*
X134997023Y-103565219D01*
X134929524Y-103547175D01*
X134882495Y-103495502D01*
X134870000Y-103441256D01*
X134870000Y-103101515D01*
X134889685Y-103034476D01*
X134899957Y-103021875D01*
X134900000Y-103020000D01*
X134910364Y-102563943D01*
X134922860Y-102516377D01*
X134921616Y-102515862D01*
X134981273Y-102371834D01*
X134981275Y-102371830D01*
X135010500Y-102224903D01*
X135010500Y-102075097D01*
X134981275Y-101928170D01*
X134937750Y-101823092D01*
X134928344Y-101772828D01*
X134942589Y-101146086D01*
X134872079Y-101143890D01*
X133771476Y-101109625D01*
X133706444Y-101088787D01*
X133680274Y-101071301D01*
X133634477Y-101040700D01*
X133634476Y-101040699D01*
X133634474Y-101040698D01*
X133488799Y-100980358D01*
X133488787Y-100980355D01*
X133334143Y-100949594D01*
X133334140Y-100949594D01*
X133176456Y-100949594D01*
X133176453Y-100949594D01*
X133021808Y-100980355D01*
X133021796Y-100980358D01*
X132877788Y-101040008D01*
X132808319Y-101047477D01*
X132782884Y-101040008D01*
X132638797Y-100980326D01*
X132638785Y-100980323D01*
X132484141Y-100949562D01*
X132484138Y-100949562D01*
X132326454Y-100949562D01*
X132326451Y-100949562D01*
X132171806Y-100980323D01*
X132171794Y-100980326D01*
X132036534Y-101036352D01*
X131967064Y-101043821D01*
X131940529Y-101034593D01*
X131940133Y-101035552D01*
X131788827Y-100972879D01*
X131788815Y-100972876D01*
X131634171Y-100942115D01*
X131634168Y-100942115D01*
X131476484Y-100942115D01*
X131476481Y-100942115D01*
X131321831Y-100972876D01*
X131210666Y-101018922D01*
X131159355Y-101028300D01*
X130102086Y-100995385D01*
X130058495Y-100986007D01*
X130016808Y-100968740D01*
X130016804Y-100968739D01*
X130016799Y-100968737D01*
X129862156Y-100937977D01*
X129862153Y-100937977D01*
X129704469Y-100937977D01*
X129704467Y-100937977D01*
X129549816Y-100968739D01*
X129543982Y-100970509D01*
X129543554Y-100969100D01*
X129501928Y-100976699D01*
X126950000Y-100897250D01*
X126950000Y-103498460D01*
X126930315Y-103565499D01*
X126877511Y-103611254D01*
X126820614Y-103622343D01*
X126464168Y-103606845D01*
X126163891Y-103593790D01*
X126163884Y-103593790D01*
X126163882Y-103593790D01*
X125215045Y-103609983D01*
X125147679Y-103591445D01*
X125101030Y-103539430D01*
X125088965Y-103483016D01*
X125174459Y-99934938D01*
X125195753Y-99868396D01*
X125249644Y-99823927D01*
X125319022Y-99815652D01*
X125381860Y-99846199D01*
X125412984Y-99890476D01*
X125439914Y-99955491D01*
X125439919Y-99955501D01*
X125522048Y-100078415D01*
X125522051Y-100078419D01*
X125626580Y-100182948D01*
X125626584Y-100182951D01*
X125749498Y-100265080D01*
X125749511Y-100265087D01*
X125886082Y-100321656D01*
X125886087Y-100321658D01*
X125886091Y-100321658D01*
X125886092Y-100321659D01*
X126031079Y-100350500D01*
X126031082Y-100350500D01*
X126178920Y-100350500D01*
X126276462Y-100331096D01*
X126323913Y-100321658D01*
X126460495Y-100265084D01*
X126583416Y-100182951D01*
X126687951Y-100078416D01*
X126770084Y-99955495D01*
X126826658Y-99818913D01*
X126855500Y-99673918D01*
X126855500Y-99600000D01*
X126855500Y-99534108D01*
X126855500Y-98834108D01*
X126855500Y-98826082D01*
X126855500Y-98826079D01*
X126826659Y-98681092D01*
X126826658Y-98681091D01*
X126826658Y-98681087D01*
X126794016Y-98602281D01*
X126770087Y-98544511D01*
X126770080Y-98544498D01*
X126687951Y-98421584D01*
X126687948Y-98421580D01*
X126611337Y-98344969D01*
X126606466Y-98336049D01*
X126598441Y-98329815D01*
X126590005Y-98305902D01*
X126577852Y-98283646D01*
X126578576Y-98273508D01*
X126575196Y-98263925D01*
X126581027Y-98239249D01*
X126582836Y-98213954D01*
X126588927Y-98205817D01*
X126591264Y-98195928D01*
X126609511Y-98178320D01*
X126624708Y-98158021D01*
X126635568Y-98153177D01*
X126641543Y-98147413D01*
X126674821Y-98135672D01*
X126690725Y-98132509D01*
X126695453Y-98131664D01*
X127640893Y-97981921D01*
X127645607Y-97981268D01*
X128596264Y-97868751D01*
X128601017Y-97868284D01*
X129555321Y-97793178D01*
X129560107Y-97792897D01*
X130516541Y-97755319D01*
X130521409Y-97755223D01*
X131478591Y-97755223D01*
X131483459Y-97755319D01*
G37*
%TD.AperFunction*%
%TD*%
%TA.AperFunction,Conductor*%
%TO.N,VCC*%
G36*
X113022179Y-119796707D02*
G01*
X113087962Y-119820249D01*
X113130575Y-119875620D01*
X113138974Y-119919135D01*
X113186066Y-124204549D01*
X113167119Y-124271801D01*
X113114821Y-124318134D01*
X113049030Y-124329224D01*
X108322761Y-123829330D01*
X108258164Y-123802703D01*
X108218217Y-123745380D01*
X108214161Y-123681955D01*
X109007723Y-119670522D01*
X109040043Y-119608581D01*
X109100722Y-119573943D01*
X109136560Y-119570799D01*
X113022179Y-119796707D01*
G37*
%TD.AperFunction*%
%TD*%
M02*
