%TF.GenerationSoftware,KiCad,Pcbnew,9.0.0*%
%TF.CreationDate,2025-05-02T17:15:01+02:00*%
%TF.ProjectId,009_RGB Sound Control Light Bar Redesign_fraseross,3030395f-5247-4422-9053-6f756e642043,rev?*%
%TF.SameCoordinates,Original*%
%TF.FileFunction,Soldermask,Top*%
%TF.FilePolarity,Negative*%
%FSLAX46Y46*%
G04 Gerber Fmt 4.6, Leading zero omitted, Abs format (unit mm)*
G04 Created by KiCad (PCBNEW 9.0.0) date 2025-05-02 17:15:01*
%MOMM*%
%LPD*%
G01*
G04 APERTURE LIST*
G04 Aperture macros list*
%AMRoundRect*
0 Rectangle with rounded corners*
0 $1 Rounding radius*
0 $2 $3 $4 $5 $6 $7 $8 $9 X,Y pos of 4 corners*
0 Add a 4 corners polygon primitive as box body*
4,1,4,$2,$3,$4,$5,$6,$7,$8,$9,$2,$3,0*
0 Add four circle primitives for the rounded corners*
1,1,$1+$1,$2,$3*
1,1,$1+$1,$4,$5*
1,1,$1+$1,$6,$7*
1,1,$1+$1,$8,$9*
0 Add four rect primitives between the rounded corners*
20,1,$1+$1,$2,$3,$4,$5,0*
20,1,$1+$1,$4,$5,$6,$7,0*
20,1,$1+$1,$6,$7,$8,$9,0*
20,1,$1+$1,$8,$9,$2,$3,0*%
%AMHorizOval*
0 Thick line with rounded ends*
0 $1 width*
0 $2 $3 position (X,Y) of the first rounded end (center of the circle)*
0 $4 $5 position (X,Y) of the second rounded end (center of the circle)*
0 Add line between two ends*
20,1,$1,$2,$3,$4,$5,0*
0 Add two circle primitives to create the rounded ends*
1,1,$1,$2,$3*
1,1,$1,$4,$5*%
%AMRotRect*
0 Rectangle, with rotation*
0 The origin of the aperture is its center*
0 $1 length*
0 $2 width*
0 $3 Rotation angle, in degrees counterclockwise*
0 Add horizontal line*
21,1,$1,$2,0,0,$3*%
G04 Aperture macros list end*
%ADD10C,0.010000*%
%ADD11RoundRect,0.250000X-0.475000X0.250000X-0.475000X-0.250000X0.475000X-0.250000X0.475000X0.250000X0*%
%ADD12RoundRect,0.218750X0.256250X-0.218750X0.256250X0.218750X-0.256250X0.218750X-0.256250X-0.218750X0*%
%ADD13C,1.020000*%
%ADD14O,1.304000X2.004000*%
%ADD15C,0.889000*%
%ADD16R,1.193800X1.193800*%
%ADD17C,1.498600*%
%ADD18C,1.300000*%
%ADD19C,1.875000*%
%ADD20RoundRect,0.250000X0.712679X-1.141091X1.059975X0.828524X-0.712679X1.141091X-1.059975X-0.828524X0*%
%ADD21RoundRect,0.200000X-0.275000X0.200000X-0.275000X-0.200000X0.275000X-0.200000X0.275000X0.200000X0*%
%ADD22RotRect,1.700000X1.700000X300.000000*%
%ADD23HorizOval,1.700000X0.000000X0.000000X0.000000X0.000000X0*%
%ADD24RotRect,1.700000X1.700000X35.000000*%
%ADD25HorizOval,1.700000X0.000000X0.000000X0.000000X0.000000X0*%
%ADD26RoundRect,0.218750X-0.061318X-0.331294X0.317568X-0.112544X0.061318X0.331294X-0.317568X0.112544X0*%
%ADD27RotRect,0.850000X0.850000X350.000000*%
%ADD28HorizOval,0.850000X0.000000X0.000000X0.000000X0.000000X0*%
%ADD29RoundRect,0.275250X0.851116X0.502083X-0.628065X0.762903X-0.851116X-0.502083X0.628065X-0.762903X0*%
%ADD30RoundRect,0.287625X0.991664X0.506621X-0.758585X0.815237X-0.991664X-0.506621X0.758585X-0.815237X0*%
%ADD31RoundRect,0.225000X-0.250000X0.225000X-0.250000X-0.225000X0.250000X-0.225000X0.250000X0.225000X0*%
G04 APERTURE END LIST*
D10*
%TO.C,P2*%
X128150000Y-105050000D02*
X127450000Y-105050000D01*
X127450000Y-103400000D01*
X128150000Y-103400000D01*
X128150000Y-105050000D01*
G36*
X128150000Y-105050000D02*
G01*
X127450000Y-105050000D01*
X127450000Y-103400000D01*
X128150000Y-103400000D01*
X128150000Y-105050000D01*
G37*
X128950000Y-105050000D02*
X128250000Y-105050000D01*
X128250000Y-103400000D01*
X128950000Y-103400000D01*
X128950000Y-105050000D01*
G36*
X128950000Y-105050000D02*
G01*
X128250000Y-105050000D01*
X128250000Y-103400000D01*
X128950000Y-103400000D01*
X128950000Y-105050000D01*
G37*
X129450000Y-105050000D02*
X129050000Y-105050000D01*
X129050000Y-103400000D01*
X129450000Y-103400000D01*
X129450000Y-105050000D01*
G36*
X129450000Y-105050000D02*
G01*
X129050000Y-105050000D01*
X129050000Y-103400000D01*
X129450000Y-103400000D01*
X129450000Y-105050000D01*
G37*
X129950000Y-105050000D02*
X129550000Y-105050000D01*
X129550000Y-103400000D01*
X129950000Y-103400000D01*
X129950000Y-105050000D01*
G36*
X129950000Y-105050000D02*
G01*
X129550000Y-105050000D01*
X129550000Y-103400000D01*
X129950000Y-103400000D01*
X129950000Y-105050000D01*
G37*
X130450000Y-105050000D02*
X130050000Y-105050000D01*
X130050000Y-103400000D01*
X130450000Y-103400000D01*
X130450000Y-105050000D01*
G36*
X130450000Y-105050000D02*
G01*
X130050000Y-105050000D01*
X130050000Y-103400000D01*
X130450000Y-103400000D01*
X130450000Y-105050000D01*
G37*
X130950000Y-105050000D02*
X130550000Y-105050000D01*
X130550000Y-103400000D01*
X130950000Y-103400000D01*
X130950000Y-105050000D01*
G36*
X130950000Y-105050000D02*
G01*
X130550000Y-105050000D01*
X130550000Y-103400000D01*
X130950000Y-103400000D01*
X130950000Y-105050000D01*
G37*
X131450000Y-105050000D02*
X131050000Y-105050000D01*
X131050000Y-103400000D01*
X131450000Y-103400000D01*
X131450000Y-105050000D01*
G36*
X131450000Y-105050000D02*
G01*
X131050000Y-105050000D01*
X131050000Y-103400000D01*
X131450000Y-103400000D01*
X131450000Y-105050000D01*
G37*
X131950000Y-105050000D02*
X131550000Y-105050000D01*
X131550000Y-103400000D01*
X131950000Y-103400000D01*
X131950000Y-105050000D01*
G36*
X131950000Y-105050000D02*
G01*
X131550000Y-105050000D01*
X131550000Y-103400000D01*
X131950000Y-103400000D01*
X131950000Y-105050000D01*
G37*
X132450000Y-105050000D02*
X132050000Y-105050000D01*
X132050000Y-103400000D01*
X132450000Y-103400000D01*
X132450000Y-105050000D01*
G36*
X132450000Y-105050000D02*
G01*
X132050000Y-105050000D01*
X132050000Y-103400000D01*
X132450000Y-103400000D01*
X132450000Y-105050000D01*
G37*
X132950000Y-105050000D02*
X132550000Y-105050000D01*
X132550000Y-103400000D01*
X132950000Y-103400000D01*
X132950000Y-105050000D01*
G36*
X132950000Y-105050000D02*
G01*
X132550000Y-105050000D01*
X132550000Y-103400000D01*
X132950000Y-103400000D01*
X132950000Y-105050000D01*
G37*
X133750000Y-105050000D02*
X133050000Y-105050000D01*
X133050000Y-103400000D01*
X133750000Y-103400000D01*
X133750000Y-105050000D01*
G36*
X133750000Y-105050000D02*
G01*
X133050000Y-105050000D01*
X133050000Y-103400000D01*
X133750000Y-103400000D01*
X133750000Y-105050000D01*
G37*
X134550000Y-105050000D02*
X133850000Y-105050000D01*
X133850000Y-103400000D01*
X134550000Y-103400000D01*
X134550000Y-105050000D01*
G36*
X134550000Y-105050000D02*
G01*
X133850000Y-105050000D01*
X133850000Y-103400000D01*
X134550000Y-103400000D01*
X134550000Y-105050000D01*
G37*
X126139000Y-98251000D02*
X126173000Y-98254000D01*
X126207000Y-98258000D01*
X126240000Y-98264000D01*
X126273000Y-98272000D01*
X126306000Y-98282000D01*
X126338000Y-98293000D01*
X126369000Y-98306000D01*
X126400000Y-98321000D01*
X126430000Y-98337000D01*
X126459000Y-98355000D01*
X126487000Y-98374000D01*
X126514000Y-98395000D01*
X126540000Y-98417000D01*
X126565000Y-98440000D01*
X126588000Y-98465000D01*
X126610000Y-98491000D01*
X126631000Y-98518000D01*
X126650000Y-98546000D01*
X126668000Y-98575000D01*
X126684000Y-98605000D01*
X126699000Y-98636000D01*
X126712000Y-98667000D01*
X126723000Y-98699000D01*
X126733000Y-98732000D01*
X126741000Y-98765000D01*
X126747000Y-98798000D01*
X126751000Y-98832000D01*
X126754000Y-98866000D01*
X126755000Y-98900000D01*
X126755000Y-99250000D01*
X126755000Y-99600000D01*
X126754000Y-99634000D01*
X126751000Y-99668000D01*
X126747000Y-99702000D01*
X126741000Y-99735000D01*
X126733000Y-99768000D01*
X126723000Y-99801000D01*
X126712000Y-99833000D01*
X126699000Y-99864000D01*
X126684000Y-99895000D01*
X126668000Y-99925000D01*
X126650000Y-99954000D01*
X126631000Y-99982000D01*
X126610000Y-100009000D01*
X126588000Y-100035000D01*
X126565000Y-100060000D01*
X126540000Y-100083000D01*
X126514000Y-100105000D01*
X126487000Y-100126000D01*
X126459000Y-100145000D01*
X126430000Y-100163000D01*
X126400000Y-100179000D01*
X126369000Y-100194000D01*
X126338000Y-100207000D01*
X126306000Y-100218000D01*
X126273000Y-100228000D01*
X126240000Y-100236000D01*
X126207000Y-100242000D01*
X126173000Y-100246000D01*
X126139000Y-100249000D01*
X126105000Y-100250000D01*
X126071000Y-100249000D01*
X126037000Y-100246000D01*
X126003000Y-100242000D01*
X125970000Y-100236000D01*
X125937000Y-100228000D01*
X125904000Y-100218000D01*
X125872000Y-100207000D01*
X125841000Y-100194000D01*
X125810000Y-100179000D01*
X125780000Y-100163000D01*
X125751000Y-100145000D01*
X125723000Y-100126000D01*
X125696000Y-100105000D01*
X125670000Y-100083000D01*
X125645000Y-100060000D01*
X125622000Y-100035000D01*
X125600000Y-100009000D01*
X125579000Y-99982000D01*
X125560000Y-99954000D01*
X125542000Y-99925000D01*
X125526000Y-99895000D01*
X125511000Y-99864000D01*
X125498000Y-99833000D01*
X125487000Y-99801000D01*
X125477000Y-99768000D01*
X125469000Y-99735000D01*
X125463000Y-99702000D01*
X125459000Y-99668000D01*
X125456000Y-99634000D01*
X125455000Y-99600000D01*
X125455000Y-99250000D01*
X125455000Y-98900000D01*
X125456000Y-98866000D01*
X125459000Y-98832000D01*
X125463000Y-98798000D01*
X125469000Y-98765000D01*
X125477000Y-98732000D01*
X125487000Y-98699000D01*
X125498000Y-98667000D01*
X125511000Y-98636000D01*
X125526000Y-98605000D01*
X125542000Y-98575000D01*
X125560000Y-98546000D01*
X125579000Y-98518000D01*
X125600000Y-98491000D01*
X125622000Y-98465000D01*
X125645000Y-98440000D01*
X125670000Y-98417000D01*
X125696000Y-98395000D01*
X125723000Y-98374000D01*
X125751000Y-98355000D01*
X125780000Y-98337000D01*
X125810000Y-98321000D01*
X125841000Y-98306000D01*
X125872000Y-98293000D01*
X125904000Y-98282000D01*
X125937000Y-98272000D01*
X125970000Y-98264000D01*
X126003000Y-98258000D01*
X126037000Y-98254000D01*
X126071000Y-98251000D01*
X126105000Y-98250000D01*
X126139000Y-98251000D01*
G36*
X126139000Y-98251000D02*
G01*
X126173000Y-98254000D01*
X126207000Y-98258000D01*
X126240000Y-98264000D01*
X126273000Y-98272000D01*
X126306000Y-98282000D01*
X126338000Y-98293000D01*
X126369000Y-98306000D01*
X126400000Y-98321000D01*
X126430000Y-98337000D01*
X126459000Y-98355000D01*
X126487000Y-98374000D01*
X126514000Y-98395000D01*
X126540000Y-98417000D01*
X126565000Y-98440000D01*
X126588000Y-98465000D01*
X126610000Y-98491000D01*
X126631000Y-98518000D01*
X126650000Y-98546000D01*
X126668000Y-98575000D01*
X126684000Y-98605000D01*
X126699000Y-98636000D01*
X126712000Y-98667000D01*
X126723000Y-98699000D01*
X126733000Y-98732000D01*
X126741000Y-98765000D01*
X126747000Y-98798000D01*
X126751000Y-98832000D01*
X126754000Y-98866000D01*
X126755000Y-98900000D01*
X126755000Y-99250000D01*
X126755000Y-99600000D01*
X126754000Y-99634000D01*
X126751000Y-99668000D01*
X126747000Y-99702000D01*
X126741000Y-99735000D01*
X126733000Y-99768000D01*
X126723000Y-99801000D01*
X126712000Y-99833000D01*
X126699000Y-99864000D01*
X126684000Y-99895000D01*
X126668000Y-99925000D01*
X126650000Y-99954000D01*
X126631000Y-99982000D01*
X126610000Y-100009000D01*
X126588000Y-100035000D01*
X126565000Y-100060000D01*
X126540000Y-100083000D01*
X126514000Y-100105000D01*
X126487000Y-100126000D01*
X126459000Y-100145000D01*
X126430000Y-100163000D01*
X126400000Y-100179000D01*
X126369000Y-100194000D01*
X126338000Y-100207000D01*
X126306000Y-100218000D01*
X126273000Y-100228000D01*
X126240000Y-100236000D01*
X126207000Y-100242000D01*
X126173000Y-100246000D01*
X126139000Y-100249000D01*
X126105000Y-100250000D01*
X126071000Y-100249000D01*
X126037000Y-100246000D01*
X126003000Y-100242000D01*
X125970000Y-100236000D01*
X125937000Y-100228000D01*
X125904000Y-100218000D01*
X125872000Y-100207000D01*
X125841000Y-100194000D01*
X125810000Y-100179000D01*
X125780000Y-100163000D01*
X125751000Y-100145000D01*
X125723000Y-100126000D01*
X125696000Y-100105000D01*
X125670000Y-100083000D01*
X125645000Y-100060000D01*
X125622000Y-100035000D01*
X125600000Y-100009000D01*
X125579000Y-99982000D01*
X125560000Y-99954000D01*
X125542000Y-99925000D01*
X125526000Y-99895000D01*
X125511000Y-99864000D01*
X125498000Y-99833000D01*
X125487000Y-99801000D01*
X125477000Y-99768000D01*
X125469000Y-99735000D01*
X125463000Y-99702000D01*
X125459000Y-99668000D01*
X125456000Y-99634000D01*
X125455000Y-99600000D01*
X125455000Y-99250000D01*
X125455000Y-98900000D01*
X125456000Y-98866000D01*
X125459000Y-98832000D01*
X125463000Y-98798000D01*
X125469000Y-98765000D01*
X125477000Y-98732000D01*
X125487000Y-98699000D01*
X125498000Y-98667000D01*
X125511000Y-98636000D01*
X125526000Y-98605000D01*
X125542000Y-98575000D01*
X125560000Y-98546000D01*
X125579000Y-98518000D01*
X125600000Y-98491000D01*
X125622000Y-98465000D01*
X125645000Y-98440000D01*
X125670000Y-98417000D01*
X125696000Y-98395000D01*
X125723000Y-98374000D01*
X125751000Y-98355000D01*
X125780000Y-98337000D01*
X125810000Y-98321000D01*
X125841000Y-98306000D01*
X125872000Y-98293000D01*
X125904000Y-98282000D01*
X125937000Y-98272000D01*
X125970000Y-98264000D01*
X126003000Y-98258000D01*
X126037000Y-98254000D01*
X126071000Y-98251000D01*
X126105000Y-98250000D01*
X126139000Y-98251000D01*
G37*
X135929000Y-98251000D02*
X135963000Y-98254000D01*
X135997000Y-98258000D01*
X136030000Y-98264000D01*
X136063000Y-98272000D01*
X136096000Y-98282000D01*
X136128000Y-98293000D01*
X136159000Y-98306000D01*
X136190000Y-98321000D01*
X136220000Y-98337000D01*
X136249000Y-98355000D01*
X136277000Y-98374000D01*
X136304000Y-98395000D01*
X136330000Y-98417000D01*
X136355000Y-98440000D01*
X136378000Y-98465000D01*
X136400000Y-98491000D01*
X136421000Y-98518000D01*
X136440000Y-98546000D01*
X136458000Y-98575000D01*
X136474000Y-98605000D01*
X136489000Y-98636000D01*
X136502000Y-98667000D01*
X136513000Y-98699000D01*
X136523000Y-98732000D01*
X136531000Y-98765000D01*
X136537000Y-98798000D01*
X136541000Y-98832000D01*
X136544000Y-98866000D01*
X136545000Y-98900000D01*
X136545000Y-99250000D01*
X136545000Y-99600000D01*
X136544000Y-99634000D01*
X136541000Y-99668000D01*
X136537000Y-99702000D01*
X136531000Y-99735000D01*
X136523000Y-99768000D01*
X136513000Y-99801000D01*
X136502000Y-99833000D01*
X136489000Y-99864000D01*
X136474000Y-99895000D01*
X136458000Y-99925000D01*
X136440000Y-99954000D01*
X136421000Y-99982000D01*
X136400000Y-100009000D01*
X136378000Y-100035000D01*
X136355000Y-100060000D01*
X136330000Y-100083000D01*
X136304000Y-100105000D01*
X136277000Y-100126000D01*
X136249000Y-100145000D01*
X136220000Y-100163000D01*
X136190000Y-100179000D01*
X136159000Y-100194000D01*
X136128000Y-100207000D01*
X136096000Y-100218000D01*
X136063000Y-100228000D01*
X136030000Y-100236000D01*
X135997000Y-100242000D01*
X135963000Y-100246000D01*
X135929000Y-100249000D01*
X135895000Y-100250000D01*
X135861000Y-100249000D01*
X135827000Y-100246000D01*
X135793000Y-100242000D01*
X135760000Y-100236000D01*
X135727000Y-100228000D01*
X135694000Y-100218000D01*
X135662000Y-100207000D01*
X135631000Y-100194000D01*
X135600000Y-100179000D01*
X135570000Y-100163000D01*
X135541000Y-100145000D01*
X135513000Y-100126000D01*
X135486000Y-100105000D01*
X135460000Y-100083000D01*
X135435000Y-100060000D01*
X135412000Y-100035000D01*
X135390000Y-100009000D01*
X135369000Y-99982000D01*
X135350000Y-99954000D01*
X135332000Y-99925000D01*
X135316000Y-99895000D01*
X135301000Y-99864000D01*
X135288000Y-99833000D01*
X135277000Y-99801000D01*
X135267000Y-99768000D01*
X135259000Y-99735000D01*
X135253000Y-99702000D01*
X135249000Y-99668000D01*
X135246000Y-99634000D01*
X135245000Y-99600000D01*
X135245000Y-99250000D01*
X135245000Y-98900000D01*
X135246000Y-98866000D01*
X135249000Y-98832000D01*
X135253000Y-98798000D01*
X135259000Y-98765000D01*
X135267000Y-98732000D01*
X135277000Y-98699000D01*
X135288000Y-98667000D01*
X135301000Y-98636000D01*
X135316000Y-98605000D01*
X135332000Y-98575000D01*
X135350000Y-98546000D01*
X135369000Y-98518000D01*
X135390000Y-98491000D01*
X135412000Y-98465000D01*
X135435000Y-98440000D01*
X135460000Y-98417000D01*
X135486000Y-98395000D01*
X135513000Y-98374000D01*
X135541000Y-98355000D01*
X135570000Y-98337000D01*
X135600000Y-98321000D01*
X135631000Y-98306000D01*
X135662000Y-98293000D01*
X135694000Y-98282000D01*
X135727000Y-98272000D01*
X135760000Y-98264000D01*
X135793000Y-98258000D01*
X135827000Y-98254000D01*
X135861000Y-98251000D01*
X135895000Y-98250000D01*
X135929000Y-98251000D01*
G36*
X135929000Y-98251000D02*
G01*
X135963000Y-98254000D01*
X135997000Y-98258000D01*
X136030000Y-98264000D01*
X136063000Y-98272000D01*
X136096000Y-98282000D01*
X136128000Y-98293000D01*
X136159000Y-98306000D01*
X136190000Y-98321000D01*
X136220000Y-98337000D01*
X136249000Y-98355000D01*
X136277000Y-98374000D01*
X136304000Y-98395000D01*
X136330000Y-98417000D01*
X136355000Y-98440000D01*
X136378000Y-98465000D01*
X136400000Y-98491000D01*
X136421000Y-98518000D01*
X136440000Y-98546000D01*
X136458000Y-98575000D01*
X136474000Y-98605000D01*
X136489000Y-98636000D01*
X136502000Y-98667000D01*
X136513000Y-98699000D01*
X136523000Y-98732000D01*
X136531000Y-98765000D01*
X136537000Y-98798000D01*
X136541000Y-98832000D01*
X136544000Y-98866000D01*
X136545000Y-98900000D01*
X136545000Y-99250000D01*
X136545000Y-99600000D01*
X136544000Y-99634000D01*
X136541000Y-99668000D01*
X136537000Y-99702000D01*
X136531000Y-99735000D01*
X136523000Y-99768000D01*
X136513000Y-99801000D01*
X136502000Y-99833000D01*
X136489000Y-99864000D01*
X136474000Y-99895000D01*
X136458000Y-99925000D01*
X136440000Y-99954000D01*
X136421000Y-99982000D01*
X136400000Y-100009000D01*
X136378000Y-100035000D01*
X136355000Y-100060000D01*
X136330000Y-100083000D01*
X136304000Y-100105000D01*
X136277000Y-100126000D01*
X136249000Y-100145000D01*
X136220000Y-100163000D01*
X136190000Y-100179000D01*
X136159000Y-100194000D01*
X136128000Y-100207000D01*
X136096000Y-100218000D01*
X136063000Y-100228000D01*
X136030000Y-100236000D01*
X135997000Y-100242000D01*
X135963000Y-100246000D01*
X135929000Y-100249000D01*
X135895000Y-100250000D01*
X135861000Y-100249000D01*
X135827000Y-100246000D01*
X135793000Y-100242000D01*
X135760000Y-100236000D01*
X135727000Y-100228000D01*
X135694000Y-100218000D01*
X135662000Y-100207000D01*
X135631000Y-100194000D01*
X135600000Y-100179000D01*
X135570000Y-100163000D01*
X135541000Y-100145000D01*
X135513000Y-100126000D01*
X135486000Y-100105000D01*
X135460000Y-100083000D01*
X135435000Y-100060000D01*
X135412000Y-100035000D01*
X135390000Y-100009000D01*
X135369000Y-99982000D01*
X135350000Y-99954000D01*
X135332000Y-99925000D01*
X135316000Y-99895000D01*
X135301000Y-99864000D01*
X135288000Y-99833000D01*
X135277000Y-99801000D01*
X135267000Y-99768000D01*
X135259000Y-99735000D01*
X135253000Y-99702000D01*
X135249000Y-99668000D01*
X135246000Y-99634000D01*
X135245000Y-99600000D01*
X135245000Y-99250000D01*
X135245000Y-98900000D01*
X135246000Y-98866000D01*
X135249000Y-98832000D01*
X135253000Y-98798000D01*
X135259000Y-98765000D01*
X135267000Y-98732000D01*
X135277000Y-98699000D01*
X135288000Y-98667000D01*
X135301000Y-98636000D01*
X135316000Y-98605000D01*
X135332000Y-98575000D01*
X135350000Y-98546000D01*
X135369000Y-98518000D01*
X135390000Y-98491000D01*
X135412000Y-98465000D01*
X135435000Y-98440000D01*
X135460000Y-98417000D01*
X135486000Y-98395000D01*
X135513000Y-98374000D01*
X135541000Y-98355000D01*
X135570000Y-98337000D01*
X135600000Y-98321000D01*
X135631000Y-98306000D01*
X135662000Y-98293000D01*
X135694000Y-98282000D01*
X135727000Y-98272000D01*
X135760000Y-98264000D01*
X135793000Y-98258000D01*
X135827000Y-98254000D01*
X135861000Y-98251000D01*
X135895000Y-98250000D01*
X135929000Y-98251000D01*
G37*
%TD*%
D11*
%TO.C,C8*%
X138250000Y-100030000D03*
X138250000Y-101930000D03*
%TD*%
D12*
%TO.C,TX*%
X138250000Y-108487501D03*
X138250000Y-106912499D03*
%TD*%
D13*
%TO.C,P2*%
X134250000Y-102150000D03*
X127750000Y-102150000D03*
D14*
X135895000Y-102250000D03*
X126105000Y-102250000D03*
%TD*%
D15*
%TO.C,SW1*%
X152547400Y-123400000D03*
X152547400Y-121100000D03*
D16*
X151247400Y-124349998D03*
X151247400Y-120150002D03*
D17*
X152847399Y-126000000D03*
X152847399Y-118500000D03*
%TD*%
D18*
%TO.C,S2*%
X125880385Y-142802703D03*
X127850000Y-143150000D03*
X129819616Y-143497296D03*
D19*
X123812289Y-142438042D03*
X131887713Y-143861957D03*
%TD*%
D20*
%TO.C,D4*%
X109626657Y-121117337D03*
X110373343Y-116882663D03*
%TD*%
D21*
%TO.C,R12*%
X140000000Y-103775000D03*
X140000000Y-105425000D03*
%TD*%
D22*
%TO.C,J1*%
X120354182Y-102362500D03*
D23*
X118154475Y-103632502D03*
%TD*%
D12*
%TO.C,DCOK*%
X141800000Y-108500000D03*
X141800000Y-106924998D03*
%TD*%
%TO.C,RX*%
X140000000Y-108487501D03*
X140000000Y-106912499D03*
%TD*%
D24*
%TO.C,J2*%
X145257790Y-104348386D03*
D25*
X146714674Y-106429034D03*
X148171558Y-108509678D03*
X149628442Y-110590325D03*
X151085327Y-112670971D03*
X152542211Y-114751617D03*
%TD*%
D26*
%TO.C,D3*%
X122068005Y-106643750D03*
X123431995Y-105856250D03*
%TD*%
%TO.C,D1*%
X121068005Y-105143750D03*
X122431995Y-104356250D03*
%TD*%
D27*
%TO.C,J5*%
X112000000Y-110500000D03*
D28*
X111826352Y-111484808D03*
X111652704Y-112469615D03*
X111479054Y-113454423D03*
%TD*%
D21*
%TO.C,R10*%
X138260000Y-103775000D03*
X138260000Y-105425000D03*
%TD*%
%TO.C,R8*%
X141750000Y-103775000D03*
X141750000Y-105425000D03*
%TD*%
D29*
%TO.C,MK1*%
X148440969Y-133339237D03*
D30*
X149054686Y-131010428D03*
%TD*%
D27*
%TO.C,J6*%
X109500000Y-125250000D03*
D28*
X109326352Y-126234808D03*
X109152704Y-127219615D03*
%TD*%
D31*
%TO.C,C7*%
X140300000Y-100475000D03*
X140300000Y-102025000D03*
%TD*%
M02*
